<svg width="67" height="67" viewBox="0 0 67 67" fill="none" xmlns="http://www.w3.org/2000/svg">
<g clip-path="url(#clip0_263_309)">
<path d="M51.3589 47.4085C52.2016 46.5055 52.9251 45.7294 53.6466 44.957C54.0195 44.5652 54.37 44.1697 54.7355 43.7779C55.7162 42.7294 55.7162 42.7294 55.8914 41.3842C55.9756 41.3663 56.061 41.3545 56.1469 41.3488C56.7491 41.3488 57.3513 41.3488 58.0319 41.3488V60.3376H59.8963C60.9647 60.3376 61.2294 60.5391 61.4942 61.582C61.7589 62.6249 62.0163 63.6939 62.2885 64.7947H66.9497V66.9999H0.0503371V64.8301H2.20381V50.3264H4.44118V64.7574H12.2496C12.2589 64.5298 12.2794 64.304 12.2794 64.0801C12.2794 62.1473 12.2571 60.2163 12.3018 58.2854C12.3018 57.9122 12.5815 57.5391 12.7344 57.166C12.7447 57.145 12.7609 57.1275 12.781 57.1156C14.2931 56.0783 14.6455 54.651 14.556 52.8581C14.4049 49.8171 14.5038 46.763 14.5261 43.7163C14.546 43.5002 14.5081 43.2827 14.4163 43.086C14.3246 42.8893 14.1824 42.7206 14.0041 42.5969C11.2074 40.4439 8.41998 38.2592 5.61394 36.1044C5.32681 35.8861 4.94459 35.7928 4.4766 35.5839V47.9906H2.22805V47.3525C2.22805 43.2082 2.22805 39.0652 2.22805 34.9234C2.22805 34.0111 2.4145 33.7686 3.33741 33.4514V29.1063H5.54309V33.2499C6.66177 34.0969 7.68164 34.8488 8.68287 35.6249C11.0899 37.4906 13.4764 39.3861 15.9021 41.2219C16.5267 41.6958 16.7598 42.2182 16.7523 42.9925C16.715 46.0876 16.7374 49.1828 16.7374 52.2779V52.9589L16.9332 53.1044C17.6361 52.3581 18.3259 51.5857 19.0456 50.8469C19.8231 50.0484 20.3396 50.0503 21.1152 50.8245C22.2171 51.9234 23.3116 53.0316 24.5048 54.2313C24.5272 53.916 24.5552 53.7238 24.5552 53.5316C24.5552 51.4141 24.5347 49.2947 24.5775 47.1772C24.5924 46.7468 24.7454 46.3327 25.0138 45.9962C27.4675 43.1361 29.9547 40.304 32.4363 37.4682C33.1821 36.6156 33.872 36.6398 34.5637 37.5279C35.6488 38.9197 36.7302 40.3134 37.8209 41.7182C38.0913 41.291 38.6432 41.2201 40.1832 41.4048C40.1832 42.3376 40.1571 43.2872 40.1981 44.2313C40.213 44.5503 40.3081 44.9589 40.5207 45.1641C42.1707 46.7257 42.5343 48.6175 42.4597 50.8339C42.3125 55.2051 42.4169 59.5839 42.4169 63.9607V64.7592H44.8892C45.1427 63.7406 45.4 62.6921 45.6629 61.6436C45.9463 60.5242 46.185 60.3376 47.3503 60.3376H49.0693V25.6977H46.446C45.2136 25.6977 43.9812 25.666 42.7487 25.7089C41.988 25.7369 41.5555 25.4197 41.2311 24.7518C40.0104 22.2481 38.7675 19.7555 37.5021 17.2742C37.3902 17.054 37.0919 16.7835 36.8775 16.7816C32.4363 16.7537 27.9951 16.7611 23.498 16.7611V21.1865C23.5965 21.2162 23.699 21.2307 23.8019 21.2294C24.9486 21.0298 25.5452 21.5783 25.9423 22.6175C26.4644 23.9813 27.0965 25.304 27.7099 26.6324C27.8382 26.8796 27.8981 27.1567 27.8833 27.4349C27.8686 27.713 27.7797 27.9822 27.626 28.2145C27.0181 29.2313 26.4029 30.2462 25.8678 31.3022C25.4613 32.1063 24.9243 32.541 24.0033 32.4048C23.817 32.3931 23.6302 32.3931 23.4439 32.4048C23.4223 32.7153 23.4223 33.027 23.4439 33.3376C23.6397 34.6324 23.1941 35.6249 22.1593 36.4253C21.613 36.8488 21.1805 37.4197 20.6677 37.8861C20.3396 38.1809 20.306 38.4458 20.4514 38.86C20.9288 40.2238 20.9082 40.2313 22.3159 40.2313H23.4477V38.0316H25.6515C25.6515 39.2219 25.6981 40.4234 25.6291 41.6175C25.6011 42.11 25.1742 42.4402 24.6484 42.4458C23.1121 42.4645 21.5757 42.4981 20.045 42.4216C19.838 42.385 19.642 42.3016 19.4721 42.1778C19.3021 42.0539 19.1626 41.8929 19.0643 41.707C18.6063 40.6178 18.2323 39.4951 17.9456 38.3488C17.8542 37.9757 18.0556 37.4272 18.3185 37.1119C18.889 36.4054 19.5299 35.7591 20.2314 35.1828C21.1208 34.4589 21.475 33.6156 21.1338 32.4645C21.1019 32.4347 21.06 32.418 21.0164 32.4178C19.7765 32.6305 19.0885 32.013 18.5926 30.9458C18.1254 30.0099 17.6101 29.0989 17.0488 28.2163C16.8946 27.9846 16.8055 27.7157 16.7908 27.4377C16.776 27.1597 16.8361 26.8829 16.9649 26.6361C17.6174 25.2238 18.27 23.8115 18.8536 22.3693C19.1892 21.5391 19.6814 21.1137 20.5931 21.235C20.7906 21.2473 20.9886 21.2473 21.1861 21.235V16.7854H11.2372V14.5466H16.7244V12.3432H2.98875C3.32063 13.0223 3.61894 13.6921 3.98065 14.3227C4.06083 14.4607 4.37406 14.5204 4.58102 14.5223C5.99802 14.5391 7.41502 14.5316 8.88423 14.5316V16.7611H5.98124C5.14409 16.7611 4.30321 16.7499 3.46979 16.7611C3.2246 16.7786 2.98004 16.7194 2.76994 16.5917C2.55984 16.4641 2.39458 16.2742 2.29703 16.0484C1.59226 14.6361 0.872568 13.2294 0.18644 11.8078C-0.281544 10.8432 0.210683 10.0783 1.28089 10.0596C1.9316 10.0484 2.58603 10.0447 3.233 10.0372C3.25165 10.0372 3.26842 10.0111 3.36165 9.93835C3.36165 9.67902 3.36165 9.35999 3.36165 9.04283C3.37843 8.29656 3.70471 7.9085 4.42253 7.82641C7.67543 7.45328 10.9296 7.08014 14.1849 6.70701L24.5552 5.52044C28.0181 5.12492 31.4805 4.73188 34.9422 4.34133L45.4653 3.14171C47.7027 2.88611 49.94 2.61559 52.1774 2.39544C52.7367 2.34133 53.0873 2.17156 53.2476 1.61932C53.3497 1.33547 53.4693 1.0582 53.6056 0.789096C53.698 0.536502 53.8714 0.32167 54.0988 0.178203C54.3262 0.0347365 54.5946 -0.0292739 54.8622 -0.00381471C55.8635 0.020439 56.8628 -0.00381414 57.8641 0.00551422C58.7515 0.00551422 59.2344 0.4085 59.1394 1.26298C59.0051 2.47193 59.4843 3.2779 60.3401 4.08574C62.4041 6.0335 64.3729 8.08201 66.3773 10.0913C67.0969 10.8115 67.151 11.1119 66.711 11.9962C66.0622 13.3022 65.3928 14.6081 64.757 15.929C64.468 16.5242 64.0411 16.776 63.3773 16.7648C61.634 16.7387 59.8907 16.7648 58.071 16.7648V39.0615H55.8336V37.6865C55.7034 37.7764 55.5789 37.8742 55.4607 37.9794C54.1817 39.3625 52.9027 40.7443 51.6236 42.1249C51.4907 42.2471 51.4015 42.4097 51.3701 42.5876C51.3514 44.1361 51.3589 45.6846 51.3589 47.4085ZM51.8847 4.68462L5.72394 9.94022V10.0615H48.7579C48.8958 10.0812 49.0358 10.0812 49.1737 10.0615C49.3266 10.0111 49.5466 9.93462 49.5932 9.81148C50.3502 8.16223 51.0774 6.50924 51.8847 4.69208V4.68462ZM33.4804 39.8078C33.426 39.8327 33.3746 39.864 33.3275 39.901C31.2256 42.2966 29.1269 44.6946 27.0312 47.0951C26.9057 47.2277 26.826 47.397 26.8037 47.5783C26.7888 49.5727 26.7944 51.5671 26.7944 53.582H40.1944C40.1944 51.9141 40.2056 50.2891 40.1814 48.666C40.1452 48.4414 40.0448 48.2321 39.8924 48.0633C39.1745 47.1175 38.4437 46.1846 37.7146 45.2481L33.4804 39.8078ZM18.9822 60.3898H21.2494V64.7704H25.6739C25.6739 62.7574 25.6832 60.7854 25.6589 58.8133C25.615 58.595 25.4987 58.3978 25.3289 58.2536C24.1543 57.0596 22.9592 55.8861 21.7864 54.6921C21.2383 54.1324 20.7237 53.541 20.1587 52.9272C18.2588 54.8339 16.482 56.6044 14.7275 58.3973C14.5815 58.5949 14.5072 58.8364 14.5168 59.082C14.4944 60.1063 14.5075 61.1342 14.5075 62.1529V64.7648H18.9822V60.3898ZM27.9429 14.5354H59.9411C60.7782 14.5354 61.6191 14.5484 62.4525 14.5242C62.6539 14.5242 62.9522 14.4421 63.0343 14.2984C63.3904 13.6809 63.6812 13.0279 64.0224 12.3301H27.9429V14.5354ZM26.621 55.8992C26.8522 56.3059 26.9585 56.6678 27.1971 56.8805C27.4509 57.0989 27.6491 57.3745 27.7755 57.6846C27.902 57.9947 27.9529 58.3304 27.9243 58.6641C27.8777 60.3152 27.9094 61.9682 27.9094 63.6193V64.7518H30.1467C30.1467 63.3469 30.1467 61.9981 30.1467 60.6473C30.1467 59.5783 30.4973 59.2238 31.5563 59.2219H40.1571V55.8954L26.621 55.8992ZM39.814 16.7984C40.1142 17.4141 40.4088 17.9607 40.6493 18.5298C40.8115 18.9141 41.0502 19.0223 41.4511 19.013C42.5082 18.9869 43.5672 19.0037 44.6207 19.0037V21.2425H42.0309C42.3404 21.8749 42.6238 22.4029 42.8587 22.9514C42.9134 23.1254 43.0278 23.2744 43.1817 23.372C43.3356 23.4697 43.5191 23.5097 43.6996 23.485C45.139 23.4533 46.5802 23.4719 48.0215 23.4719H49.0936V16.7947L39.814 16.7984ZM59.4209 62.6137H47.7623L47.2403 64.7779H59.9411L59.4209 62.6137ZM22.2991 30.1063C23.4327 30.457 24.0182 29.9439 24.654 28.9682C25.4781 27.7014 25.4632 26.651 24.7155 25.4384C24.3538 24.8507 24.2867 23.9346 23.7945 23.6156C23.3022 23.2966 22.4129 23.5391 21.71 23.4495C21.0071 23.36 20.6584 23.6361 20.4608 24.2891C20.3165 24.7798 20.1051 25.2482 19.8324 25.6809C19.0997 26.8003 19.2731 27.7667 19.9741 28.8936C20.5633 29.8488 21.0984 30.4943 22.2991 30.1063ZM32.427 61.4775V64.7723H40.1553V61.4775H32.427ZM56.9094 2.29843C55.4962 2.12492 55.498 2.12678 54.9685 3.31708L52.2874 9.36186C52.1979 9.56708 52.1196 9.77604 52.0189 10.0279H56.9094V2.29843ZM55.8224 45.9309C54.301 47.5727 52.899 49.0801 51.5025 50.5951C51.4231 50.6777 51.3744 50.785 51.3645 50.8992C51.3645 52.6566 51.3645 54.4141 51.3645 56.2369C51.4504 56.197 51.5322 56.1489 51.6087 56.0932C52.94 54.6641 54.2693 53.2337 55.5969 51.8022C55.7137 51.6926 55.7917 51.5478 55.8187 51.3898C55.828 49.6268 55.8224 47.8693 55.8224 45.9309ZM51.3477 39.0764C52.8617 37.4477 54.2451 35.9757 55.6024 34.4813C55.7453 34.2795 55.8174 34.0362 55.8075 33.7891C55.828 32.6044 55.8075 31.4178 55.8075 30.2331V28.6492C54.2917 30.2816 52.9139 31.7592 51.5491 33.2481C51.4282 33.3817 51.3571 33.5531 51.3477 33.7331C51.3514 35.4458 51.357 37.1604 51.357 39.0764H51.3477ZM51.3477 29.9477L51.5528 30.0801C51.6634 29.8848 51.7881 29.6978 51.9257 29.5204C52.9474 28.401 53.9375 27.2574 55.0189 26.2033C55.3078 25.944 55.5315 25.6201 55.6718 25.258C55.812 24.8959 55.8649 24.5057 55.8262 24.1193C55.7609 22.8842 55.8094 21.6417 55.8094 20.2275C54.2861 21.8712 52.8952 23.3656 51.5118 24.8675C51.4181 24.967 51.3604 25.0951 51.3477 25.2313C51.3552 26.8078 51.3589 28.3749 51.3589 29.9477H51.3477ZM18.9953 14.4794H25.6366V12.3301H18.9953V14.4794ZM55.787 54.8917C54.2954 56.4962 52.9176 57.9701 51.564 59.4701C51.3962 59.6566 51.3775 59.985 51.2787 60.2966H55.787V54.8917ZM51.4036 16.7872V21.6734L55.9287 16.7872H51.4036ZM62.777 10.0335L59.2065 6.45328V10.0335H62.777Z" fill="white"/>
<path d="M6.75684 41.3694H8.89353V43.5373H6.76429L6.75684 41.3694Z" fill="white"/>
<path d="M12.2497 44.748V46.8861H10.0831V44.748H12.2497Z" fill="white"/>
<path d="M8.89357 50.2482H6.74756V48.0896H8.89357V50.2482Z" fill="white"/>
<path d="M12.2496 51.4348V53.5729H10.0999V51.4348H12.2496Z" fill="white"/>
<path d="M6.73633 54.7798H8.88048V56.9384H6.73633V54.7798Z" fill="white"/>
<path d="M6.72705 62.513V60.3787H8.89357V62.513H6.72705Z" fill="white"/>
<path d="M32.4307 44.7183H34.5711V46.8619H32.4307V44.7183Z" fill="white"/>
<path d="M31.2076 51.3656H29.0709V49.1958H31.2076V51.3656Z" fill="white"/>
<path d="M35.7626 51.3544V49.2163H37.9123V51.3544H35.7626Z" fill="white"/>
<path d="M23.4123 25.7407V27.8844H21.2588V25.7407H23.4123Z" fill="white"/>
</g>
<defs>
<clipPath id="clip0_263_309">
<rect width="67" height="67" fill="white"/>
</clipPath>
</defs>
</svg>
