<svg width="63" height="67" viewBox="0 0 63 67" fill="none" xmlns="http://www.w3.org/2000/svg">
<g clip-path="url(#clip0_263_254)">
<path d="M48.9081 57.2905H42.3483V65.5717C42.3483 66.6393 42 67.0145 40.897 67.0145C38.9233 67.0145 36.9641 67.0145 34.9903 67.0145C34.047 67.0145 33.6697 66.6394 33.6697 65.716V55.1409H29.3159C28.8224 55.1409 28.358 54.9533 28.2709 54.4628C28.2703 54.0604 28.3544 53.6624 28.5177 53.2942C28.5177 53.1499 28.7644 53.0345 28.895 52.9046L43.9738 37.9292C44.1401 37.7846 44.271 37.6041 44.3565 37.4016C44.442 37.1991 44.4799 36.9799 44.4672 36.7606C44.4672 34.9572 44.4672 33.1682 44.4672 31.4225C43.2095 31.1805 41.9723 30.8428 40.7665 30.4126C40.2976 30.1356 39.7425 30.0399 39.2072 30.1437C38.6719 30.2475 38.1938 30.5435 37.8639 30.9753C36.3557 32.4429 34.5093 33.5216 32.4858 34.1176C30.4622 34.7135 28.3227 34.8086 26.2537 34.3945C26.0607 34.3394 25.8559 34.34 25.6631 34.3962C25.4704 34.4524 25.2977 34.5619 25.1652 34.7119C23.3076 36.5875 21.4064 38.4342 19.5632 40.3097C19.3387 40.5899 19.047 40.8094 18.7147 40.9481C18.3825 41.0867 18.0205 41.1401 17.6621 41.1032C17.1977 41.1032 16.7188 41.1032 16.1093 41.1032C16.2423 41.8336 16.1927 42.5853 15.965 43.2922C15.7372 43.9991 15.3382 44.6396 14.8031 45.1572C14.2878 45.7092 13.6365 46.118 12.9137 46.3432C12.1909 46.5684 11.4214 46.6022 10.6814 46.4413C10.718 47.1092 10.718 47.7787 10.6814 48.4466C10.5849 48.8453 10.4335 49.2289 10.2315 49.5864C9.66303 50.4663 8.84128 51.1556 7.8732 51.5648C6.90512 51.9739 5.83557 52.0838 4.80376 51.8803C3.60514 51.8081 2.40324 51.8081 1.20462 51.8803C0.304825 51.8803 -0.0725146 51.4908 -0.0725146 50.6107C-0.0725146 48.2879 -0.0725146 45.9652 -0.0725146 43.6568C-0.0872004 43.3875 -0.0414103 43.1183 0.0615055 42.8688C0.164421 42.6193 0.321845 42.3956 0.522471 42.2141C3.42503 39.3287 6.32758 36.4432 9.23014 33.5578C9.40784 33.4201 9.54579 33.2381 9.6299 33.0304C9.71401 32.8226 9.74132 32.5964 9.70909 32.3747C9.64048 31.8974 9.70116 31.4104 9.88483 30.9641C10.0685 30.5178 10.3685 30.1282 10.7541 29.8355C12.2924 28.3928 13.6566 26.9501 15.2385 25.4208C15.3984 25.2926 15.5148 25.1187 15.5719 24.9226C15.629 24.7264 15.6241 24.5176 15.5578 24.3243C15.1171 22.585 15.0316 20.7756 15.3065 19.003C15.5813 17.2303 16.2109 15.5304 17.1581 14.0038C18.1052 12.4771 19.3505 11.1548 20.8205 10.1149C22.2906 9.07501 23.9555 8.3387 25.7167 7.94945C26.8275 7.74408 27.9539 7.63306 29.0837 7.61761C29.2355 7.59247 29.3909 7.6005 29.5392 7.64112C29.6875 7.68175 29.8252 7.754 29.9426 7.85286C30.06 7.95171 30.1543 8.07477 30.219 8.21354C30.2837 8.3523 30.3172 8.50343 30.3173 8.65637C30.3173 9.3056 29.8383 9.70955 29.0256 9.72397C26.3173 9.6416 23.6681 10.5215 21.5535 12.2059C19.439 13.8902 17.9975 16.2685 17.4879 18.9141C17.092 20.7972 17.2174 22.7518 17.8507 24.5696C17.9729 24.8549 17.9994 25.1718 17.9262 25.4732C17.853 25.7747 17.6841 26.0447 17.4444 26.2432C15.6739 27.96 13.9178 29.6912 12.2053 31.4514C11.9688 31.7335 11.8494 32.0947 11.8715 32.4613C11.9213 32.9387 11.8505 33.421 11.6655 33.8643C11.4805 34.3077 11.1872 34.6982 10.8121 35.0005C8.02562 37.6984 5.29718 40.454 2.52524 43.1807C2.37008 43.3233 2.24813 43.498 2.16791 43.6924C2.0877 43.8867 2.05114 44.0961 2.06082 44.306C2.06082 46.0806 2.06082 47.8551 2.06082 49.7162H4.86187C5.11258 49.6874 5.36576 49.6874 5.61647 49.7162C6.95165 50.0336 7.70631 49.1824 8.51903 48.2735C8.64565 48.0921 8.70701 47.8735 8.69318 47.6531C8.69318 46.9174 8.69318 46.2104 8.69318 45.4313C8.67501 45.2729 8.69283 45.1124 8.74526 44.9616C8.7977 44.8108 8.88344 44.6737 8.9962 44.5602C9.10897 44.4467 9.24585 44.3598 9.39685 44.3058C9.54784 44.2519 9.70907 44.2322 9.86871 44.2483C10.2492 44.1981 10.6348 44.1981 11.0153 44.2483C11.5897 44.3349 12.177 44.2428 12.6967 43.9845C13.2163 43.7262 13.6429 43.3144 13.9178 42.8056C14.0359 42.6256 14.0966 42.4145 14.092 42.1997C14.092 41.4783 14.092 40.7569 14.092 40.0356C14.092 39.3142 14.4838 38.7948 15.3255 38.7804C16.1725 38.9329 17.0456 38.8398 17.8408 38.5124C18.636 38.1849 19.3196 37.6369 19.81 36.9337C21.2613 35.2746 22.9012 33.8174 24.4251 32.2593C24.6076 32.0686 24.8424 31.9354 25.1005 31.8764C25.3585 31.8174 25.6284 31.8352 25.8764 31.9275C27.868 32.4701 29.9726 32.4483 31.9524 31.8645C33.9322 31.2807 35.7083 30.1581 37.0802 28.6236C38.1651 27.4637 38.9936 26.0908 39.5122 24.5932C40.0308 23.0956 40.2282 21.5067 40.0915 19.9287C39.9548 18.3507 39.487 16.8186 38.7184 15.4313C37.9498 14.0439 36.8974 12.832 35.6289 11.8737L35.2371 11.5995C35.1116 11.5232 35.0029 11.4224 34.9177 11.3032C34.8325 11.184 34.7724 11.0488 34.7412 10.9058C34.71 10.7629 34.7083 10.6152 34.7361 10.4715C34.764 10.3279 34.8208 10.1914 34.9033 10.0703C34.9845 9.9463 35.0918 9.8413 35.2178 9.7625C35.3438 9.6837 35.4854 9.63292 35.633 9.61373C35.7805 9.59453 35.9305 9.60735 36.0726 9.65128C36.2147 9.69522 36.3456 9.76925 36.4561 9.86826C37.3028 10.5085 38.0986 11.2127 38.8363 11.9746C40.6882 14.0193 41.8615 16.5816 42.1965 19.3128C42.5315 22.044 42.0119 24.8115 40.7084 27.2386C40.6213 27.3973 40.5488 27.556 40.3746 27.9023L44.4672 29.0709C44.5543 28.0754 44.293 26.9068 45.5992 26.9356C46.9053 26.9645 46.557 28.1476 46.6876 29.1286C47.8341 28.9122 48.9807 28.7824 50.0546 28.465C52.9936 27.5795 55.5452 25.7321 57.2946 23.2229C59.0441 20.7138 59.8886 17.6903 59.6911 14.6437C59.4846 11.5885 58.243 8.69306 56.1689 6.42937C54.0947 4.16569 51.3102 2.66734 48.2696 2.17857C46.2454 1.88076 44.1798 2.03939 42.2256 2.6428C40.2715 3.24621 38.4789 4.2789 36.9807 5.66438C35.4825 7.04986 34.317 8.75265 33.5705 10.6466C32.824 12.5406 32.5157 14.5773 32.6683 16.6058C32.6683 17.0675 32.7554 17.5436 32.8279 18.0485C32.9586 18.8276 32.6393 19.3902 32.0007 19.4912C31.3621 19.5922 30.8687 19.2027 30.7526 18.4525C30.2426 15.8042 30.4569 13.0685 31.3734 10.5307C32.2898 7.99295 33.8748 5.74629 35.9628 4.02525C38.0317 2.11712 40.6035 0.832796 43.3785 0.321934C46.1535 -0.188928 49.0175 0.0947128 51.6365 1.13981C54.3317 2.04097 56.7155 3.68131 58.513 5.87158C60.3105 8.06184 61.4485 10.7127 61.7955 13.5183C62.1049 15.5927 61.9907 17.7077 61.4598 19.7372C60.9288 21.7667 59.9919 23.669 58.7051 25.3306C57.4183 26.9923 55.808 28.3791 53.9702 29.4084C52.1323 30.4377 50.1047 31.0884 48.0083 31.3215L46.7603 31.4658V33.0384C46.7603 34.3657 46.7603 35.693 46.7603 37.0203C46.7398 37.2392 46.7962 37.4584 46.9199 37.6407C48.2696 39.0112 49.6337 40.353 51.1431 41.8678C51.1431 41.2042 51.1431 40.7281 51.1431 40.2375C51.1211 40.0739 51.1377 39.9074 51.1914 39.7512C51.2452 39.5949 51.3347 39.4532 51.4528 39.3372C51.571 39.2211 51.7146 39.1339 51.8723 39.0824C52.0301 39.0308 52.1978 39.0163 52.3622 39.0401C53.6974 39.0401 55.0325 39.0401 56.3677 39.0401C56.5379 39.0128 56.712 39.026 56.876 39.0787C57.04 39.1314 57.1891 39.222 57.3109 39.3432C57.4328 39.4643 57.524 39.6125 57.577 39.7755C57.63 39.9385 57.6433 40.1117 57.6158 40.2808C57.6158 42.7623 57.6158 45.2294 57.6158 47.7109C57.6447 48.0748 57.7925 48.4193 58.0366 48.6919C59.4879 50.1346 60.9392 51.6639 62.4776 53.1355C62.8694 53.525 63.1887 53.9146 62.9565 54.5061C62.7243 55.0976 62.2164 55.213 61.6213 55.1986H57.6013V65.4131C57.6013 66.6538 57.2965 66.9423 56.0339 66.9423H50.3885C49.2855 66.9423 48.9372 66.6105 48.9372 65.4996L48.9081 57.2905ZM45.8169 39.4441L32.2475 52.9335H34.4099C35.4838 52.9335 35.8612 53.2798 35.8612 54.3762V64.7927H40.215V56.6124C40.215 55.4727 40.5488 55.1697 41.6663 55.1697H49.6047C50.6206 55.1697 50.9834 55.5304 50.9834 56.6124V64.9081H55.3373V54.4916C55.3373 53.3952 55.6856 53.0489 56.7886 53.0489H59.2703C57.9786 51.7793 56.8321 50.6684 55.7292 49.5143C55.497 49.2608 55.3633 48.9335 55.3518 48.5909C55.3518 47.0472 55.3518 45.4891 55.3518 43.9453V41.1897H53.1458C53.1458 42.2574 53.1458 43.2673 53.1458 44.2772C53.1612 44.5041 53.1052 44.7301 52.9856 44.924C52.866 45.1179 52.6887 45.27 52.4783 45.3592C52.2674 45.4481 52.0331 45.4666 51.8107 45.412C51.5883 45.3573 51.3897 45.2326 51.2447 45.0563L50.7657 44.5801L45.8169 39.4441Z" fill="white"/>
<path d="M4.57161 47.5376C3.55572 47.5376 3.01875 46.7153 3.39608 46.0228C3.52686 45.8085 3.68811 45.6141 3.87494 45.4457L19.4762 29.9364C19.6299 29.7694 19.8057 29.6238 19.9987 29.5036C20.188 29.378 20.4161 29.3236 20.6421 29.35C20.8682 29.3765 21.0774 29.4821 21.2323 29.6479C21.4167 29.8048 21.5375 30.023 21.5722 30.2619C21.6069 30.5007 21.5532 30.7439 21.4209 30.9463C21.2763 31.1458 21.1108 31.3295 20.9275 31.4946C15.7609 36.6307 10.5895 41.7668 5.41329 46.9029C5.15074 47.1371 4.86927 47.3494 4.57161 47.5376Z" fill="white"/>
<path d="M35.8465 18.337C35.8513 19.1673 35.6158 19.9814 35.1681 20.6824C34.7203 21.3833 34.0793 21.9413 33.3213 22.2901C32.5772 22.6687 31.734 22.8109 30.9059 22.6973C30.0779 22.5838 29.3049 22.22 28.6917 21.6553C28.065 21.1446 27.6029 20.4622 27.3629 19.6927C27.123 18.9232 27.1158 18.1007 27.342 17.3271C27.3576 17.1752 27.4046 17.0281 27.4799 16.895C27.5553 16.7619 27.6575 16.6457 27.7801 16.5536C27.9026 16.4616 28.0429 16.3956 28.1923 16.3599C28.3417 16.3242 28.4968 16.3195 28.6481 16.346C29.2867 16.4903 29.577 17.053 29.4028 17.7888C29.2702 18.2323 29.2831 18.7064 29.4397 19.1422C29.5962 19.5779 29.8883 19.9529 30.2736 20.2126C30.6355 20.4699 31.0695 20.6082 31.5145 20.6082C31.9595 20.6082 32.3933 20.4699 32.7553 20.2126C33.1267 19.9517 33.4073 19.5823 33.5582 19.1558C33.709 18.7293 33.7226 18.2666 33.597 17.832C33.4229 17.0386 33.6841 16.4903 34.3227 16.3893C34.9612 16.2883 35.4837 16.6202 35.6724 17.3848C35.7594 17.6734 35.803 18.0485 35.8465 18.337Z" fill="white"/>
</g>
<defs>
<clipPath id="clip0_263_254">
<rect width="63" height="67" fill="white"/>
</clipPath>
</defs>
</svg>
