<svg width="49" height="48" viewBox="0 0 49 48" fill="none" xmlns="http://www.w3.org/2000/svg">
<g clip-path="url(#clip0_903_1342)">
<path d="M43.7715 37.2985C45.0609 37.5162 45.0609 37.5162 45.0609 38.848V40.8021C45.866 40.8021 46.6106 40.8021 47.3607 40.8021C48.155 40.8021 48.367 41.0198 48.367 41.8181C48.367 43.5115 48.367 45.2048 48.367 46.8982C48.367 47.6199 48.1241 47.8631 47.4036 47.8631H1.55759C0.811582 47.8631 0.579462 47.6252 0.57812 46.8632C0.57812 45.1699 0.57812 43.477 0.57812 41.7845C0.57812 41.0279 0.802189 40.8061 1.56967 40.8021C2.33714 40.7981 3.06839 40.8021 3.88552 40.8021V38.4637C3.88552 37.535 4.01969 37.3993 4.94683 37.3509C5.01258 37.3509 5.08101 37.3334 5.16956 37.32V22.8526C5.13334 22.8311 5.10784 22.8028 5.07967 22.8002C3.92845 22.7061 3.88417 22.6658 3.88417 21.5073V19.3328C3.09925 19.3328 2.3519 19.3328 1.60321 19.3328C0.77938 19.3328 0.578119 19.1218 0.576777 18.2872C0.576777 17.3653 0.576777 16.442 0.576777 15.5201C0.576777 14.8616 0.83171 14.6049 1.47977 14.5914C1.76154 14.5914 2.04464 14.5914 2.36666 14.5914V12.7731C2.00707 12.7731 1.65956 12.7731 1.31339 12.7731C0.845125 12.7637 0.591535 12.4962 0.583485 12.0501C0.563358 11.0448 0.572751 10.0342 0.583485 9.03293C0.583485 8.5639 0.910873 8.38516 1.29998 8.24673C4.57294 7.08199 7.84365 5.91232 11.1121 4.73773C15.4057 3.20296 19.6993 1.66281 23.9929 0.146857C24.3019 0.0427436 24.6361 0.0399196 24.9469 0.138794C32.5277 2.82666 40.105 5.52975 47.6787 8.24807C48.1791 8.42682 48.3884 8.73458 48.3723 9.26543C48.3482 10.1202 48.3723 10.9749 48.3656 11.831C48.3656 12.5379 48.1362 12.7717 47.4452 12.7717C47.1648 12.7717 46.8843 12.7717 46.569 12.7717V14.5861C46.8723 14.5861 47.1836 14.5793 47.4935 14.5861C48.0879 14.6008 48.3589 14.8616 48.3629 15.4462C48.3728 16.4693 48.3728 17.4921 48.3629 18.5144C48.3629 19.0519 48.0946 19.3127 47.5579 19.3207C46.7421 19.3342 45.9263 19.3207 45.0596 19.3207C45.0596 20.1459 45.0596 20.9133 45.0596 21.6807C45.0596 22.5824 44.9254 22.7262 44.0305 22.7719C43.95 22.7719 43.8694 22.7921 43.7702 22.8055L43.7715 37.2985ZM12.4472 37.316C13.7326 37.4503 13.7326 37.4503 13.7326 38.7284V40.7712H35.2273V38.6397C35.2273 37.4759 35.2756 37.4302 36.4134 37.3375C36.4429 37.3375 36.4697 37.3092 36.514 37.2864V22.8176C36.4268 22.8042 36.3624 22.7867 36.298 22.784C35.3386 22.7316 35.2246 22.6133 35.2246 21.6309V19.3718H13.7648C13.7493 19.4154 13.7381 19.4604 13.7312 19.5062C13.7312 20.1271 13.7312 20.7475 13.7312 21.3675C13.7312 22.6644 13.7312 22.6644 12.4458 22.819L12.4472 37.316ZM1.99903 11.3243H46.9474C46.9474 10.8795 46.9165 10.4615 46.9555 10.0503C46.9944 9.63904 46.8213 9.45089 46.4268 9.30978C39.2395 6.75094 32.0541 4.18627 24.8704 1.61578C24.5904 1.53575 24.2924 1.54562 24.0184 1.644C20.2105 2.98793 16.4067 4.34395 12.6068 5.71208C9.21223 6.92609 5.81897 8.14235 2.42704 9.36085C2.25932 9.42133 2.03257 9.60679 2.02452 9.75193C1.96817 10.268 1.99903 10.7868 1.99903 11.3243ZM46.93 42.263H1.99768V46.4009H46.93V42.263ZM46.93 17.8881V16.0644H2.04196V17.8881H46.93ZM45.0609 12.8027H3.90027V14.5498H45.0609V12.8027ZM10.9713 22.8163H6.65085V37.3079H10.9713V22.8163ZM42.3023 37.3307V22.8217H37.9913V37.324L42.3023 37.3307ZM12.2956 19.3651H5.3185V21.303H12.2956V19.3651ZM36.6401 21.2963H43.6239V19.3718H36.6401V21.2963ZM12.2821 40.7699V38.8265H5.31313V40.7699H12.2821ZM36.6388 40.7564H43.6253V38.8386H36.6388V40.7564Z" fill="white"/>
<path d="M33.5757 30.0882C33.5757 35.0876 29.4995 39.1638 24.4666 39.1893C19.5022 39.2148 15.332 35.0379 15.3669 30.0748C15.4031 25.0216 19.4726 20.936 24.4478 20.9428C25.6469 20.9422 26.8343 21.1784 27.9422 21.6379C29.05 22.0973 30.0566 22.771 30.9043 23.6204C31.7521 24.4697 32.4244 25.4782 32.8827 26.588C33.3411 27.6978 33.5766 28.8872 33.5757 30.0882ZM24.4519 37.4086C25.4171 37.4168 26.3744 37.2328 27.2682 36.8673C28.1619 36.5018 28.9742 35.9621 29.6579 35.2796C30.3416 34.597 30.8831 33.7851 31.2509 32.8912C31.6188 31.9972 31.8056 31.039 31.8006 30.0721C31.807 29.1051 31.6215 28.1464 31.2549 27.2519C30.8883 26.3573 30.3479 25.5446 29.665 24.861C28.9822 24.1774 28.1705 23.6365 27.2772 23.2698C26.3838 22.9031 25.4267 22.7178 24.4612 22.7248C22.5234 22.7223 20.6639 23.4908 19.2916 24.8613C17.9193 26.2318 17.1466 28.0921 17.1434 30.0331C17.1434 34.1415 20.3877 37.4153 24.4532 37.4086H24.4519Z" fill="white"/>
<path d="M25.4783 31.2144H23.5274V32.1297H26.7328V33.1954H23.5274V34.7087H21.9589V33.1994H20.868V32.1337H21.9589V31.2144H20.868V29.8114H21.9589V25.1385H25.4783C25.8859 25.1305 26.2908 25.2057 26.6685 25.3596C27.0461 25.5135 27.3885 25.7428 27.6747 26.0336C27.9661 26.3156 28.1964 26.6547 28.3513 27.0297C28.5062 27.4047 28.5823 27.8077 28.575 28.2134C28.5829 28.6131 28.5068 29.01 28.3517 29.3784C28.1966 29.7467 27.9659 30.0783 27.6747 30.3516C27.3841 30.6342 27.0402 30.856 26.6631 31.0042C26.286 31.1523 25.8832 31.2238 25.4783 31.2144ZM23.5274 26.6101V29.8073H25.4783C25.6815 29.8109 25.8832 29.7713 26.0701 29.6911C26.2569 29.611 26.4247 29.4921 26.5624 29.3423C26.7076 29.1923 26.8216 29.0149 26.8978 28.8205C26.974 28.626 27.011 28.4183 27.0065 28.2094C27.011 28.0003 26.9741 27.7924 26.8979 27.5977C26.8216 27.403 26.7076 27.2254 26.5624 27.0751C26.4245 26.9256 26.2567 26.8069 26.0698 26.7268C25.883 26.6467 25.6815 26.6069 25.4783 26.6101H23.5274Z" fill="white"/>
</g>
<defs>
<clipPath id="clip0_903_1342">
<rect width="47.8009" height="47.8009" fill="white" transform="translate(0.574219 0.0648193)"/>
</clipPath>
</defs>
</svg>
