<svg width="51" height="51" viewBox="0 0 51 51" fill="none" xmlns="http://www.w3.org/2000/svg">
<path d="M4.42857 45.6803V35.6267C4.27302 35.7269 4.11084 35.8164 3.94316 35.8946C3.54667 36.0484 3.21086 35.9322 2.95978 35.6015C2.16576 34.5551 1.37488 33.5023 0.597598 32.4412C0.24191 31.9556 0.33397 31.5474 0.861225 31.1435C3.16273 29.3791 5.46634 27.6165 7.77203 25.8556C8.96358 24.9441 10.1499 24.0242 11.354 23.1284C11.4847 23.0434 11.5902 22.9248 11.6596 22.7851C11.7289 22.6455 11.7596 22.4897 11.7484 22.3342C11.7373 15.3813 11.7345 8.42876 11.74 1.47659C11.74 0.52742 11.9493 0.314979 12.8908 0.314979C22.9282 0.314979 32.9659 0.311843 43.004 0.305564C43.2194 0.298715 43.4338 0.338561 43.6325 0.422374C43.8311 0.506188 44.0092 0.631986 44.1547 0.791137C46.1487 2.80528 48.1527 4.81 50.1669 6.80531C50.3139 6.94112 50.4298 7.1071 50.5067 7.29187C50.5836 7.47664 50.6197 7.67584 50.6125 7.87587C50.6028 21.73 50.6003 35.5848 50.6052 49.4403C50.6052 50.3058 50.3688 50.537 49.49 50.537H1.51611C0.636305 50.537 0.403016 50.3068 0.403016 49.4393C0.403016 48.4974 0.403016 47.5493 0.403016 46.6043C0.403016 45.967 0.690705 45.6855 1.33303 45.6813C2.3457 45.6761 3.35732 45.6803 4.42857 45.6803ZM13.4003 1.95483V21.5556L14.1681 20.9664C14.9004 20.4107 15.0626 20.4086 15.8053 20.9769C18.2701 22.8605 20.7341 24.746 23.1974 26.6331C25.1662 28.1401 27.135 29.647 29.1039 31.154C29.6092 31.5412 29.7138 31.9545 29.379 32.4098C28.5958 33.4883 27.7976 34.5575 26.9844 35.6172C26.6706 36.0243 26.2615 36.0693 25.82 35.8025C25.7311 35.7481 25.6391 35.6978 25.5313 35.6392V45.6855C26.5503 45.6855 27.542 45.6855 28.5327 45.6855C29.2964 45.6855 29.5506 45.9461 29.5527 46.7236C29.5527 47.4436 29.5527 48.1636 29.5527 48.8909H48.9534V8.43888H47.3695V9.00921C47.3695 11.172 47.3695 13.3323 47.3695 15.4901C47.3695 16.2551 47.108 16.5104 46.3328 16.5125C45.7333 16.5125 45.1339 16.5125 44.4602 16.5125C45.6392 18.7049 46.043 20.9465 45.5576 23.321C45.068 25.7164 43.8534 27.6723 41.9076 29.1416C40.2604 30.3979 38.254 31.0929 36.1829 31.1248C34.1118 31.1566 32.0851 30.5235 30.4001 29.3184C28.7002 28.1275 27.4381 26.4113 26.8076 24.4334C25.9236 21.7125 26.2312 19.088 27.61 16.5125H16.0596C15.2226 16.5125 14.9799 16.2718 14.9799 15.4326C14.9799 11.8375 14.9799 8.24458 14.9799 4.65373C14.9799 3.78828 15.2132 3.56015 16.0962 3.56015H42.4882V1.96006L13.4003 1.95483ZM16.6182 14.8706C16.7228 14.8821 16.7866 14.8947 16.8515 14.8947C20.7306 14.8947 24.6107 14.8947 28.4898 14.8853C28.6984 14.8678 28.8939 14.7766 29.0411 14.6278C32.9893 10.6417 39.0558 10.6386 43.0176 14.6278C43.1222 14.7325 43.2488 14.8769 43.3691 14.88C44.1547 14.903 44.9383 14.8915 45.7124 14.8915V8.40853C44.9989 8.40853 44.3242 8.40853 43.6505 8.40853C42.7372 8.40853 42.5144 8.18772 42.5144 7.28355C42.5144 6.58345 42.5144 5.88335 42.5144 5.19057H16.6182V14.8706ZM27.9343 21.3421C27.9343 25.8148 31.5853 29.4817 36.0241 29.4733C38.1734 29.4672 40.2328 28.6099 41.7518 27.0888C43.2708 25.5677 44.1257 23.5068 44.1296 21.3567C44.1296 16.9165 40.4597 13.2695 35.9906 13.2737C31.6031 13.2778 27.9322 16.9542 27.9343 21.3421ZM9.3109 45.6635C9.3109 43.2828 9.3109 40.9543 9.3109 38.629C9.3109 37.8285 9.56093 37.5826 10.3717 37.5826H19.583C20.3916 37.5826 20.6437 37.8316 20.6437 38.629C20.6437 40.7918 20.6437 42.9521 20.6437 45.11V45.6458H23.8533C23.8662 45.6019 23.8756 45.5571 23.8815 45.5118C23.8815 41.8669 23.8889 38.222 23.8753 34.577C23.8677 34.4829 23.8417 34.3911 23.7986 34.3071C23.7555 34.223 23.6962 34.1483 23.6242 34.0873C20.8613 31.898 18.0849 29.7266 15.321 27.5394C15.0594 27.3301 14.89 27.3301 14.6316 27.5394C11.8949 29.7021 9.15084 31.8593 6.39949 34.0109C6.28532 34.0903 6.19395 34.1983 6.13448 34.3241C6.07501 34.4499 6.04952 34.589 6.06054 34.7277C6.06996 38.2042 6.06577 41.6806 6.06787 45.157C6.06787 45.3203 6.08251 45.4825 6.09088 45.6625L9.3109 45.6635ZM3.79251 33.9795C3.92851 33.8748 4.00802 33.8162 4.08648 33.7545L14.1399 25.8441C14.8722 25.2675 15.0532 25.2622 15.7698 25.8242C18.2352 27.7595 20.6999 29.6962 23.1639 31.6343C24.1535 32.4118 25.1463 33.1862 26.1621 33.9816C26.6528 33.3244 27.1141 32.7091 27.5818 32.0843C27.4771 31.9859 27.4029 31.9127 27.3234 31.852C23.3097 28.7809 19.2963 25.7063 15.2833 22.6282C15.0197 22.4263 14.8649 22.4869 14.6316 22.6649C11.7603 24.8729 8.88443 27.0762 6.00405 29.2745L2.35825 32.0644L3.79251 33.9795ZM10.9502 45.6447H18.9888V39.2224H10.9502V45.6447ZM27.9144 47.3379H2.0601V48.8993H27.9144V47.3379ZM44.1568 6.74984H47.6279L44.1568 3.26504V6.74984Z" fill="white"/>
</svg>
