<svg width="54" height="49" viewBox="0 0 54 49" fill="none" xmlns="http://www.w3.org/2000/svg">
<g clip-path="url(#clip0_903_1287)">
<path d="M0.574122 38.0281C0.690786 37.4511 0.79345 36.8683 0.94628 36.2971C1.75593 33.2805 3.68205 31.1145 6.31281 29.5058C8.2961 28.2918 10.4637 27.5232 12.7457 27.0697C13.4188 26.9358 13.6906 27.0985 13.9625 27.7621L17.7552 37.0783C17.8357 37.278 17.9255 37.4741 18.0772 37.825C18.2592 36.9595 18.4132 36.2428 18.5602 35.5262C18.7002 34.8476 18.8355 34.1668 18.972 33.4871C19.0152 33.269 19.049 33.0866 18.7713 32.9447C18.5858 32.8288 18.4487 32.6505 18.3852 32.4427C18.0997 31.5195 17.8337 30.5929 17.5872 29.6627C17.4274 29.0603 17.7645 28.5907 18.3945 28.5837C20.2114 28.563 22.0278 28.563 23.8439 28.5837C24.4354 28.5907 24.7772 29.0073 24.6372 29.5785C24.3957 30.5802 24.0924 31.5668 23.8066 32.5593C23.7797 32.6516 23.7202 32.7797 23.6444 32.8085C23.0482 33.0393 23.2536 33.4802 23.3364 33.8898C23.5651 35.0177 23.7945 36.1447 24.0247 37.271C24.0527 37.4118 24.097 37.5492 24.1659 37.803C24.8659 36.072 25.5285 34.4657 26.1842 32.8524C26.8841 31.1422 27.5678 29.4296 28.2643 27.7205C28.5046 27.1309 28.7799 26.937 29.3621 27.0524C32.7605 27.7275 35.8824 28.9865 38.4 31.4318C40.5886 33.5586 41.6351 36.1632 41.6374 39.1936C41.6374 41.8563 41.6374 44.5182 41.6374 47.1793C41.6374 48.0482 41.3948 48.2825 40.5 48.2825H10.0589C7.29862 48.2825 4.53952 48.2756 1.77576 48.2894C1.2846 48.2894 0.865784 48.2063 0.569458 47.7886L0.574122 38.0281ZM34.1978 46.6392H40.0193C40.031 46.533 40.045 46.4673 40.045 46.4003C40.045 43.9769 40.0718 41.5535 40.0392 39.1301C40.003 36.3698 38.9892 34.0168 36.8951 32.1565C34.9631 30.4382 32.6555 29.4677 30.1694 28.8376C29.7167 28.7222 29.5452 28.8192 29.3796 29.2311C27.1054 34.8665 24.8223 40.498 22.5302 46.1257C22.4626 46.2907 22.4078 46.4615 22.3436 46.6415H32.5715C32.5715 44.9105 32.5715 43.2118 32.5715 41.5189C32.5715 40.9708 32.9215 40.6026 33.401 40.6165C33.8548 40.6292 34.185 40.9835 34.192 41.5085C34.2036 42.4744 34.192 43.4403 34.192 44.4062L34.1978 46.6392ZM19.882 46.6554C19.8026 46.4384 19.7408 46.248 19.665 46.0634C18.958 44.3231 18.2499 42.5833 17.5405 40.8438C15.9469 36.9202 14.3556 32.9986 12.7667 29.0788C12.6558 28.8042 12.5263 28.7164 12.2335 28.788C10.0822 29.3223 8.02777 30.1036 6.23232 31.4226C3.66571 33.3071 2.24708 35.802 2.20742 38.9928C2.17592 41.4497 2.19925 43.9077 2.20042 46.3657C2.20624 46.4562 2.21951 46.5462 2.24008 46.6346H8.02194V46.1938C8.02194 44.6509 8.01494 43.108 8.02194 41.5662C8.02194 40.9673 8.37193 40.5992 8.86308 40.6176C9.35424 40.6361 9.62607 40.9835 9.62957 41.5697C9.62957 42.5021 9.62957 43.4345 9.62957 44.367V46.6554H19.882ZM21.0778 45.2706C21.1294 45.2044 21.1755 45.1342 21.2154 45.0605C21.7883 43.6492 22.3669 42.2402 22.9222 40.8219C22.9896 40.6152 23.0001 40.3946 22.9526 40.1826C22.7041 38.8705 22.4357 37.5607 22.1709 36.2521C21.9574 35.1973 21.7381 34.1449 21.5258 33.1109C20.6963 33.0255 20.6916 33.0243 20.5505 33.7167C20.1033 35.9209 19.6595 38.1258 19.2193 40.3314C19.1893 40.4626 19.1954 40.5992 19.2368 40.7273C19.8411 42.2344 20.4548 43.7357 21.0801 45.2706H21.0778ZM19.4212 30.212C19.518 30.5675 19.588 30.8987 19.7058 31.2114C19.7346 31.2707 19.777 31.3224 19.8297 31.3625C19.8824 31.4026 19.9438 31.4299 20.0091 31.4422C20.8258 31.4618 21.6424 31.4526 22.4498 31.4526L22.7997 30.2074L19.4212 30.212Z" fill="white"/>
<path d="M21.0777 2.0406C22.9584 1.99098 24.7631 2.22409 26.4209 3.11036C29.2209 4.60979 30.608 6.9401 30.5823 10.1013C30.5826 10.3385 30.5681 10.5755 30.5392 10.811C30.4703 11.3338 30.5077 11.7342 31.0583 12.0804C31.7851 12.542 32.029 13.3498 32.0196 14.1714C31.9998 16.0178 31.378 17.6796 30.0364 18.9744C29.575 19.4061 29.2246 19.9406 29.0144 20.5334C28.4312 22.1861 27.478 23.6872 26.2261 24.9244C23.215 27.8682 19.0315 27.8809 16.0029 24.9463C14.5912 23.5754 13.6439 21.9275 13.0338 20.0834C12.9253 19.734 12.7091 19.4269 12.4154 19.2052C11.2488 18.282 10.7145 16.9872 10.3587 15.6047C10.1437 14.8507 10.1385 14.0534 10.3435 13.2967C10.4899 12.7147 10.8609 12.2126 11.3771 11.8981C11.6455 11.74 11.6945 11.5588 11.6956 11.283C11.6956 10.3598 11.6303 9.40888 11.7726 8.49838C12.167 5.96881 13.6544 4.19858 15.9224 3.04574C17.5487 2.21832 19.2986 1.9956 21.0777 2.0406ZM28.5302 7.60518C28.2852 7.69866 28.0636 7.78636 27.8466 7.86714C24.2218 9.17924 20.6869 9.22886 17.2943 7.1482C17.2153 7.11568 17.1303 7.09981 17.0447 7.1016C16.9592 7.10339 16.8749 7.1228 16.7973 7.15859C15.7602 7.64211 14.7382 8.15795 13.7011 8.64032C13.4164 8.77188 13.2776 8.94382 13.2834 9.25309C13.3021 10.2178 13.3033 11.1826 13.3301 12.1473C13.3441 12.6643 13.1236 12.9551 12.6196 13.1155C12.356 13.2009 12.048 13.4098 11.9348 13.6452C11.4238 14.7092 12.4948 17.593 13.5809 18.0558C14.0324 18.2497 14.2389 18.5289 14.3626 18.9663C14.8432 20.6696 15.6167 22.2217 16.8452 23.5281C18.9568 25.7726 21.7451 26.173 24.1483 24.5401C26.0149 23.2707 27.0451 21.4174 27.7171 19.3471C27.9096 18.754 28.0309 18.162 28.7612 17.9889C28.8556 17.9479 28.9364 17.8815 28.9945 17.7973C29.8929 16.7587 30.3945 15.5539 30.3945 14.1807C30.3945 13.5379 30.1612 13.2817 29.5347 13.0913C29.0844 12.9551 28.8452 12.6689 28.8639 12.1946C28.8884 11.5842 28.9175 10.9749 28.9455 10.3655C28.9922 9.42388 28.8965 8.50761 28.5302 7.60518ZM27.7871 6.26539C27.5362 5.97805 27.4137 5.8211 27.2738 5.68147C26.5055 4.90046 25.5419 4.33467 24.4808 4.04164C22.2609 3.42761 19.9124 3.4336 17.6957 4.05895C16.4133 4.41085 15.2809 5.16486 14.4687 6.20769C14.3952 6.30232 14.3416 6.41195 14.2191 6.61274C14.9611 6.255 15.619 5.99189 16.2094 5.63877C16.9093 5.22564 17.5288 5.14024 18.1401 5.77263C18.2962 5.90472 18.4711 6.01322 18.6593 6.0946C20.5481 7.11358 22.5664 7.41016 24.6675 7.04549C25.6801 6.87009 26.6671 6.55274 27.7871 6.26539Z" fill="white"/>
<path d="M34.115 12.7451V1.81329C34.115 0.704294 34.3192 0.500037 35.4216 0.498883C39.464 0.498883 43.5076 0.488497 47.5547 0.506961C47.8569 0.516148 48.1461 0.63058 48.3713 0.830081C49.905 2.30797 51.4217 3.80509 52.9212 5.32144C53.1105 5.52804 53.2199 5.79408 53.2304 6.0727C53.2475 12.0389 53.2517 18.0047 53.2432 23.9701C53.2432 24.6521 52.976 24.929 52.2842 24.9302C46.5607 24.9348 40.8379 24.9348 35.116 24.9302C34.3891 24.9302 34.1302 24.6428 34.129 23.88C34.1197 20.168 34.115 16.4564 34.115 12.7451ZM35.7576 23.3146H51.5854V6.7824H51.0569C49.9953 6.7824 48.9325 6.78818 47.8708 6.7824C47.2233 6.7824 46.9293 6.4916 46.8967 5.85921C46.885 5.6561 46.8967 5.45184 46.8967 5.24874V2.14333H35.7611L35.7576 23.3146ZM48.5358 5.13796H50.2519L48.5358 3.4185V5.13796Z" fill="white"/>
<path d="M37.2859 16.9122C37.2859 15.7939 37.2801 14.6757 37.2859 13.5575C37.2859 12.9147 37.5764 12.6204 38.2192 12.6158C39.5539 12.6043 40.8897 12.6043 42.2266 12.6158C42.8811 12.6158 43.1844 12.902 43.1879 13.539C43.198 15.7932 43.198 18.0465 43.1879 20.2992C43.1879 20.9465 42.8846 21.2293 42.2418 21.2327C40.9056 21.2389 39.5698 21.2389 38.2344 21.2327C37.5554 21.2327 37.2859 20.9569 37.2824 20.2657C37.2812 19.1486 37.2859 18.0362 37.2859 16.9122ZM38.932 14.2372V19.5906H41.5605V14.2372H38.932Z" fill="white"/>
<path d="M39.8513 7.4747C41.0308 6.30224 42.1181 5.1944 43.2416 4.12811C43.4481 3.93193 43.8249 3.76575 44.0874 3.80037C44.7477 3.88576 44.9274 4.66587 44.4234 5.17824C43.6476 5.96873 42.8519 6.7396 42.0633 7.51971C41.5546 8.02285 41.0506 8.53176 40.5338 9.02798C40.0672 9.47573 39.66 9.47227 39.1922 9.02106C38.7244 8.56984 38.2402 8.09786 37.7736 7.61895C37.3524 7.19197 37.3197 6.76384 37.6651 6.40841C38.0104 6.05297 38.498 6.09683 38.9274 6.51688C39.2295 6.81 39.5142 7.12388 39.8513 7.4747Z" fill="white"/>
<path d="M47.5032 17.6761C46.8872 17.6761 46.2713 17.683 45.6564 17.6761C45.1163 17.668 44.7826 17.3633 44.7756 16.896C44.7686 16.4286 45.0929 16.0882 45.6308 16.0801C46.8752 16.0632 48.1235 16.0632 49.3757 16.0801C49.9427 16.087 50.2728 16.4263 50.2518 16.9225C50.2332 17.3841 49.9018 17.6714 49.35 17.6784C48.734 17.6818 48.1145 17.6761 47.5032 17.6761Z" fill="white"/>
<path d="M47.5242 13.0013C48.1391 13.0013 48.7539 13.0013 49.3687 13.0013C49.8937 13.0013 50.218 13.2759 50.2518 13.7179C50.288 14.1922 49.9905 14.5626 49.4539 14.5742C48.1566 14.6034 46.8589 14.6034 45.5608 14.5742C45.4525 14.5781 45.3446 14.5591 45.2444 14.5185C45.1442 14.4778 45.0539 14.4164 44.9796 14.3383C44.9054 14.2603 44.8488 14.1674 44.8139 14.066C44.7789 13.9645 44.7662 13.8569 44.7768 13.7502C44.792 13.3013 45.1128 13.0105 45.6285 13.0036C46.2596 12.9955 46.8919 13.0013 47.5242 13.0013Z" fill="white"/>
<path d="M47.501 20.7711C46.8861 20.7711 46.2702 20.7861 45.6565 20.7711C45.0732 20.7538 44.7559 20.4341 44.7769 19.939C44.7979 19.4717 45.114 19.1982 45.6857 19.1947C46.9153 19.1862 48.1449 19.1862 49.3746 19.1947C49.9346 19.1947 50.2484 19.4913 50.2531 19.9679C50.2577 20.4445 49.9497 20.7503 49.3967 20.7688C48.7656 20.7861 48.1321 20.7699 47.501 20.7711Z" fill="white"/>
</g>
<defs>
<clipPath id="clip0_903_1287">
<rect width="52.662" height="47.8009" fill="white" transform="translate(0.574097 0.495361)"/>
</clipPath>
</defs>
</svg>
