<svg width="67" height="67" viewBox="0 0 67 67" fill="none" xmlns="http://www.w3.org/2000/svg">
<g clip-path="url(#clip0_263_158)">
<path d="M46.3274 25.0798C46.3274 25.5592 46.3641 26.0386 46.3274 26.5128C46.2566 27.2464 45.8635 27.718 45.0799 27.7337C44.2334 27.7494 43.7826 27.2752 43.7407 26.4709C43.6935 25.6064 43.7093 24.7366 43.7407 23.8694C43.7591 23.0625 44.1889 22.5228 44.9987 22.5045C45.8793 22.4835 46.3091 23.0468 46.3484 23.9087C46.3641 24.2991 46.3484 24.6947 46.3484 25.0798H46.3274Z" fill="white"/>
<path d="M46.33 17.2254C46.33 17.6603 46.3614 18.0952 46.33 18.5353C46.2566 19.3475 45.7534 19.8453 44.9698 19.806C44.8051 19.8057 44.6422 19.7725 44.4905 19.7084C44.3388 19.6443 44.2014 19.5506 44.0865 19.4327C43.9715 19.3149 43.8812 19.1752 43.8209 19.022C43.7607 18.8688 43.7316 18.7052 43.7354 18.5406C43.6961 17.8044 43.7354 17.0656 43.7197 16.3268C43.7197 15.3968 44.1102 14.7942 45.093 14.8256C46.0102 14.8545 46.3562 15.4623 46.3431 16.3216C46.3431 16.6255 46.3431 16.9294 46.3431 17.2333L46.33 17.2254Z" fill="white"/>
<path d="M48.977 18.6009C48.9284 17.7774 48.9232 16.9519 48.9612 16.1278C48.9822 15.3078 49.4199 14.8179 50.2559 14.8179C51.0919 14.8179 51.5243 15.2947 51.5663 16.1278C51.5872 16.5182 51.5663 16.9137 51.5663 17.3015C51.5888 17.7378 51.5888 18.1751 51.5663 18.6114C51.5622 18.7758 51.5256 18.9377 51.4586 19.0878C51.3916 19.2379 51.2955 19.3733 51.1758 19.4861C51.0562 19.5989 50.9154 19.6868 50.7615 19.7449C50.6077 19.803 50.4438 19.83 50.2795 19.8244C50.1121 19.8359 49.9441 19.8128 49.7861 19.7564C49.6281 19.7001 49.4834 19.6117 49.3611 19.4969C49.2388 19.382 49.1416 19.2431 49.0755 19.089C49.0094 18.9348 48.9758 18.7687 48.977 18.6009Z" fill="white"/>
<path d="M50.269 27.7364C49.4827 27.7364 49.032 27.2963 48.9769 26.5601C48.9271 25.6508 48.9271 24.7395 48.9769 23.8302C49.0084 23.0286 49.4565 22.5046 50.2716 22.502C51.0867 22.4993 51.5191 23.0259 51.582 23.8119C51.6134 24.2442 51.582 24.6791 51.582 25.1218C51.6095 25.5982 51.6095 26.0758 51.582 26.5522C51.4667 27.2832 51.0526 27.7338 50.269 27.7364Z" fill="white"/>
<path d="M51.9463 59.1274C51.1234 59.1851 50.615 59.6514 50.5809 60.4164C50.5677 60.5804 50.588 60.7454 50.6405 60.9013C50.6931 61.0572 50.7768 61.2008 50.8867 61.3233C50.9965 61.4458 51.1301 61.5448 51.2794 61.614C51.4287 61.6833 51.5905 61.7215 51.755 61.7263C52.5412 61.7944 53.0785 61.3517 53.144 60.5317C53.2095 59.7117 52.7063 59.282 51.9463 59.1274ZM51.9463 59.1274C51.1234 59.1851 50.615 59.6514 50.5809 60.4164C50.5677 60.5804 50.588 60.7454 50.6405 60.9013C50.6931 61.0572 50.7768 61.2008 50.8867 61.3233C50.9965 61.4458 51.1301 61.5448 51.2794 61.614C51.4287 61.6833 51.5905 61.7215 51.755 61.7263C52.5412 61.7944 53.0785 61.3517 53.144 60.5317C53.2095 59.7117 52.7063 59.282 51.9463 59.1274ZM15.439 57.9957C15.439 57.3852 15.439 56.7722 15.439 56.1618C15.4206 54.6763 15.1428 54.3672 13.6962 54.3279C12.3438 54.3017 10.9889 54.3279 9.63659 54.3279C8.57255 54.3279 8.00909 54.8073 8.04578 55.9181C8.06936 56.6595 8.04578 57.401 8.04578 58.145C8.01695 61.8966 7.81777 61.7604 11.686 61.763C15.7115 61.7682 15.473 61.9097 15.439 57.9957ZM11.7332 59.1143C10.6849 59.4051 10.698 58.779 10.6534 57.993C10.6036 57.0866 10.9732 56.9923 11.7542 56.9451C12.7527 56.8848 12.8234 57.3145 12.8444 58.1345C12.8706 59.0148 12.5718 59.303 11.7332 59.1143ZM15.4442 47.9747C15.4442 44.0686 15.722 44.2048 11.7201 44.21C7.78894 44.21 8.02481 44.0423 8.05102 47.8778C8.05102 51.7814 7.66052 51.6294 11.7673 51.6347C15.8216 51.6425 15.4311 51.7368 15.4442 47.9695V47.9747ZM11.8433 49.0227C11.0413 48.9834 10.6168 48.9441 10.643 47.9407C10.6665 47.0473 10.8631 46.7513 11.783 46.8063C12.5692 46.8534 13.1275 46.877 12.7736 47.7861C12.9335 48.6349 12.813 49.0698 11.8433 49.0227ZM26.1527 46.3766C26.1527 44.5611 25.791 44.2179 23.925 44.2126H22.3526C18.88 44.2257 18.6337 43.6887 18.6389 47.9066C18.6389 52.0198 18.77 51.6347 22.3237 51.632C23.0209 51.632 23.7154 51.619 24.4204 51.632C25.618 51.6582 26.1789 51.0871 26.1605 49.8925C26.1422 48.6978 26.1553 47.5503 26.1527 46.3766ZM22.3814 49.0279C21.5585 49.0279 21.2545 48.8314 21.2728 47.9538C21.2912 47.0761 21.4143 46.5941 22.405 46.8587C23.338 46.615 23.5424 47.0211 23.5634 47.9066C23.5843 48.8707 23.2305 49.0305 22.3814 49.0279ZM26.1422 55.8159C26.1265 54.8911 25.6364 54.3645 24.6851 54.3462C23.8988 54.3305 23.1126 54.3462 22.3264 54.3331C18.7569 54.3331 18.6416 53.9611 18.6337 58.0533C18.6337 62.2451 18.8617 61.7525 22.3447 61.7551H24.5593C25.5709 61.7551 26.1055 61.2312 26.1317 60.2461C26.1763 58.7711 26.1684 57.2804 26.1422 55.8159ZM22.4731 59.0986C21.4248 59.3606 21.3174 58.8628 21.278 58.0166C21.2309 56.9949 21.7288 56.9687 22.5124 56.9372C23.4114 56.8953 23.5607 57.249 23.5607 58.0454C23.5529 58.9048 23.4061 59.413 22.4653 59.0986H22.4731ZM51.9542 59.1274C51.1312 59.1851 50.6228 59.6514 50.5887 60.4164C50.5755 60.5804 50.5958 60.7454 50.6484 60.9013C50.701 61.0572 50.7847 61.2008 50.8945 61.3233C51.0043 61.4458 51.138 61.5448 51.2872 61.614C51.4365 61.6833 51.5983 61.7215 51.7629 61.7263C52.5491 61.7944 53.0863 61.3517 53.1519 60.5317C53.2174 59.7117 52.7063 59.282 51.9463 59.1274H51.9542ZM51.9542 59.1274C51.1312 59.1851 50.6228 59.6514 50.5887 60.4164C50.5755 60.5804 50.5958 60.7454 50.6484 60.9013C50.701 61.0572 50.7847 61.2008 50.8945 61.3233C51.0043 61.4458 51.138 61.5448 51.2872 61.614C51.4365 61.6833 51.5983 61.7215 51.7629 61.7263C52.5491 61.7944 53.0863 61.3517 53.1519 60.5317C53.2174 59.7117 52.7063 59.282 51.9463 59.1274H51.9542ZM26.1501 55.8159C26.1343 54.8911 25.6443 54.3645 24.6929 54.3462C23.9067 54.3305 23.1204 54.3462 22.3342 54.3331C18.7647 54.3331 18.6494 53.9611 18.6416 58.0533C18.6416 62.2451 18.8696 61.7525 22.3526 61.7551H24.5671C25.5787 61.7551 26.1134 61.2312 26.1396 60.2461C26.1763 58.7711 26.1684 57.2804 26.1422 55.8159H26.1501ZM22.481 59.0986C21.4327 59.3606 21.3252 58.8628 21.2859 58.0166C21.2387 56.9949 21.7367 56.9687 22.5203 56.9372C23.4192 56.8953 23.5686 57.249 23.5686 58.0454C23.5529 58.9048 23.4061 59.413 22.4653 59.0986H22.481ZM26.1684 46.3766C26.1684 44.5611 25.8067 44.2179 23.9408 44.2126H22.3683C18.8958 44.2257 18.6494 43.6887 18.6547 47.9066C18.6547 52.0198 18.7857 51.6347 22.3395 51.632C23.0366 51.632 23.7311 51.619 24.4361 51.632C25.6338 51.6582 26.1946 51.0871 26.1763 49.8925C26.1579 48.6978 26.1553 47.5503 26.1527 46.3766H26.1684ZM22.3814 49.0279C21.5585 49.0279 21.2545 48.8314 21.2728 47.9538C21.2912 47.0761 21.4143 46.5941 22.405 46.8587C23.338 46.615 23.5424 47.0211 23.5634 47.9066C23.5843 48.8707 23.2305 49.0305 22.3814 49.0279ZM15.4442 47.98C15.4442 44.0738 15.722 44.21 11.7201 44.2153C7.78894 44.2153 8.02481 44.0476 8.05102 47.883C8.05102 51.7866 7.66052 51.6347 11.7673 51.6399C15.8216 51.6425 15.4311 51.7368 15.4442 47.9695V47.98ZM11.8433 49.0279C11.0413 48.9886 10.6168 48.9493 10.643 47.9459C10.6665 47.0526 10.8631 46.7565 11.783 46.8115C12.5692 46.8587 13.1275 46.8823 12.7736 47.7914C12.9335 48.6349 12.813 49.0698 11.8433 49.0227V49.0279ZM15.439 58.0009C15.439 57.3905 15.439 56.7774 15.439 56.167C15.4206 54.6816 15.1428 54.3724 13.6962 54.3331C12.3438 54.3069 10.9889 54.3331 9.63659 54.3331C8.57255 54.3331 8.00909 54.8125 8.04578 55.9234C8.06936 56.6648 8.04578 57.4062 8.04578 58.1502C8.01695 61.9019 7.81777 61.7656 11.686 61.7682C15.7115 61.7682 15.473 61.9097 15.439 57.9957V58.0009ZM11.7332 59.1143C10.6849 59.4051 10.698 58.779 10.6534 57.993C10.6036 57.0866 10.9732 56.9923 11.7542 56.9451C12.7527 56.8848 12.8234 57.3145 12.8444 58.1345C12.8706 59.0148 12.5718 59.303 11.7332 59.1143ZM15.439 58.0009C15.439 57.3905 15.439 56.7774 15.439 56.167C15.4206 54.6816 15.1428 54.3724 13.6962 54.3331C12.3438 54.3069 10.9889 54.3331 9.63659 54.3331C8.57255 54.3331 8.00909 54.8125 8.04578 55.9234C8.06936 56.6648 8.04578 57.4062 8.04578 58.1502C8.01695 61.9019 7.81777 61.7656 11.686 61.7682C15.7115 61.7682 15.473 61.9097 15.439 57.9957V58.0009ZM11.7332 59.1143C10.6849 59.4051 10.698 58.779 10.6534 57.993C10.6036 57.0866 10.9732 56.9923 11.7542 56.9451C12.7527 56.8848 12.8234 57.3145 12.8444 58.1345C12.8706 59.0148 12.5718 59.303 11.7332 59.1143ZM15.4442 47.9747C15.4442 44.0686 15.722 44.2048 11.7201 44.21C7.78894 44.21 8.02481 44.0423 8.05102 47.8778C8.05102 51.7814 7.66052 51.6294 11.7673 51.6347C15.8216 51.6425 15.4311 51.7368 15.4442 47.9695V47.9747ZM11.8433 49.0227C11.0413 48.9834 10.6168 48.9441 10.643 47.9407C10.6665 47.0473 10.8631 46.7513 11.783 46.8063C12.5692 46.8534 13.1275 46.877 12.7736 47.7861C12.9335 48.6349 12.813 49.0698 11.8433 49.0227ZM26.1527 46.3766C26.1527 44.5611 25.791 44.2179 23.925 44.2126H22.3526C18.88 44.2257 18.6337 43.6887 18.6389 47.9066C18.6389 52.0198 18.77 51.6347 22.3237 51.632C23.0209 51.632 23.7154 51.619 24.4204 51.632C25.618 51.6582 26.1789 51.0871 26.1605 49.8925C26.1422 48.6978 26.1553 47.5503 26.1527 46.3766ZM22.3814 49.0279C21.5585 49.0279 21.2545 48.8314 21.2728 47.9538C21.2912 47.0761 21.4143 46.5941 22.405 46.8587C23.338 46.615 23.5424 47.0211 23.5634 47.9066C23.5843 48.8707 23.2305 49.0305 22.3814 49.0279ZM26.1422 55.8159C26.1265 54.8911 25.6364 54.3645 24.6851 54.3462C23.8988 54.3305 23.1126 54.3462 22.3264 54.3331C18.7569 54.3331 18.6416 53.9611 18.6337 58.0533C18.6337 62.2451 18.8617 61.7525 22.3447 61.7551H24.5593C25.5709 61.7551 26.1055 61.2312 26.1317 60.2461C26.1763 58.7711 26.1684 57.2804 26.1422 55.8159ZM22.4731 59.0986C21.4248 59.3606 21.3174 58.8628 21.278 58.0166C21.2309 56.9949 21.7288 56.9687 22.5124 56.9372C23.4114 56.8953 23.5607 57.249 23.5607 58.0454C23.5529 58.9048 23.4061 59.413 22.4653 59.0986H22.4731ZM51.9542 59.1274C51.1312 59.1851 50.6228 59.6514 50.5887 60.4164C50.5755 60.5804 50.5958 60.7454 50.6484 60.9013C50.701 61.0572 50.7847 61.2008 50.8945 61.3233C51.0043 61.4458 51.138 61.5448 51.2872 61.614C51.4365 61.6833 51.5983 61.7215 51.7629 61.7263C52.5491 61.7944 53.0863 61.3517 53.1519 60.5317C53.2174 59.7117 52.7063 59.282 51.9463 59.1274H51.9542ZM51.9542 59.1274C51.1312 59.1851 50.6228 59.6514 50.5887 60.4164C50.5755 60.5804 50.5958 60.7454 50.6484 60.9013C50.701 61.0572 50.7847 61.2008 50.8945 61.3233C51.0043 61.4458 51.138 61.5448 51.2872 61.614C51.4365 61.6833 51.5983 61.7215 51.7629 61.7263C52.5491 61.7944 53.0863 61.3517 53.1519 60.5317C53.2174 59.7117 52.7063 59.282 51.9463 59.1274H51.9542ZM26.1501 55.8159C26.1343 54.8911 25.6443 54.3645 24.6929 54.3462C23.9067 54.3305 23.1204 54.3462 22.3342 54.3331C18.7647 54.3331 18.6494 53.9611 18.6416 58.0533C18.6416 62.2451 18.8696 61.7525 22.3526 61.7551H24.5671C25.5787 61.7551 26.1134 61.2312 26.1396 60.2461C26.1763 58.7711 26.1684 57.2804 26.1422 55.8159H26.1501ZM22.481 59.0986C21.4327 59.3606 21.3252 58.8628 21.2859 58.0166C21.2387 56.9949 21.7367 56.9687 22.5203 56.9372C23.4192 56.8953 23.5686 57.249 23.5686 58.0454C23.5529 58.9048 23.4061 59.413 22.4653 59.0986H22.481ZM22.3473 51.632C23.0444 51.632 23.739 51.619 24.4439 51.632C25.6416 51.6582 26.2025 51.0871 26.1841 49.8925C26.1658 48.6978 26.1841 47.5477 26.1841 46.374C26.1841 44.5585 25.8225 44.2153 23.9565 44.21H22.384C18.9115 44.2231 18.6651 43.6861 18.6704 47.904C18.6547 52.0198 18.7778 51.6347 22.3316 51.632H22.3473ZM22.4207 46.8587C23.3537 46.615 23.5581 47.0211 23.5791 47.9066C23.6 48.8603 23.2462 49.0201 22.3971 49.0174C21.548 49.0148 21.2702 48.8209 21.2885 47.9433C21.3069 47.0657 21.4143 46.5941 22.405 46.8587H22.4207ZM11.7804 51.6399C15.8373 51.6399 15.4495 51.7368 15.4495 47.9721C15.4495 44.0659 15.7273 44.2022 11.7253 44.2074C7.79419 44.2074 8.03005 44.0397 8.05626 47.8752C8.0484 51.7788 7.6579 51.6347 11.7647 51.6399H11.7804ZM11.7987 46.8063C12.585 46.8534 13.1432 46.877 12.7894 47.7861C12.9492 48.6297 12.8287 49.0698 11.859 49.0227C11.057 48.9834 10.6325 48.9441 10.6587 47.9407C10.6665 47.0473 10.8631 46.7513 11.783 46.8011L11.7987 46.8063ZM15.4678 56.1618C15.4495 54.6763 15.1717 54.3672 13.725 54.3279C12.3727 54.3017 11.0177 54.3279 9.66541 54.3279C8.60138 54.3279 8.03791 54.8073 8.0746 55.9181C8.09819 56.6595 8.0746 57.401 8.0746 58.145C8.04578 61.8966 7.8466 61.7604 11.7149 61.763C15.7377 61.763 15.4992 61.9045 15.4652 57.9904C15.439 57.3852 15.4468 56.7722 15.439 56.1618H15.4678ZM11.7332 59.1143C10.6849 59.4051 10.698 58.779 10.6534 57.993C10.6036 57.0866 10.9732 56.9923 11.7542 56.9451C12.7527 56.8848 12.8234 57.3145 12.8444 58.1345C12.8706 59.0148 12.5718 59.303 11.7332 59.1143ZM65.6293 64.4143C64.374 64.5584 64.3897 63.9165 64.3923 62.9865C64.4185 52.6014 64.4238 42.2163 64.4081 31.8312C64.4081 30.1964 64.0385 29.8218 62.4477 29.814C60.9198 29.814 59.3893 29.7589 57.8666 29.8349C56.9887 29.8768 56.7921 29.5913 56.8 28.7503C56.8393 23.7333 56.8 18.7163 56.8419 13.6993C56.8419 12.5989 56.5143 11.9545 55.5315 11.4357C48.5655 7.79151 41.6414 4.10014 34.6833 0.414018C33.0506 -0.447912 32.2093 0.0550978 32.204 1.88637C32.204 5.72707 32.1569 9.56777 32.2329 13.4137C32.2538 14.4852 31.9079 14.6739 30.9225 14.6608C27.2115 14.6057 23.5005 14.6372 19.7921 14.6372C17.9418 14.6372 17.6221 14.962 17.6195 16.8667C17.6195 20.7947 17.6195 24.7245 17.6195 28.656C17.6212 29.091 17.6677 29.5247 17.7584 29.9502C17.8114 30.211 17.9566 30.444 18.1674 30.6065C18.3782 30.7691 18.6404 30.8505 18.9062 30.8357C19.509 30.8357 20.0227 30.5606 20.1459 29.903C20.2245 29.4304 20.2613 28.9517 20.2559 28.4726C20.2559 25.1139 20.2926 21.7527 20.2376 18.394C20.2219 17.4797 20.4708 17.2334 21.3907 17.2439C25.5368 17.2963 29.6829 17.2439 33.8289 17.278C35.2127 17.278 37.1704 16.6702 37.8308 17.5216C38.5332 18.4255 37.9959 20.2725 38.0562 21.7134C38.0824 22.3474 37.8806 22.5465 37.2464 22.5203C36.0251 22.4758 34.8012 22.4941 33.5773 22.5203C32.7544 22.536 32.2302 23.0076 32.2198 23.804C32.2093 24.6005 32.7439 25.0563 33.5485 25.127C33.8106 25.148 34.0726 25.127 34.3347 25.127C35.5455 25.1952 37.2019 24.6031 37.8439 25.3576C38.486 26.1121 37.9828 27.6814 38.0588 28.8918C38.1034 29.6175 37.9042 29.8952 37.1311 29.8533C35.9124 29.7904 34.6885 29.8087 33.462 29.8533C33.2963 29.8493 33.1315 29.8791 32.9777 29.9408C32.8239 30.0025 32.6843 30.0949 32.5673 30.2123C32.4504 30.3297 32.3585 30.4697 32.2974 30.6237C32.2363 30.7777 32.2072 30.9425 32.2119 31.1082C32.1857 31.8548 32.6705 32.3028 33.3965 32.4338C33.7006 32.4601 34.0061 32.468 34.3111 32.4574C35.5246 32.5176 37.2307 31.9334 37.8151 32.6748C38.4362 33.4608 37.9724 35.0825 38.0536 36.3426C38.1008 37.0788 37.7915 37.2124 37.1468 37.1862C36.012 37.1417 34.8772 37.1862 33.7398 37.1705C32.8645 37.1705 32.2433 37.5687 32.2198 38.428C32.1936 39.3685 32.8409 39.7982 33.766 39.7956C34.9454 39.7956 36.1247 39.8192 37.3014 39.7956C37.8623 39.7772 38.0693 39.9475 38.0484 40.5265C38.0064 41.6164 38.009 42.7089 38.0484 43.7987C38.0667 44.3829 37.8466 44.5427 37.2936 44.527C36.1142 44.493 34.9349 44.527 33.7582 44.527C32.8854 44.5139 32.2538 44.9095 32.2198 45.7662C32.1831 46.7015 32.8173 47.1521 33.7503 47.1495C34.8851 47.1495 36.0199 47.1835 37.1573 47.1364C37.8073 47.1128 38.1008 47.2595 38.0562 47.9852C37.9999 48.987 37.9999 49.9911 38.0562 50.9928C38.0903 51.6713 37.8833 51.9071 37.1861 51.8757C35.9648 51.8233 34.7409 51.8338 33.517 51.8757C32.7046 51.9045 32.2067 52.3997 32.2067 53.2092C32.2224 53.9428 32.7308 54.3829 33.4646 54.4693C33.766 54.5034 34.0753 54.4693 34.3793 54.4851C35.5848 54.5715 37.2412 53.9428 37.8702 54.747C38.4677 55.5094 37.9724 57.0918 38.0484 58.31C38.0982 59.1143 37.7444 59.2375 37.063 59.2086C35.9727 59.1641 34.8798 59.2086 33.7896 59.1929C32.8619 59.1798 32.1962 59.5833 32.2171 60.5264C32.2381 61.4696 32.9248 61.8364 33.842 61.8206C34.9742 61.8023 36.1142 61.8678 37.249 61.8023C38.4729 61.7316 38.0038 62.6145 38.0143 63.1358C38.0248 63.6572 38.4389 64.5112 37.2281 64.4457C35.7021 64.3658 34.1729 64.3658 32.6469 64.4457C31.6432 64.5034 31.3523 64.2335 31.3601 63.1882C31.4099 55.8133 31.389 48.4411 31.3864 41.0662C31.3864 39.3738 31.0299 39.0253 29.316 39.0253H4.71216C2.92479 39.0253 2.58933 39.3607 2.58933 41.1448C2.58933 48.4804 2.57361 55.8159 2.60506 63.1358C2.60506 64.0527 2.52643 64.5898 1.39164 64.4457C0.605409 64.3462 0.02884 64.8649 1.14767e-05 65.6692C-0.0340585 66.5469 0.524166 66.9948 1.40474 67.0341C1.71137 67.0341 2.01538 67.0341 2.32201 67.0341H56.6637C59.5885 67.0341 62.5133 67.0341 65.4354 67.0341C66.3003 67.0341 66.9292 66.6805 66.9948 65.8133C67.0603 64.9461 66.4837 64.3121 65.6293 64.4091V64.4143ZM28.8023 63.3323C28.8023 64.189 28.5821 64.4143 27.7304 64.4012C24.1085 64.354 20.4866 64.3802 16.862 64.3802C13.3266 64.3802 9.78597 64.3514 6.25579 64.4038C5.3988 64.4038 5.18389 64.1811 5.18651 63.3297C5.22321 56.4377 5.22321 49.544 5.18651 42.6486C5.18651 41.7919 5.40928 41.5771 6.25841 41.5797C13.4219 41.6164 20.5801 41.6164 27.733 41.5797C28.59 41.5797 28.8075 41.7998 28.8023 42.6512C28.7691 49.5414 28.7691 56.4334 28.8023 63.327V63.3323ZM45.0249 31.9151C45.0249 42.2949 45.0065 52.6774 45.0511 63.0572C45.0511 64.1235 44.8388 64.4431 43.7223 64.4117C40.698 64.3278 40.6953 64.3855 40.6953 61.3569C40.6953 46.6124 40.6953 31.8697 40.6953 17.1286C40.6953 14.7996 40.5224 14.6503 38.1558 14.6188C37.0761 14.6057 35.6687 15.0904 35.0109 14.4302C34.3531 13.77 34.8353 12.3631 34.8248 11.2864C34.796 8.84469 34.8248 6.40037 34.8248 3.95081C34.8442 3.80001 34.8722 3.65044 34.9087 3.50282L47.0953 9.95289C49.205 11.0689 51.3016 12.2164 53.4297 13.2984C53.6856 13.3943 53.902 13.5731 54.0445 13.8062C54.187 14.0393 54.2473 14.3134 54.2159 14.5848C54.1871 19.3372 54.1766 24.0922 54.2159 28.8472C54.2159 29.6987 53.9538 29.8454 53.1807 29.8244C51.1758 29.7747 49.1683 29.8061 47.1529 29.8087C45.3524 29.8113 45.0249 30.131 45.0249 31.9098V31.9151ZM54.9497 54.43C56.8707 54.43 58.7918 54.4641 60.7154 54.4117C61.52 54.3907 61.8921 54.5375 61.8135 55.4596C61.7165 56.6255 62.2014 58.145 61.6274 58.8864C61.0535 59.6278 59.4338 59.0908 58.2755 59.1327C57.3503 59.1667 56.5641 59.3449 56.5641 60.4426C56.5641 61.5403 57.3372 61.7813 58.265 61.7525C59.0067 61.7525 59.7614 61.8311 60.49 61.7316C61.6038 61.5822 61.8292 61.9936 61.8397 63.0703C61.8528 64.1811 61.5383 64.4169 60.4691 64.3986C56.5379 64.3278 52.6067 64.3409 48.6756 64.3986C47.7976 64.3986 47.6115 64.1366 47.6273 63.314C47.6666 58.3362 47.6456 53.3585 47.6456 48.3939C47.6456 43.4293 47.6692 38.4385 47.6247 33.4739C47.6247 32.612 47.8527 32.3997 48.7018 32.4076C52.7203 32.4548 56.7388 32.4548 60.7573 32.4076C61.6222 32.4076 61.8843 32.6355 61.8214 33.4844C61.7323 34.6502 62.1961 36.1828 61.6143 36.8902C61.0325 37.5975 59.4129 37.0788 58.2519 37.1233C57.1643 37.1652 56.0714 37.1417 54.9812 37.1233C54.1137 37.1233 53.4873 37.4927 53.4559 38.3678C53.4218 39.3214 54.0665 39.7432 54.9864 39.7432C56.952 39.7432 58.9176 39.7772 60.8779 39.7275C61.6117 39.7091 61.8659 39.9056 61.8187 40.6575C61.7427 41.8705 62.2197 43.4555 61.617 44.2048C61.0142 44.9541 59.3369 44.3986 58.1339 44.4484C57.0437 44.4903 55.9508 44.4484 54.8606 44.4615C53.9853 44.4772 53.4218 44.9383 53.4533 45.8186C53.4795 46.6229 54.0351 47.063 54.8449 47.0683C56.8524 47.0866 58.8599 47.1049 60.8727 47.0683C61.5881 47.0526 61.9 47.2176 61.8187 47.9878C61.6903 49.2296 62.3429 50.8513 61.5567 51.6137C60.9408 52.211 59.3264 51.7814 58.1497 51.7945C57.1014 51.7945 56.0531 51.7945 55.0047 51.7945C54.0796 51.7945 53.4323 52.1901 53.4585 53.1463C53.4611 54.0292 54.0849 54.4248 54.9497 54.4248V54.43ZM51.9463 59.1274C51.1234 59.1851 50.615 59.6514 50.5809 60.4164C50.5677 60.5804 50.588 60.7454 50.6405 60.9013C50.6931 61.0572 50.7768 61.2008 50.8867 61.3233C50.9965 61.4458 51.1301 61.5448 51.2794 61.614C51.4287 61.6833 51.5905 61.7215 51.755 61.7263C52.5412 61.7944 53.0785 61.3517 53.144 60.5317C53.2095 59.7117 52.7063 59.282 51.9463 59.1274ZM24.6903 54.3462C23.9041 54.3305 23.1178 54.3462 22.3316 54.3331C18.7621 54.3331 18.6468 53.9611 18.6389 58.0533C18.6389 62.2451 18.8669 61.7525 22.3499 61.7551H24.5645C25.5761 61.7551 26.1107 61.2312 26.137 60.2461C26.171 58.7711 26.1632 57.2909 26.137 55.8159C26.1265 54.8911 25.6364 54.3645 24.6851 54.3462H24.6903ZM22.4705 59.0986C21.4222 59.3606 21.3147 58.8628 21.2754 58.0166C21.2283 56.9949 21.7262 56.9687 22.5098 56.9372C23.4087 56.8953 23.5581 57.249 23.5581 58.0454C23.5529 58.9048 23.4061 59.413 22.4653 59.0986H22.4705ZM22.3368 51.632C23.034 51.632 23.7285 51.619 24.4335 51.632C25.6311 51.6582 26.192 51.0871 26.1736 49.8925C26.1553 48.6978 26.1736 47.5477 26.1736 46.374C26.1736 44.5585 25.812 44.2153 23.946 44.21H22.3735C18.901 44.2231 18.6547 43.6861 18.6599 47.904C18.6547 52.0198 18.7778 51.6347 22.3316 51.632H22.3368ZM22.4102 46.8587C23.3432 46.615 23.5476 47.0211 23.5686 47.9066C23.5896 48.8603 23.2358 49.0201 22.3866 49.0174C21.5375 49.0148 21.2597 48.8209 21.278 47.9433C21.2964 47.0657 21.4143 46.5941 22.405 46.8587H22.4102ZM11.7699 51.6399C15.8268 51.6399 15.439 51.7368 15.439 47.9721C15.439 44.0659 15.7168 44.2022 11.7149 44.2074C7.7837 44.2074 8.01957 44.0397 8.04578 47.8752C8.0484 51.7788 7.6579 51.6347 11.7647 51.6399H11.7699ZM11.7882 46.8063C12.5745 46.8534 13.1327 46.877 12.7789 47.7861C12.9388 48.6297 12.8182 49.0698 11.8485 49.0227C11.0466 48.9834 10.622 48.9441 10.6482 47.9407C10.6665 47.0473 10.8631 46.7513 11.783 46.8011L11.7882 46.8063ZM15.4573 56.1618C15.439 54.6763 15.1612 54.3672 13.7145 54.3279C12.3622 54.3017 11.0072 54.3279 9.65493 54.3279C8.5909 54.3279 8.02743 54.8073 8.06412 55.9181C8.08771 56.6595 8.06412 57.401 8.06412 58.145C8.0353 61.8966 7.83612 61.7604 11.7044 61.763C15.7273 61.763 15.4888 61.9045 15.4547 57.9904C15.439 57.3852 15.4468 56.7722 15.439 56.1618H15.4573ZM11.7332 59.1143C10.6849 59.4051 10.698 58.779 10.6534 57.993C10.6036 57.0866 10.9732 56.9923 11.7542 56.9451C12.7527 56.8848 12.8234 57.3145 12.8444 58.1345C12.8706 59.0148 12.5718 59.303 11.7332 59.1143ZM15.439 58.0009C15.439 57.3905 15.439 56.7774 15.439 56.167C15.4206 54.6816 15.1428 54.3724 13.6962 54.3331C12.3438 54.3069 10.9889 54.3331 9.63659 54.3331C8.57255 54.3331 8.00909 54.8125 8.04578 55.9234C8.06936 56.6648 8.04578 57.4062 8.04578 58.1502C8.01695 61.9019 7.81777 61.7656 11.686 61.7682C15.7115 61.7682 15.473 61.9097 15.439 57.9957V58.0009ZM11.7332 59.1143C10.6849 59.4051 10.698 58.779 10.6534 57.993C10.6036 57.0866 10.9732 56.9923 11.7542 56.9451C12.7527 56.8848 12.8234 57.3145 12.8444 58.1345C12.8706 59.0148 12.5718 59.303 11.7332 59.1143ZM15.4442 47.9747C15.4442 44.0686 15.722 44.2048 11.7201 44.21C7.78894 44.21 8.02481 44.0423 8.05102 47.8778C8.05102 51.7814 7.66052 51.6294 11.7673 51.6347C15.8216 51.6425 15.4311 51.7368 15.4442 47.9695V47.9747ZM11.8433 49.0227C11.0413 48.9834 10.6168 48.9441 10.643 47.9407C10.6665 47.0473 10.8631 46.7513 11.783 46.8063C12.5692 46.8534 13.1275 46.877 12.7736 47.7861C12.9335 48.6349 12.813 49.0698 11.8433 49.0227ZM26.1527 46.3766C26.1527 44.5611 25.791 44.2179 23.925 44.2126H22.3526C18.88 44.2257 18.6337 43.6887 18.6389 47.9066C18.6389 52.0198 18.77 51.6347 22.3237 51.632C23.0209 51.632 23.7154 51.619 24.4204 51.632C25.618 51.6582 26.1789 51.0871 26.1605 49.8925C26.1422 48.6978 26.1553 47.5503 26.1527 46.3766ZM22.3814 49.0279C21.5585 49.0279 21.2545 48.8314 21.2728 47.9538C21.2912 47.0761 21.4143 46.5941 22.405 46.8587C23.338 46.615 23.5424 47.0211 23.5634 47.9066C23.5843 48.8707 23.2305 49.0305 22.3814 49.0279ZM26.1422 55.8159C26.1265 54.8911 25.6364 54.3645 24.6851 54.3462C23.8988 54.3305 23.1126 54.3462 22.3264 54.3331C18.7569 54.3331 18.6416 53.9611 18.6337 58.0533C18.6337 62.2451 18.8617 61.7525 22.3447 61.7551H24.5593C25.5709 61.7551 26.1055 61.2312 26.1317 60.2461C26.1763 58.7711 26.1684 57.2804 26.1422 55.8159ZM22.4731 59.0986C21.4248 59.3606 21.3174 58.8628 21.278 58.0166C21.2309 56.9949 21.7288 56.9687 22.5124 56.9372C23.4114 56.8953 23.5607 57.249 23.5607 58.0454C23.5529 58.9048 23.4061 59.413 22.4653 59.0986H22.4731ZM51.9542 59.1274C51.1312 59.1851 50.6228 59.6514 50.5887 60.4164C50.5755 60.5804 50.5958 60.7454 50.6484 60.9013C50.701 61.0572 50.7847 61.2008 50.8945 61.3233C51.0043 61.4458 51.138 61.5448 51.2872 61.614C51.4365 61.6833 51.5983 61.7215 51.7629 61.7263C52.5491 61.7944 53.0863 61.3517 53.1519 60.5317C53.2174 59.7117 52.7063 59.282 51.9463 59.1274H51.9542ZM51.9542 59.1274C51.1312 59.1851 50.6228 59.6514 50.5887 60.4164C50.5755 60.5804 50.5958 60.7454 50.6484 60.9013C50.701 61.0572 50.7847 61.2008 50.8945 61.3233C51.0043 61.4458 51.138 61.5448 51.2872 61.614C51.4365 61.6833 51.5983 61.7215 51.7629 61.7263C52.5491 61.7944 53.0863 61.3517 53.1519 60.5317C53.2174 59.7117 52.7063 59.282 51.9463 59.1274H51.9542ZM26.1501 55.8159C26.1343 54.8911 25.6443 54.3645 24.6929 54.3462C23.9067 54.3305 23.1204 54.3462 22.3342 54.3331C18.7647 54.3331 18.6494 53.9611 18.6416 58.0533C18.6416 62.2451 18.8696 61.7525 22.3526 61.7551H24.5671C25.5787 61.7551 26.1134 61.2312 26.1396 60.2461C26.1763 58.7711 26.1684 57.2804 26.1422 55.8159H26.1501ZM22.481 59.0986C21.4327 59.3606 21.3252 58.8628 21.2859 58.0166C21.2387 56.9949 21.7367 56.9687 22.5203 56.9372C23.4192 56.8953 23.5686 57.249 23.5686 58.0454C23.5529 58.9048 23.4061 59.413 22.4653 59.0986H22.481ZM26.1684 46.3766C26.1684 44.5611 25.8067 44.2179 23.9408 44.2126H22.3683C18.8958 44.2257 18.6494 43.6887 18.6547 47.9066C18.6547 52.0198 18.7857 51.6347 22.3395 51.632C23.0366 51.632 23.7311 51.619 24.4361 51.632C25.6338 51.6582 26.1946 51.0871 26.1763 49.8925C26.1579 48.6978 26.1553 47.5503 26.1527 46.3766H26.1684ZM22.3814 49.0279C21.5585 49.0279 21.2545 48.8314 21.2728 47.9538C21.2912 47.0761 21.4143 46.5941 22.405 46.8587C23.338 46.615 23.5424 47.0211 23.5634 47.9066C23.5843 48.8707 23.2305 49.0305 22.3814 49.0279ZM15.4442 47.98C15.4442 44.0738 15.722 44.21 11.7201 44.2153C7.78894 44.2153 8.02481 44.0476 8.05102 47.883C8.05102 51.7866 7.66052 51.6347 11.7673 51.6399C15.8216 51.6425 15.4311 51.7368 15.4442 47.9695V47.98ZM11.8433 49.0279C11.0413 48.9886 10.6168 48.9493 10.643 47.9459C10.6665 47.0526 10.8631 46.7565 11.783 46.8115C12.5692 46.8587 13.1275 46.8823 12.7736 47.7914C12.9335 48.6349 12.813 49.0698 11.8433 49.0227V49.0279ZM15.439 58.0009C15.439 57.3905 15.439 56.7774 15.439 56.167C15.4206 54.6816 15.1428 54.3724 13.6962 54.3331C12.3438 54.3069 10.9889 54.3331 9.63659 54.3331C8.57255 54.3331 8.00909 54.8125 8.04578 55.9234C8.06936 56.6648 8.04578 57.4062 8.04578 58.1502C8.01695 61.9019 7.81777 61.7656 11.686 61.7682C15.7115 61.7682 15.473 61.9097 15.439 57.9957V58.0009ZM11.7332 59.1143C10.6849 59.4051 10.698 58.779 10.6534 57.993C10.6036 57.0866 10.9732 56.9923 11.7542 56.9451C12.7527 56.8848 12.8234 57.3145 12.8444 58.1345C12.8706 59.0148 12.5718 59.303 11.7332 59.1143ZM15.439 58.0009C15.439 57.3905 15.439 56.7774 15.439 56.167C15.4206 54.6816 15.1428 54.3724 13.6962 54.3331C12.3438 54.3069 10.9889 54.3331 9.63659 54.3331C8.57255 54.3331 8.00909 54.8125 8.04578 55.9234C8.06936 56.6648 8.04578 57.4062 8.04578 58.1502C8.01695 61.9019 7.81777 61.7656 11.686 61.7682C15.7115 61.7682 15.473 61.9097 15.439 57.9957V58.0009ZM11.7332 59.1143C10.6849 59.4051 10.698 58.779 10.6534 57.993C10.6036 57.0866 10.9732 56.9923 11.7542 56.9451C12.7527 56.8848 12.8234 57.3145 12.8444 58.1345C12.8706 59.0148 12.5718 59.303 11.7332 59.1143ZM15.4442 47.9747C15.4442 44.0686 15.722 44.2048 11.7201 44.21C7.78894 44.21 8.02481 44.0423 8.05102 47.8778C8.05102 51.7814 7.66052 51.6294 11.7673 51.6347C15.8216 51.6425 15.4311 51.7368 15.4442 47.9695V47.9747ZM11.8433 49.0227C11.0413 48.9834 10.6168 48.9441 10.643 47.9407C10.6665 47.0473 10.8631 46.7513 11.783 46.8063C12.5692 46.8534 13.1275 46.877 12.7736 47.7861C12.9335 48.6349 12.813 49.0698 11.8433 49.0227ZM26.1527 46.3766C26.1527 44.5611 25.791 44.2179 23.925 44.2126H22.3526C18.88 44.2257 18.6337 43.6887 18.6389 47.9066C18.6389 52.0198 18.77 51.6347 22.3237 51.632C23.0209 51.632 23.7154 51.619 24.4204 51.632C25.618 51.6582 26.1789 51.0871 26.1605 49.8925C26.1422 48.6978 26.1553 47.5503 26.1527 46.3766ZM22.3814 49.0279C21.5585 49.0279 21.2545 48.8314 21.2728 47.9538C21.2912 47.0761 21.4143 46.5941 22.405 46.8587C23.338 46.615 23.5424 47.0211 23.5634 47.9066C23.5843 48.8707 23.2305 49.0305 22.3814 49.0279ZM26.1422 55.8159C26.1265 54.8911 25.6364 54.3645 24.6851 54.3462C23.8988 54.3305 23.1126 54.3462 22.3264 54.3331C18.7569 54.3331 18.6416 53.9611 18.6337 58.0533C18.6337 62.2451 18.8617 61.7525 22.3447 61.7551H24.5593C25.5709 61.7551 26.1055 61.2312 26.1317 60.2461C26.1763 58.7711 26.1684 57.2804 26.1422 55.8159ZM22.4731 59.0986C21.4248 59.3606 21.3174 58.8628 21.278 58.0166C21.2309 56.9949 21.7288 56.9687 22.5124 56.9372C23.4114 56.8953 23.5607 57.249 23.5607 58.0454C23.5529 58.9048 23.4061 59.413 22.4653 59.0986H22.4731ZM51.9542 59.1274C51.1312 59.1851 50.6228 59.6514 50.5887 60.4164C50.5755 60.5804 50.5958 60.7454 50.6484 60.9013C50.701 61.0572 50.7847 61.2008 50.8945 61.3233C51.0043 61.4458 51.138 61.5448 51.2872 61.614C51.4365 61.6833 51.5983 61.7215 51.7629 61.7263C52.5491 61.7944 53.0863 61.3517 53.1519 60.5317C53.2174 59.7117 52.7063 59.282 51.9463 59.1274H51.9542ZM51.9542 59.1274C51.1312 59.1851 50.6228 59.6514 50.5887 60.4164C50.5755 60.5804 50.5958 60.7454 50.6484 60.9013C50.701 61.0572 50.7847 61.2008 50.8945 61.3233C51.0043 61.4458 51.138 61.5448 51.2872 61.614C51.4365 61.6833 51.5983 61.7215 51.7629 61.7263C52.5491 61.7944 53.0863 61.3517 53.1519 60.5317C53.2174 59.7117 52.7063 59.282 51.9463 59.1274H51.9542ZM26.1501 55.8159C26.1343 54.8911 25.6443 54.3645 24.6929 54.3462C23.9067 54.3305 23.1204 54.3462 22.3342 54.3331C18.7647 54.3331 18.6494 53.9611 18.6416 58.0533C18.6416 62.2451 18.8696 61.7525 22.3526 61.7551H24.5671C25.5787 61.7551 26.1134 61.2312 26.1396 60.2461C26.1763 58.7711 26.1684 57.2804 26.1422 55.8159H26.1501ZM22.481 59.0986C21.4327 59.3606 21.3252 58.8628 21.2859 58.0166C21.2387 56.9949 21.7367 56.9687 22.5203 56.9372C23.4192 56.8953 23.5686 57.249 23.5686 58.0454C23.5529 58.9048 23.4061 59.413 22.4653 59.0986H22.481ZM26.1684 46.3766C26.1684 44.5611 25.8067 44.2179 23.9408 44.2126H22.3683C18.8958 44.2257 18.6494 43.6887 18.6547 47.9066C18.6547 52.0198 18.7857 51.6347 22.3395 51.632C23.0366 51.632 23.7311 51.619 24.4361 51.632C25.6338 51.6582 26.1946 51.0871 26.1763 49.8925C26.1579 48.6978 26.1553 47.5503 26.1527 46.3766H26.1684ZM22.3814 49.0279C21.5585 49.0279 21.2545 48.8314 21.2728 47.9538C21.2912 47.0761 21.4143 46.5941 22.405 46.8587C23.338 46.615 23.5424 47.0211 23.5634 47.9066C23.5843 48.8707 23.2305 49.0305 22.3814 49.0279ZM15.4442 47.98C15.4442 44.0738 15.722 44.21 11.7201 44.2153C7.78894 44.2153 8.02481 44.0476 8.05102 47.883C8.05102 51.7866 7.66052 51.6347 11.7673 51.6399C15.8216 51.6425 15.4311 51.7368 15.4442 47.9695V47.98ZM11.8433 49.0279C11.0413 48.9886 10.6168 48.9493 10.643 47.9459C10.6665 47.0526 10.8631 46.7565 11.783 46.8115C12.5692 46.8587 13.1275 46.8823 12.7736 47.7914C12.9335 48.6349 12.813 49.0698 11.8433 49.0227V49.0279ZM15.439 58.0009C15.439 57.3905 15.439 56.7774 15.439 56.167C15.4206 54.6816 15.1428 54.3724 13.6962 54.3331C12.3438 54.3069 10.9889 54.3331 9.63659 54.3331C8.57255 54.3331 8.00909 54.8125 8.04578 55.9234C8.06936 56.6648 8.04578 57.4062 8.04578 58.1502C8.01695 61.9019 7.81777 61.7656 11.686 61.7682C15.7115 61.7682 15.473 61.9097 15.439 57.9957V58.0009ZM11.7332 59.1143C10.6849 59.4051 10.698 58.779 10.6534 57.993C10.6036 57.0866 10.9732 56.9923 11.7542 56.9451C12.7527 56.8848 12.8234 57.3145 12.8444 58.1345C12.8706 59.0148 12.5718 59.303 11.7332 59.1143Z" fill="white"/>
<path d="M20.2218 34.6004C20.1825 35.5645 19.6819 36.0361 18.8957 36.0151C18.7292 36.0202 18.5635 35.99 18.4096 35.9264C18.2556 35.8629 18.1169 35.7674 18.0025 35.6464C17.8881 35.5254 17.8007 35.3815 17.7459 35.2242C17.6912 35.067 17.6704 34.8999 17.6849 34.734C17.7033 33.9245 18.1514 33.4372 18.9953 33.4582C19.8025 33.4791 20.1432 33.9795 20.2218 34.6004Z" fill="white"/>
<path d="M46.3274 25.0798C46.3274 25.5592 46.3641 26.0386 46.3274 26.5128C46.2566 27.2464 45.8635 27.718 45.0799 27.7337C44.2334 27.7494 43.7826 27.2752 43.7407 26.4709C43.6935 25.6064 43.7093 24.7366 43.7407 23.8694C43.7591 23.0625 44.1889 22.5228 44.9987 22.5045C45.8793 22.4835 46.3091 23.0468 46.3484 23.9087C46.3641 24.2991 46.3484 24.6947 46.3484 25.0798H46.3274Z" fill="white"/>
<path d="M46.33 17.2254C46.33 17.6603 46.3614 18.0952 46.33 18.5353C46.2566 19.3475 45.7534 19.8453 44.9698 19.806C44.8051 19.8057 44.6422 19.7725 44.4905 19.7084C44.3388 19.6443 44.2014 19.5506 44.0865 19.4327C43.9715 19.3149 43.8812 19.1752 43.8209 19.022C43.7607 18.8688 43.7316 18.7052 43.7354 18.5406C43.6961 17.8044 43.7354 17.0656 43.7197 16.3268C43.7197 15.3968 44.1102 14.7942 45.093 14.8256C46.0102 14.8545 46.3562 15.4623 46.3431 16.3216C46.3431 16.6255 46.3431 16.9294 46.3431 17.2333L46.33 17.2254Z" fill="white"/>
<path d="M48.977 18.6009C48.9284 17.7774 48.9232 16.9519 48.9612 16.1278C48.9822 15.3078 49.4199 14.8179 50.2559 14.8179C51.0919 14.8179 51.5243 15.2947 51.5663 16.1278C51.5872 16.5182 51.5663 16.9137 51.5663 17.3015C51.5888 17.7378 51.5888 18.1751 51.5663 18.6114C51.5622 18.7758 51.5256 18.9377 51.4586 19.0878C51.3916 19.2379 51.2955 19.3733 51.1758 19.4861C51.0562 19.5989 50.9154 19.6868 50.7615 19.7449C50.6077 19.803 50.4438 19.83 50.2795 19.8244C50.1121 19.8359 49.9441 19.8128 49.7861 19.7564C49.6281 19.7001 49.4834 19.6117 49.3611 19.4969C49.2388 19.382 49.1416 19.2431 49.0755 19.089C49.0094 18.9348 48.9758 18.7687 48.977 18.6009Z" fill="white"/>
<path d="M51.5532 26.5496C51.4667 27.2832 51.0526 27.7338 50.269 27.7364C49.4854 27.739 49.032 27.2963 48.9769 26.5601C48.9271 25.6508 48.9271 24.7395 48.9769 23.8302C49.0084 23.0286 49.4565 22.5046 50.2716 22.502C51.0867 22.4993 51.5191 23.0259 51.582 23.8119C51.6134 24.2442 51.582 24.6791 51.582 25.1218C51.5998 25.5979 51.5902 26.0746 51.5532 26.5496Z" fill="white"/>
<path d="M53.1439 60.5317C53.0784 61.3517 52.549 61.7945 51.7549 61.7263C51.5904 61.7215 51.4286 61.6833 51.2793 61.6141C51.13 61.5448 50.9964 61.4458 50.8866 61.3233C50.7768 61.2008 50.693 61.0572 50.6405 60.9013C50.5879 60.7454 50.5676 60.5804 50.5808 60.4164C50.6149 59.6305 51.1233 59.1851 51.9462 59.1274C52.7063 59.282 53.2095 59.696 53.1439 60.5317Z" fill="white"/>
<path d="M15.4389 57.9956C15.4389 57.3852 15.4389 56.7721 15.4389 56.1617C15.4206 54.6762 15.1428 54.3671 13.6961 54.3278C12.3438 54.3016 10.9889 54.3278 9.63654 54.3278C8.57251 54.3278 8.00904 54.8072 8.04573 55.918C8.06932 56.6595 8.04573 57.4009 8.04573 58.1449C8.0169 61.8965 7.81772 61.7603 11.686 61.7629C15.7115 61.7682 15.473 61.9096 15.4389 57.9956ZM11.7332 59.1143C10.6848 59.4051 10.6979 58.7789 10.6534 57.993C10.6036 57.0865 10.9731 56.9922 11.7541 56.945C12.7526 56.8848 12.8234 57.3144 12.8444 58.1344C12.8706 59.0147 12.5718 59.3029 11.7332 59.1143Z" fill="white"/>
<path d="M15.4442 47.9695C15.4442 44.0633 15.722 44.1995 11.7201 44.2048C7.78892 44.2048 8.02479 44.0371 8.051 47.8725C8.051 51.7761 7.6605 51.6242 11.7673 51.6294C15.8216 51.6425 15.4311 51.7368 15.4442 47.9695ZM11.8433 49.0174C11.0413 48.9781 10.6167 48.9388 10.6429 47.9354C10.6665 47.0421 10.8631 46.746 11.783 46.801C12.5692 46.8482 13.1274 46.8718 12.7736 47.7809C12.9335 48.6349 12.8129 49.0698 11.8433 49.0227V49.0174Z" fill="white"/>
<path d="M26.1526 46.3765C26.1526 44.561 25.791 44.2178 23.925 44.2125H22.3525C18.88 44.2256 18.6336 43.6886 18.6389 47.9065C18.6389 52.0197 18.7699 51.6346 22.3237 51.6319C23.0208 51.6319 23.7153 51.6189 24.4203 51.6319C25.618 51.6581 26.1788 51.087 26.1605 49.8924C26.1421 48.6977 26.1552 47.5502 26.1526 46.3765ZM22.3813 49.0278C21.5584 49.0278 21.2544 48.8313 21.2727 47.9537C21.2911 47.076 21.4143 46.594 22.4049 46.8586C23.3379 46.6149 23.5423 47.021 23.5633 47.9065C23.5843 48.8706 23.2305 49.0304 22.3813 49.0278Z" fill="white"/>
<path d="M26.1422 55.8159C26.1264 54.8911 25.6364 54.3645 24.685 54.3461C23.8988 54.3304 23.1126 54.3461 22.3263 54.333C18.7568 54.333 18.6415 53.961 18.6337 58.0532C18.6337 62.245 18.8617 61.7524 22.3447 61.7551H24.5592C25.5708 61.7551 26.1055 61.2311 26.1317 60.246C26.1762 58.771 26.1684 57.2804 26.1422 55.8159ZM22.4731 59.0985C21.4248 59.3605 21.3173 58.8627 21.278 58.0165C21.2308 56.9948 21.7288 56.9686 22.5124 56.9372C23.4113 56.8952 23.5607 57.2489 23.5607 58.0454C23.5529 58.9047 23.4061 59.4129 22.4652 59.0985H22.4731Z" fill="white"/>
<path d="M46.3169 26.5128C46.2462 27.2464 45.853 27.718 45.0694 27.7337C44.2229 27.7494 43.7721 27.2752 43.7302 26.4709C43.683 25.6064 43.6988 24.7366 43.7302 23.8694C43.7486 23.0625 44.1784 22.5228 44.9882 22.5045C45.8688 22.4835 46.2986 23.0468 46.3379 23.9087C46.3536 24.2991 46.3379 24.6947 46.3379 25.0798C46.3274 25.5592 46.3641 26.0386 46.3169 26.5128Z" fill="white"/>
<path d="M51.5532 26.5496C51.4667 27.2832 51.0526 27.7338 50.269 27.7364C49.4854 27.739 49.032 27.2963 48.9769 26.5601C48.9271 25.6508 48.9271 24.7395 48.9769 23.8302C49.0084 23.0286 49.4565 22.5046 50.2716 22.502C51.0867 22.4993 51.5191 23.0259 51.582 23.8119C51.6134 24.2442 51.582 24.6791 51.582 25.1218C51.5998 25.5979 51.5902 26.0746 51.5532 26.5496Z" fill="white"/>
<path d="M46.3222 18.5275C46.2488 19.3397 45.7456 19.8374 44.962 19.7982C44.7973 19.7978 44.6343 19.7647 44.4827 19.7006C44.331 19.6365 44.1936 19.5428 44.0786 19.4249C43.9637 19.307 43.8734 19.1674 43.8131 19.0142C43.7528 18.861 43.7238 18.6973 43.7276 18.5328C43.6883 17.7966 43.7276 17.0578 43.7119 16.319C43.7119 15.3889 44.1024 14.7864 45.0852 14.8178C46.0024 14.8466 46.3484 15.4544 46.3353 16.3138C46.3353 16.6177 46.3353 16.9216 46.3353 17.2255C46.33 17.6604 46.3615 18.0952 46.3222 18.5275Z" fill="white"/>
<path d="M51.5558 18.5878C51.5517 18.7522 51.5151 18.9141 51.4481 19.0642C51.3811 19.2143 51.285 19.3497 51.1654 19.4625C51.0457 19.5753 50.9049 19.6632 50.751 19.7213C50.5972 19.7794 50.4334 19.8064 50.269 19.8008C50.1044 19.8108 49.9396 19.7872 49.7844 19.7316C49.6292 19.676 49.4869 19.5895 49.3661 19.4773C49.2453 19.3651 49.1485 19.2296 49.0816 19.079C49.0148 18.9284 48.9791 18.7657 48.977 18.6009C48.9284 17.7774 48.9232 16.9519 48.9612 16.1278C48.9822 15.3078 49.4199 14.8179 50.2559 14.8179C51.0919 14.8179 51.5243 15.2947 51.5663 16.1278C51.5872 16.5182 51.5663 16.9137 51.5663 17.3015C51.5845 17.7302 51.581 18.1595 51.5558 18.5878Z" fill="white"/>
<path d="M53.1439 60.5317C53.0784 61.3517 52.549 61.7945 51.7549 61.7263C51.5904 61.7215 51.4286 61.6833 51.2793 61.6141C51.13 61.5448 50.9964 61.4458 50.8866 61.3233C50.7768 61.2008 50.693 61.0572 50.6405 60.9013C50.5879 60.7454 50.5676 60.5804 50.5808 60.4164C50.6149 59.6305 51.1233 59.1851 51.9462 59.1274C52.7063 59.282 53.2095 59.696 53.1439 60.5317Z" fill="white"/>
<path d="M26.1526 46.3765C26.1526 44.561 25.791 44.2178 23.925 44.2125H22.3525C18.88 44.2256 18.6336 43.6886 18.6389 47.9065C18.6389 52.0197 18.7699 51.6346 22.3237 51.6319C23.0208 51.6319 23.7153 51.6189 24.4203 51.6319C25.618 51.6581 26.1788 51.087 26.1605 49.8924C26.1421 48.6977 26.1552 47.5502 26.1526 46.3765ZM22.3813 49.0278C21.5584 49.0278 21.2544 48.8313 21.2727 47.9537C21.2911 47.076 21.4143 46.594 22.4049 46.8586C23.3379 46.6149 23.5423 47.021 23.5633 47.9065C23.5843 48.8706 23.2305 49.0304 22.3813 49.0278Z" fill="white"/>
<path d="M26.1422 55.8159C26.1264 54.8911 25.6364 54.3645 24.685 54.3461C23.8988 54.3304 23.1126 54.3461 22.3263 54.333C18.7568 54.333 18.6415 53.961 18.6337 58.0532C18.6337 62.245 18.8617 61.7524 22.3447 61.7551H24.5592C25.5708 61.7551 26.1055 61.2311 26.1317 60.246C26.1762 58.771 26.1684 57.2804 26.1422 55.8159ZM22.4731 59.0985C21.4248 59.3605 21.3173 58.8627 21.278 58.0165C21.2308 56.9948 21.7288 56.9686 22.5124 56.9372C23.4113 56.8952 23.5607 57.2489 23.5607 58.0454C23.5529 58.9047 23.4061 59.4129 22.4652 59.0985H22.4731Z" fill="white"/>
<path d="M15.4442 47.9695C15.4442 44.0633 15.722 44.1995 11.7201 44.2048C7.78892 44.2048 8.02479 44.0371 8.051 47.8725C8.051 51.7761 7.6605 51.6242 11.7673 51.6294C15.8216 51.6425 15.4311 51.7368 15.4442 47.9695ZM11.8433 49.0174C11.0413 48.9781 10.6167 48.9388 10.6429 47.9354C10.6665 47.0421 10.8631 46.746 11.783 46.801C12.5692 46.8482 13.1274 46.8718 12.7736 47.7809C12.9335 48.6349 12.8129 49.0698 11.8433 49.0227V49.0174Z" fill="white"/>
<path d="M15.4389 57.9956C15.4389 57.3852 15.4389 56.7721 15.4389 56.1617C15.4206 54.6762 15.1428 54.3671 13.6961 54.3278C12.3438 54.3016 10.9889 54.3278 9.63654 54.3278C8.57251 54.3278 8.00904 54.8072 8.04573 55.918C8.06932 56.6595 8.04573 57.4009 8.04573 58.1449C8.0169 61.8965 7.81772 61.7603 11.686 61.7629C15.7115 61.7682 15.473 61.9096 15.4389 57.9956ZM11.7332 59.1143C10.6848 59.4051 10.6979 58.7789 10.6534 57.993C10.6036 57.0865 10.9731 56.9922 11.7541 56.945C12.7526 56.8848 12.8234 57.3144 12.8444 58.1344C12.8706 59.0147 12.5718 59.3029 11.7332 59.1143Z" fill="white"/>
</g>
<defs>
<clipPath id="clip0_263_158">
<rect width="67" height="67" fill="white"/>
</clipPath>
</defs>
</svg>
