 <svg
                width="44"
                height="44"
                viewBox="0 0 44 44"
                fill="none"
                xmlns="http://www.w3.org/2000/svg"
              >
                <path
                  fill-rule="evenodd"
                  clip-rule="evenodd"
                  d="M31.7313 12.2687C31.373 11.9104 30.7921 11.9104 30.4338 12.2687L22 20.7025L13.5662 12.2687C13.2079 11.9104 12.627 11.9104 12.2687 12.2687C11.9104 12.627 11.9104 13.2079 12.2687 13.5662L20.7025 22L12.2687 30.4338C11.9104 30.7921 11.9104 31.373 12.2687 31.7313C12.627 32.0896 13.2079 32.0896 13.5662 31.7313L22 23.2975L30.4338 31.7313C30.7921 32.0896 31.373 32.0896 31.7313 31.7313C32.0896 31.373 32.0896 30.7921 31.7313 30.4338L23.2975 22L31.7313 13.5662C32.0896 13.2079 32.0896 12.627 31.7313 12.2687Z"
                  fill="#D9E1EC"
                ></path>
              </svg>