<svg width="49" height="42" viewBox="0 0 49 42" fill="none" xmlns="http://www.w3.org/2000/svg">
<g clip-path="url(#clip0_903_1281)">
<path d="M46.6079 24.8988C42.1994 27.1784 37.4816 27.6272 32.6639 27.5467C32.5312 27.5493 32.3993 27.5255 32.2758 27.4769C32.1523 27.4284 32.0397 27.3559 31.9445 27.2636C31.8493 27.1714 31.7734 27.0613 31.7212 26.9396C31.6689 26.818 31.6414 26.6873 31.6401 26.5549C31.641 26.4186 31.6689 26.2837 31.7222 26.1581C31.7755 26.0324 31.8531 25.9185 31.9506 25.8228C32.0481 25.7271 32.1636 25.6516 32.2905 25.6005C32.4173 25.5494 32.5531 25.5237 32.6899 25.525C34.0887 25.4827 35.4929 25.514 36.8849 25.3994C39.8029 25.1607 42.673 24.6819 45.2899 23.2617C45.7083 23.0327 46.0933 22.7476 46.4341 22.4145C47.0418 21.8211 47.1006 20.5565 46.6175 19.8962C45.6923 20.2864 44.7903 20.7256 43.8473 21.053C41.4343 21.8934 38.9201 22.2918 36.3826 22.4323C35.003 22.5087 33.6192 22.5155 32.2369 22.5141C31.313 22.5141 30.8148 22.1049 30.8367 21.4514C30.8586 20.7979 31.3842 20.4569 32.2985 20.4828C35.9665 20.5851 39.5935 20.3218 43.111 19.1745C44.2648 18.7994 45.3912 18.3451 46.3054 17.5115C47.0322 16.8499 47.1581 15.5907 46.5792 14.7913C45.0148 15.7053 43.3094 16.2728 41.5438 16.6671C38.5766 17.3262 35.5355 17.5945 32.4983 17.4652C31.4253 17.4215 30.3536 17.3287 29.2833 17.2332C28.5812 17.1732 28.1883 16.7244 28.2527 16.0996C28.3129 15.5239 28.8001 15.1828 29.4708 15.206C31.6347 15.2797 33.8026 15.4434 35.9624 15.3738C38.9201 15.2769 41.8326 14.7954 44.5577 13.5539C45.1675 13.2531 45.746 12.893 46.2849 12.4789C46.5017 12.3244 46.6734 12.1153 46.7826 11.873C46.8918 11.6307 46.9345 11.3638 46.9063 11.0997C46.8734 10.6154 46.9063 10.127 46.9063 9.56087C45.305 10.5608 43.6215 11.142 41.8805 11.554C38.3316 12.3916 34.7333 12.5949 31.1036 12.3548C28.473 12.1815 25.8835 11.7818 23.3994 10.8787C22.4605 10.5363 21.5667 10.0738 20.6169 9.65091C20.5686 9.76189 20.5128 9.86946 20.4499 9.97286C20.3451 10.1511 20.1841 10.2898 19.992 10.3672C19.7999 10.4447 19.5874 10.4567 19.3878 10.4012C18.943 10.2989 18.635 10.0152 18.6268 9.55814C18.6063 8.33035 18.5762 7.10255 18.6569 5.8843C18.7103 5.09579 19.2044 4.47097 19.7847 3.9362C20.9864 2.81754 22.4591 2.19546 23.9961 1.71252C27.2152 0.700274 30.5288 0.348305 33.8889 0.357855C37.0587 0.364676 40.1848 0.703001 43.2328 1.61293C44.6767 2.04266 46.0632 2.60336 47.2745 3.52284C48.3831 4.37002 49.0113 5.43275 48.9566 6.88428C48.9018 8.3358 48.9347 9.77778 48.9484 11.2252C48.9582 11.926 48.758 12.6138 48.3735 13.2006C48.3349 13.2742 48.313 13.3554 48.3095 13.4384C48.3059 13.5214 48.3208 13.6042 48.353 13.6808C49.2194 15.2592 49.2426 16.8185 48.2777 18.3601C48.25 18.4154 48.2258 18.4723 48.2052 18.5306C49.103 19.6438 49.0756 20.9466 48.8224 22.2563C48.7362 22.7051 48.275 23.1103 48.275 23.5359C48.275 23.9616 48.7403 24.3695 48.8224 24.8183C49.0524 26.0352 49.1112 27.2534 48.3516 28.3571C48.3183 28.4334 48.3033 28.5166 48.3081 28.5997C48.3129 28.6829 48.3371 28.7638 48.379 28.8359C49.3179 30.211 49.2536 33.0254 47.4373 34.3624C45.7949 35.5724 43.9431 36.2627 41.9955 36.7225C38.0836 37.6359 34.0455 37.8882 30.0497 37.4687C29.7778 37.456 29.5071 37.4245 29.2395 37.3746C28.9909 37.3233 28.7712 37.1798 28.6248 36.9731C28.4784 36.7663 28.4163 36.5119 28.4511 36.2613C28.4859 36.0106 28.615 35.7825 28.8122 35.6232C29.0094 35.4639 29.26 35.3853 29.5132 35.4033C31.1159 35.4687 32.7186 35.6229 34.32 35.6052C37.6048 35.5683 40.8623 35.2136 43.9418 33.9681C44.8038 33.6091 45.6132 33.1355 46.3479 32.5602C47.0924 31.9886 47.1513 30.6394 46.5792 29.9109C44.57 31.0773 42.3623 31.6844 40.0876 32.0732C37.4475 32.5402 34.7625 32.7045 32.085 32.563C31.4006 32.5248 31.001 32.1073 31.0297 31.5057C31.0557 30.9259 31.5142 30.5385 32.1876 30.5344C33.4331 30.5248 34.6813 30.5657 35.9241 30.503C38.7285 30.3666 41.4959 29.9655 44.1005 28.8659C44.9242 28.5057 45.6961 28.0378 46.3958 27.4744C47.0705 26.9383 47.1171 25.6614 46.6079 24.8988ZM33.7424 2.38918C30.5356 2.38918 27.374 2.70977 24.3177 3.74112C23.1516 4.13401 22.0074 4.58829 21.1096 5.47367C20.4622 6.11213 20.4252 6.75604 21.1315 7.31264C21.861 7.89365 22.6652 8.37492 23.5225 8.74371C25.9862 9.77096 28.5976 10.1598 31.2473 10.3235C34.9427 10.554 38.6135 10.3589 42.2063 9.36852C43.6078 8.98244 44.9751 8.49951 46.1316 7.58003C47.1404 6.7765 47.1636 5.96752 46.1152 5.21993C45.3949 4.70655 44.6133 4.2845 43.7885 3.96348C40.5584 2.72205 37.1778 2.40691 33.7411 2.3919L33.7424 2.38918Z" fill="white"/>
<path d="M15.5528 41.6746C11.5314 41.6684 7.67644 40.0733 4.833 37.2389C1.98956 34.4044 0.389581 30.5619 0.383789 26.5536C0.383789 18.2318 7.21346 11.4285 15.5678 11.4271C23.9222 11.4258 30.7355 18.2332 30.7218 26.5699C30.7196 30.5779 29.1203 34.4208 26.2756 37.2534C23.4309 40.0861 19.5738 41.6764 15.5528 41.6746ZM15.5145 39.6364C18.9252 39.543 22.1657 38.1307 24.5505 35.6984C26.9353 33.2661 28.2772 30.0045 28.2925 26.6036C28.3078 23.2027 26.9952 19.9292 24.6324 17.4757C22.2696 15.0222 19.0419 13.581 15.6322 13.4571C8.45759 13.4011 2.45459 19.2946 2.42174 26.4172C2.4055 28.1434 2.73182 29.8559 3.38194 31.456C4.03206 33.0561 4.99314 34.5123 6.20993 35.7408C7.42671 36.9694 8.87516 37.946 10.472 38.6145C12.0688 39.2831 13.7825 39.6304 15.5145 39.6364Z" fill="white"/>
<path d="M14.2868 24.8387C13.941 25.185 13.5278 25.4571 13.0726 25.6382C12.6173 25.8193 12.1297 25.9057 11.6398 25.8919C11.1485 25.9046 10.6598 25.8178 10.2031 25.6368C9.74651 25.4557 9.33148 25.1842 8.98317 24.8387C8.29975 24.1565 7.91589 23.2319 7.91589 22.2678C7.91589 21.3038 8.29975 20.3791 8.98317 19.697C9.33121 19.3509 9.74613 19.0788 10.2028 18.8973C10.6594 18.7158 11.1483 18.6286 11.6398 18.6411C12.7009 18.6411 13.5833 18.988 14.2868 19.682C14.9626 20.3703 15.3411 21.2951 15.3411 22.2583C15.3411 23.2214 14.9626 24.1463 14.2868 24.8346V24.8387ZM9.25691 32.4592L19.7314 20.8415L20.9632 21.5427L10.4887 33.1836L9.25691 32.4592ZM11.6206 23.8988C11.8401 23.9071 12.0588 23.869 12.2624 23.7869C12.466 23.7049 12.6498 23.5807 12.8018 23.4226C12.9502 23.2697 13.0667 23.0889 13.1447 22.8908C13.2227 22.6928 13.2606 22.4813 13.2562 22.2685C13.2619 22.0519 13.2247 21.8363 13.1467 21.6341C13.0687 21.4318 12.9515 21.2469 12.8018 21.0898C12.6496 20.9322 12.4657 20.8084 12.2621 20.7266C12.0585 20.6448 11.8399 20.6068 11.6206 20.6151C11.4047 20.6084 11.1899 20.6473 10.9901 20.7291C10.7903 20.8109 10.6102 20.9338 10.4613 21.0898C10.3116 21.2469 10.1944 21.4318 10.1164 21.6341C10.0384 21.8363 10.0012 22.0519 10.0069 22.2685C10.0025 22.4813 10.0404 22.6928 10.1184 22.8908C10.1964 23.0889 10.3129 23.2697 10.4613 23.4226C10.6096 23.5787 10.7892 23.7019 10.9885 23.7839C11.1879 23.866 11.4023 23.9051 11.6179 23.8988H11.6206ZM18.9129 35.0635C18.4214 35.0764 17.9324 34.9897 17.4755 34.8087C17.0186 34.6276 16.6034 34.356 16.2549 34.0103C15.5715 33.3282 15.1876 32.4035 15.1876 31.4395C15.1876 30.4754 15.5715 29.5508 16.2549 28.8686C16.9697 28.1932 17.917 27.8167 18.9019 27.8167C19.8868 27.8167 20.8342 28.1932 21.5489 28.8686C22.2324 29.5508 22.6162 30.4754 22.6162 31.4395C22.6162 32.4035 22.2324 33.3282 21.5489 34.0103C21.2037 34.355 20.7918 34.6262 20.3381 34.8072C19.8845 34.9883 19.3987 35.0755 18.9101 35.0635H18.9129ZM18.891 33.0704C19.1104 33.0784 19.329 33.0402 19.5326 32.9581C19.7361 32.8761 19.92 32.7521 20.0721 32.5943C20.2206 32.4411 20.3371 32.2601 20.4151 32.0618C20.4931 31.8635 20.531 31.6517 20.5265 31.4388C20.5322 31.2224 20.4949 31.0071 20.4169 30.805C20.339 30.603 20.2218 30.4183 20.0721 30.2615C19.9199 30.1038 19.736 29.9801 19.5325 29.8983C19.3289 29.8164 19.1103 29.7784 18.891 29.7867C18.6751 29.7801 18.4603 29.8189 18.2605 29.9007C18.0607 29.9825 17.8805 30.1055 17.7317 30.2615C17.5821 30.4183 17.4649 30.603 17.3869 30.805C17.309 31.0071 17.2717 31.2224 17.2773 31.4388C17.2729 31.6517 17.3108 31.8635 17.3887 32.0618C17.4667 32.2601 17.5833 32.4411 17.7317 32.5943C17.8802 32.7501 18.0599 32.873 18.2591 32.9551C18.4584 33.0371 18.6727 33.0764 18.8882 33.0704H18.891Z" fill="white"/>
</g>
<defs>
<clipPath id="clip0_903_1281">
<rect width="48.6111" height="41.3194" fill="white" transform="translate(0.383789 0.356445)"/>
</clipPath>
</defs>
</svg>
