<svg width="67" height="43" viewBox="0 0 67 43" fill="none" xmlns="http://www.w3.org/2000/svg">
<g clip-path="url(#clip0_903_1299)">
<path d="M0.0926514 20.5251C0.608189 19.0224 1.13748 17.5266 1.63068 16.017C3.05184 11.6837 4.45067 7.34177 5.87011 3.00844C6.4836 1.13392 8.0371 0.344031 9.91194 0.940313C12.0291 1.61427 14.1434 2.29622 16.2548 2.98617C18.1983 3.62015 18.9751 5.15369 18.3565 7.09846C18.2671 7.38289 18.1846 7.66562 18.0678 8.02373C19.2707 8.36642 20.4049 8.66113 21.5734 7.9312C23.1475 6.94596 24.8385 6.28114 26.7288 6.10808C28.241 5.96929 29.5866 6.52616 30.9665 6.9648C31.3205 7.04985 31.6615 7.18183 31.9804 7.35719C32.9823 8.01002 33.9394 7.88151 34.974 7.40003C38.0672 5.9573 41.0573 6.4525 43.8309 8.20193C45.283 9.11863 46.6131 8.85819 48.0944 8.37328C47.938 7.87809 47.7885 7.41545 47.6459 6.95282C47.0994 5.18282 47.8762 3.63213 49.6445 3.04442C51.8544 2.31106 54.0701 1.596 56.2915 0.899192C57.991 0.368021 59.5892 1.16477 60.1391 2.84396C62.0386 8.63544 63.9226 14.4321 65.7911 20.2338C66.3565 21.9867 65.5368 23.5459 63.765 24.1336C61.5774 24.8618 59.3795 25.5661 57.1833 26.272C56.2365 26.577 55.3274 26.4656 54.3823 25.8865C54.4665 27.3583 54.0093 28.5423 52.9405 29.4608C51.8716 30.3792 50.6137 30.5505 49.2836 30.3655C48.6151 33.6313 47.0891 34.9284 44.2829 34.6611C43.6951 37.9663 42.6142 38.9824 39.4712 39.1315C39.4299 39.3165 39.3784 39.517 39.344 39.7192C39.258 40.2811 39.0397 40.8146 38.7071 41.2762C38.3745 41.7377 37.9369 42.1141 37.4302 42.3746C36.9236 42.635 36.3623 42.7721 35.7922 42.7745C35.2222 42.777 34.6597 42.6448 34.1508 42.3888C33.2916 41.9741 32.4495 41.5012 31.6023 41.0557C29.9646 43.6036 26.9848 43.2832 25.653 41.2048C24.6632 42.0187 23.5617 42.4693 22.2453 42.2071C20.929 41.945 20.0337 41.1602 19.4253 39.9403C18.0884 40.9495 16.6517 41.2528 15.1446 40.48C13.6376 39.7072 12.9983 38.405 13.0687 36.7104C12.1184 36.6573 11.2798 36.3883 10.577 35.7783C9.87996 35.1952 9.42068 34.3782 9.28554 33.481C9.15041 32.5839 9.34873 31.6684 9.84319 30.9069C10.4395 29.9491 11.0908 29.0221 11.7026 28.1071C11.3297 27.5931 10.998 27.103 10.6199 26.6473C10.5117 26.5153 10.2763 26.4639 10.0872 26.4262C9.60949 26.332 9.1077 26.3234 8.64543 26.1812C6.75513 25.5952 4.87685 24.9184 2.97451 24.3786C1.59974 23.9931 0.578974 23.306 0.101242 21.9284L0.0926514 20.5251ZM17.358 10.193C16.3785 13.2035 15.3766 16.3049 14.3628 19.4028C13.7733 21.2053 13.2062 23.0165 12.5412 24.7916C12.3693 25.2542 12.3143 25.5764 12.634 25.931C13.0361 26.38 13.3437 26.9883 14.0947 26.9009C15.0164 26.7741 15.9524 26.9951 16.7191 27.5206C17.4859 28.0462 18.0281 28.8383 18.2396 29.7418C18.3209 30.1677 18.3783 30.5979 18.4114 31.0303C20.0216 31.1365 21.2039 31.9247 21.9257 33.4103C22.9963 32.5827 24.1253 32.2537 25.4056 32.5672C26.6858 32.8808 27.533 33.7461 28.0778 34.9078C29.4921 34.2447 30.8136 34.2481 31.9684 35.2694C33.228 36.3814 33.3947 37.7727 32.7382 39.3183C33.5648 39.7449 34.3399 40.1973 35.1596 40.5571C36.2439 41.0317 37.3403 40.2401 37.2956 39.0647C37.2698 38.417 36.9124 38.0023 36.3659 37.7128C35.2901 37.1405 34.211 36.575 33.1369 35.9993C32.7022 35.7663 32.3877 35.3653 32.5613 34.9061C32.7299 34.5344 33.026 34.2348 33.3964 34.0614C33.6147 33.9586 34.0151 34.1316 34.2866 34.2721C35.8641 35.086 37.4211 35.9393 38.9986 36.7532C40.3734 37.4609 41.8203 36.7669 42.1056 35.2968C42.2774 34.4572 41.8358 33.597 40.9679 33.1207C39.8441 32.5021 38.6961 31.9213 37.5757 31.301C37.4531 31.2436 37.3438 31.1613 37.255 31.0594C37.1661 30.9575 37.0995 30.8382 37.0596 30.7092C37.0196 30.5801 37.0071 30.4442 37.0229 30.3101C37.0387 30.1759 37.0824 30.0466 37.1513 29.9302C37.4211 29.4162 37.9521 29.2449 38.526 29.483C38.6824 29.5481 38.8319 29.6338 38.9831 29.7143C40.6088 30.5711 42.2362 31.4278 43.855 32.3034C44.453 32.6255 45.0699 32.7386 45.7092 32.5158C46.0828 32.406 46.4135 32.1844 46.6566 31.881C46.8998 31.5776 47.0435 31.2071 47.0685 30.8195C47.1647 29.896 46.7987 29.1866 45.9824 28.7428C44.6077 27.9975 43.2329 27.2778 41.8478 26.5462C41.413 26.3149 40.9697 26.1007 40.5469 25.8488C40.0039 25.5232 39.8372 24.9835 40.0915 24.478C40.3631 23.9452 40.9267 23.7567 41.5093 24.0154C41.7035 24.1011 41.8873 24.2124 42.0764 24.3118C44.4392 25.5644 46.7953 26.8272 49.1633 28.066C50.4246 28.724 51.7994 28.2082 52.2101 26.9591C52.4954 26.0904 52.119 25.1377 51.1361 24.4301C47.2747 21.6594 43.183 19.3274 38.5638 18.0406C38.2048 17.9394 37.8247 17.9394 37.4657 18.0406C34.2127 19.0892 30.9717 20.1738 27.7238 21.2379C25.9125 21.8325 24.4914 21.4743 23.3228 19.9665C22.6921 19.1492 22.2453 18.1828 21.7762 17.2558C21.67 17.0528 21.6372 16.8195 21.6832 16.5951C21.7292 16.3708 21.8512 16.1691 22.0288 16.0238C23.505 14.6531 24.9193 13.2224 26.4831 11.9681C27.8097 10.904 29.3082 10.0542 30.7414 9.1015C29.2996 8.58746 27.82 7.82155 26.2167 8.28589C24.9364 8.65429 23.7335 9.28312 22.4911 9.78174C21.924 10.0096 21.35 10.354 20.7726 10.3746C19.6642 10.4294 18.5627 10.2701 17.358 10.193ZM52.815 22.8999C51.4867 18.8082 50.1205 14.6068 48.7715 10.4551C48.6667 10.4191 48.6443 10.4037 48.6271 10.4072C48.4415 10.4586 48.2577 10.5134 48.0738 10.5631C46.2402 11.06 44.5114 11.1285 42.7895 10.0079C40.6896 8.63714 38.4367 8.29446 35.9466 9.20773C31.5336 10.8407 27.6361 13.2069 24.3607 16.5756C24.1992 16.7469 24.0016 17.0176 24.0377 17.1993C24.3814 18.8853 25.806 19.6821 27.442 19.1441C30.7276 18.0629 34.0134 16.9748 37.3076 15.9142C37.6877 15.7846 38.0962 15.7621 38.4882 15.8491C40.9628 16.5345 43.3996 17.3638 45.6439 18.6214C48.0824 19.9939 50.4521 21.4846 52.815 22.8999ZM9.82257 24.3821C10.4825 24.3495 10.711 23.94 10.8726 23.4431C12.7056 17.7898 14.5386 12.1354 16.3716 6.4799C16.6552 5.60262 16.4593 5.23594 15.5571 4.9378C13.4663 4.25241 11.3726 3.57902 9.2761 2.91763C8.46843 2.66061 8.08521 2.85938 7.81885 3.6767C5.9675 9.36879 4.11958 15.0626 2.2751 20.7581C2.01561 21.5566 2.22011 21.9301 3.04668 22.1991C5.13633 22.8845 7.22828 23.563 9.32251 24.2347C9.50466 24.305 9.69197 24.3461 9.82257 24.3821ZM57.1593 2.81482C57.0544 2.84224 56.8689 2.8885 56.6884 2.94676C54.616 3.61729 52.5447 4.28897 50.4745 4.96179C49.5757 5.25479 49.3884 5.60947 49.6754 6.5039C51.5084 12.1572 53.3414 17.8116 55.1745 23.4671C55.4632 24.3512 55.8412 24.5397 56.7211 24.2553C58.7557 23.6042 60.7881 22.9491 62.8182 22.29C63.8647 21.9473 64.0211 21.6251 63.6911 20.5765C62.5948 17.193 61.4978 13.8089 60.4003 10.4243C59.6768 8.19679 58.9465 5.9693 58.2265 3.74181C58.0769 3.23462 57.857 2.8251 57.1593 2.81482ZM20.0715 35.1391C20.0835 34.1436 19.6745 33.5165 19.0266 33.2543C18.3788 32.9922 17.578 33.1224 17.1535 33.6844C16.4844 34.5681 15.8665 35.4891 15.3027 36.4431C14.935 37.0685 15.1309 37.8138 15.6464 38.3279C16.162 38.8419 16.9611 39.0561 17.5367 38.6552C18.8479 37.723 19.4992 36.3146 20.0715 35.1391ZM23.0358 40.336C23.4534 40.079 23.9775 39.9077 24.268 39.5496C24.8889 38.7626 25.4534 37.933 25.9572 37.0668C26.1848 36.6959 26.2601 36.2518 26.1674 35.8269C26.0747 35.4021 25.8211 35.0293 25.4595 34.7863C25.0979 34.5433 24.6562 34.4488 24.2264 34.5225C23.7967 34.5962 23.412 34.8325 23.1527 35.182C22.5456 35.9801 21.9861 36.8131 21.4772 37.6768C20.819 38.8214 21.6439 40.1835 23.0358 40.336ZM14.4693 28.8268C14.0655 29.0718 13.5551 29.2312 13.2784 29.5773C12.6492 30.3844 12.0751 31.2327 11.5599 32.1166C11.3528 32.4831 11.2908 32.9136 11.3862 33.3234C11.4816 33.7332 11.7276 34.0924 12.0755 34.3304C12.4184 34.5795 12.845 34.6858 13.2651 34.627C13.6852 34.5681 14.0659 34.3487 14.3267 34.0151C14.969 33.1903 15.5518 32.3211 16.0709 31.4141C16.7153 30.2644 15.8561 28.9467 14.4693 28.8268ZM31.0043 37.8841C31.0043 37.1764 30.7259 36.7892 30.2173 36.611C29.9774 36.5107 29.7099 36.4968 29.4608 36.5719C29.2118 36.6469 28.9968 36.8062 28.8528 37.0222C28.4026 37.6408 27.9712 38.2748 27.5657 38.9242C27.1756 39.5479 27.3268 40.2333 27.8922 40.6085C28.4576 40.9837 29.1501 40.8415 29.578 40.2487C30.0059 39.6558 30.4063 39.063 30.7912 38.4512C30.8866 38.2722 30.9582 38.0815 31.0043 37.8841Z" fill="white"/>
<path d="M13.5854 7.08349C13.5846 7.22393 13.5548 7.3627 13.4979 7.49116C13.441 7.61962 13.3581 7.735 13.2545 7.83013C13.1508 7.92526 13.0287 7.99809 12.8956 8.04408C12.7625 8.09008 12.6213 8.10824 12.4809 8.09745C12.3457 8.09533 12.2124 8.06597 12.0889 8.01108C11.9654 7.9562 11.8544 7.87695 11.7625 7.77812C11.6705 7.6793 11.5997 7.56293 11.5541 7.43605C11.5085 7.30916 11.4891 7.1744 11.4971 7.03986C11.4976 6.76765 11.6058 6.50661 11.7982 6.31347C11.9906 6.12034 12.2516 6.01072 12.5246 6.00842C12.6654 6.00864 12.8046 6.03672 12.9344 6.09104C13.0641 6.14536 13.1817 6.22484 13.2804 6.32485C13.3791 6.42487 13.4569 6.54343 13.5092 6.67366C13.5616 6.80389 13.5875 6.9432 13.5854 7.08349Z" fill="white"/>
<path d="M53.1291 7.95602C52.857 7.96164 52.5937 7.85959 52.3969 7.67218C52.2001 7.48478 52.0857 7.22727 52.0788 6.95601C52.0737 6.8153 52.097 6.67499 52.1474 6.54348C52.1979 6.41197 52.2744 6.29196 52.3725 6.19062C52.4705 6.08928 52.5881 6.00871 52.7181 5.9537C52.8481 5.89869 52.9879 5.87039 53.1291 5.87048C53.4138 5.87095 53.6867 5.98404 53.8879 6.18495C54.0891 6.38586 54.2021 6.65814 54.2021 6.94203C54.1911 7.21717 54.0729 7.47718 53.8724 7.6666C53.672 7.85602 53.4052 7.95987 53.1291 7.95602Z" fill="white"/>
</g>
<defs>
<clipPath id="clip0_903_1299">
<rect width="66.3152" height="42.1296" fill="white" transform="translate(0.0926514 0.736084)"/>
</clipPath>
</defs>
</svg>
