<svg width="296" height="152" viewBox="0 0 296 152" fill="none" xmlns="http://www.w3.org/2000/svg">
<path fill-rule="evenodd" clip-rule="evenodd" d="M267.8 91.4829C267.165 87.8628 265.325 85.6513 261.826 85.0457C259.769 84.6868 257.656 84.882 255.697 85.6118C251.925 86.9336 248.472 89.0549 245.568 91.8351C242.664 94.6152 240.375 97.9907 238.852 101.738C238.603 102.327 238.285 102.884 237.906 103.396C235.962 106.029 234.083 108.662 231.997 111.058C230.376 112.832 228.645 114.498 226.814 116.047C226.144 116.473 225.42 116.805 224.663 117.034C224.673 116.641 224.716 116.249 224.793 115.863C225.648 113.362 226.373 110.808 227.384 108.399C230.881 100.817 235.062 93.5804 239.875 86.7834C240.135 86.4148 240.381 86.0199 240.666 85.5855C240.005 85.5065 239.461 85.4538 238.93 85.3748C237.225 85.0231 235.458 85.1498 233.819 85.7412C232.18 86.3326 230.73 87.3664 229.626 88.7317C229.328 89.1003 228.991 89.4162 228.68 89.7716C226.113 92.7408 223.859 95.9748 221.955 99.4209C220.728 101.567 219.12 103.464 217.212 105.016C216.431 105.621 215.599 106.154 214.724 106.609C214.385 106.787 214.004 106.868 213.623 106.842C213.241 106.816 212.874 106.686 212.56 106.464C211.501 105.629 210.74 104.463 210.396 103.146C210.396 103.015 210.396 102.804 210.5 102.646C213.092 96.8013 216.214 91.246 220.957 86.8492C221.346 86.4938 221.709 86.0725 222.084 85.6776C220.322 85.6776 218.625 85.6776 216.901 85.6776C215.382 85.6861 213.885 86.0589 212.535 86.7658C211.184 87.4726 210.016 88.4935 209.127 89.7453C206.988 92.4267 205.142 95.3353 203.619 98.4205C202.188 101.345 200.417 104.085 198.346 106.582C197.166 108.043 196.143 109.636 194.886 111.018C193.344 112.73 191.672 114.336 189.975 115.889C189.226 116.392 188.421 116.802 187.578 117.113C187.57 116.698 187.605 116.284 187.681 115.876C188.705 113.006 189.573 110.058 190.817 107.293C194.285 99.9917 198.378 93.0143 203.049 86.4411C203.232 86.1694 203.401 85.8882 203.555 85.5986C202.946 85.5328 202.44 85.4933 201.922 85.4143C200.206 85.0428 198.422 85.1596 196.766 85.7519C195.111 86.3441 193.649 87.3889 192.541 88.7711C192.268 89.1134 191.944 89.4162 191.659 89.7453C188.783 93.1859 186.257 96.9127 184.118 100.869C182.227 104.556 179.969 108.036 177.38 111.255C175.819 112.951 174.153 114.542 172.391 116.021C172.058 116.337 171.659 116.572 171.223 116.709C170.788 116.845 170.328 116.88 169.877 116.811C169.899 116.247 169.977 115.687 170.111 115.139C170.823 113.006 171.471 110.821 172.391 108.767C175.614 102.087 179.659 95.8502 184.429 90.206C185.44 88.8896 186.489 87.5732 187.63 86.2568C186.178 86.1515 184.908 86.0199 183.638 85.9935C181.181 85.8883 178.773 86.7087 176.874 88.2973C171.49 92.8308 167.267 98.6212 164.565 105.174C163.34 107.801 162.86 110.723 163.178 113.612C163.238 114.69 163.52 115.743 164.004 116.704C164.488 117.665 165.165 118.513 165.99 119.193C167.109 120.083 168.464 120.614 169.881 120.717C171.298 120.82 172.714 120.491 173.946 119.773C176.23 118.475 178.277 116.787 179.997 114.783L180.943 113.77C181.034 114.152 181.086 114.336 181.125 114.533C182.265 119.799 188.498 122.603 192.787 119.18C194.264 118.009 195.637 116.679 197.024 115.389C197.244 115.192 197.309 114.823 197.452 114.533L197.775 114.849C197.729 115.897 197.918 116.943 198.329 117.905C198.74 118.868 199.362 119.723 200.147 120.404C200.632 120.817 201.197 121.122 201.805 121.3C202.401 121.523 202.764 121.3 203.023 120.602C204.138 117.846 205.3 115.117 206.509 112.414C207.105 111.097 207.805 109.781 208.518 108.465C211.925 111.005 213.169 111.163 218.171 109.676C218.087 111.114 218.087 112.556 218.171 113.994C218.793 119.654 225.402 122.471 229.548 119.351C230.919 118.33 232.218 117.212 233.435 116.008C234.848 114.691 236.118 113.085 237.323 111.743C238.015 113.471 238.811 115.155 239.707 116.784C240.48 118.061 241.578 119.102 242.884 119.797C244.191 120.492 245.659 120.816 247.132 120.734C249.914 120.62 252.559 119.478 254.57 117.522C259.722 112.761 263.749 106.88 266.348 100.316C267.687 97.5842 268.192 94.5084 267.8 91.4829ZM261.761 96.5775C258.959 102.67 255.368 108.354 251.084 113.48C249.993 114.658 248.791 115.725 247.495 116.666C246.834 117.192 245.81 117.653 245.188 117.008C244.927 116.687 244.738 116.313 244.632 115.911C244.527 115.509 244.509 115.088 244.579 114.678C244.992 112.575 245.613 110.52 246.432 108.544C248.838 103.13 251.954 98.0731 255.697 93.5102C256.924 92.0952 258.282 90.8035 259.753 89.6532C260.473 89.1659 261.271 88.8095 262.111 88.6C262.824 88.3499 263.407 88.6 263.407 89.4425C263.407 89.798 263.498 90.1402 263.524 90.3772C263.336 92.5403 262.738 94.646 261.761 96.5775ZM96.1343 55.4265C101.136 52.5172 106.28 51.9248 111.567 54.3733L110.556 55.1764C103.292 61.4181 96.8113 68.5453 91.2621 76.3969C84.7604 85.1879 79.46 94.8326 75.5054 105.068C74.3153 107.669 73.7132 110.507 73.7431 113.375C73.759 114.375 73.9818 115.361 74.397 116.268C74.8122 117.175 75.4106 117.984 76.1533 118.641C76.439 118.943 76.7916 119.171 77.1816 119.307C77.5717 119.443 77.9881 119.482 78.3961 119.421C78.8042 119.361 79.1921 119.202 79.5277 118.959C79.8633 118.715 80.1369 118.394 80.3257 118.022C80.7782 117.339 81.1522 116.606 81.4401 115.837C82.2435 113.664 82.9302 111.44 83.7595 109.254C86.9062 101.43 90.7082 93.8945 95.1235 86.7307C100.136 77.9642 105.889 69.657 112.319 61.9032C115.599 57.8354 119.48 54.3093 123.825 51.4509C127.985 48.8181 132.39 47.7386 137.185 49.45C137.349 49.5039 137.518 49.5393 137.69 49.5553C138.727 49.6211 139.154 49.0156 138.753 48.0546C138.513 47.5206 138.154 47.0508 137.704 46.6828C137.254 46.3148 136.726 46.0588 136.161 45.9351C131.761 44.5435 126.998 44.9692 122.905 47.1199L117.865 49.8449L114.573 52.0696C109.496 49.5033 103.752 48.6238 98.1557 49.5553C91.7675 50.5162 86.4936 53.7547 81.8806 58.1515C76.325 63.6389 71.3919 69.7411 67.1735 76.3442C63.2861 82.2023 59.5154 88.1919 55.5114 93.9841C52.0114 99.2083 47.7717 103.879 42.9294 107.846C35.8674 113.414 28.0797 115.547 19.3332 112.796C16.0974 111.899 13.1397 110.181 10.7389 107.801C8.33808 105.422 6.57326 102.461 5.61084 99.1971C3.4728 92.6151 4.52239 86.2305 7.4379 80.096C9.79023 75.3632 12.85 71.029 16.5084 67.2478C16.984 66.8053 17.3017 66.2152 17.4119 65.5697C17.5221 64.9241 17.4185 64.2597 17.1174 63.6804C16.7827 62.9454 16.3463 62.2627 15.8216 61.6531C15.5468 61.2644 15.1849 60.9478 14.7658 60.7294C14.3467 60.511 13.8825 60.3971 13.4115 60.3971C12.9404 60.3971 12.4762 60.511 12.0571 60.7294C11.638 60.9478 11.2761 61.2644 11.0013 61.6531C9.70552 63.1275 8.40974 64.6282 7.29536 66.221C1.10152 74.8304 -1.38638 84.3085 0.816448 94.8924C1.76562 99.9851 4.03327 104.729 7.38607 108.636C11.0462 112.626 15.7611 115.46 20.9659 116.798C28.002 118.933 35.5427 118.585 42.3593 115.81C47.8121 113.493 52.7647 110.112 56.9368 105.858C62.3613 100.341 67.0766 94.1487 70.9701 87.4284C75.5469 79.694 80.5479 72.227 85.9494 65.0626C88.694 61.2072 92.1538 57.9338 96.1343 55.4265ZM168.167 86.3095C164.798 85.7961 161.688 85.9146 159.718 89.4952C158.345 85.4538 155.39 84.8483 152.514 85.0457C151.411 85.0987 150.321 85.307 149.274 85.6644C141.57 88.2884 135.103 93.732 131.133 100.935C128.309 105.885 125.095 108.451 122.814 111.163C121.329 112.853 119.722 114.428 118.007 115.876C117.305 116.351 116.548 116.736 115.752 117.021C115.709 116.822 115.683 116.62 115.675 116.416C115.672 116.21 115.703 116.006 115.765 115.81C116.789 112.94 117.67 110.005 118.914 107.227C122.381 99.9278 126.469 92.9505 131.133 86.3753C131.302 86.1383 131.457 85.8751 131.652 85.5723C131.082 85.5065 130.641 85.4933 130.213 85.4143C126.391 84.8351 123.074 85.6644 120.534 88.8238C120.314 89.1003 120.054 89.3504 119.821 89.6137C116.897 93.0868 114.334 96.8587 112.176 100.869C110.295 104.529 108.055 107.987 105.49 111.19C103.907 112.903 102.219 114.512 100.436 116.008C100.107 116.325 99.7094 116.559 99.2751 116.691C98.8408 116.824 98.382 116.851 97.9354 116.771C97.9789 116.236 98.0524 115.705 98.1557 115.178C98.9578 112.073 100.124 109.076 101.628 106.253C105.132 99.8304 109.284 93.7952 114.016 88.2446C114.521 87.6127 115.014 86.9282 115.623 86.2568C114.172 86.1515 112.928 86.0199 111.735 85.9935C109.279 85.8702 106.864 86.677 104.959 88.2578C99.4654 92.8284 95.1624 98.7007 92.4283 105.358C91.2897 107.894 90.8422 110.695 91.1325 113.467C91.193 114.545 91.4703 115.598 91.9472 116.563C92.4242 117.527 93.0906 118.382 93.9055 119.075C95.0272 119.983 96.3919 120.528 97.8222 120.638C99.2526 120.749 100.683 120.42 101.926 119.694C104.259 118.358 106.346 116.621 108.094 114.56C108.341 114.296 108.535 114.007 108.652 113.862C109.292 115.284 110.042 116.653 110.893 117.956C112.062 119.369 113.707 120.287 115.508 120.531C117.308 120.774 119.133 120.325 120.625 119.272C123.165 117.351 125.463 115.118 127.466 112.625L128.658 111.216C128.775 111.966 128.84 112.532 128.943 113.046C129.24 114.702 129.885 116.274 130.835 117.653C131.864 119.085 133.374 120.084 135.08 120.46C136.785 120.836 138.567 120.563 140.087 119.694C141.487 118.917 142.744 117.877 144.091 116.942C143.962 117.166 143.858 117.416 143.702 117.653C142.148 120.141 140.644 122.669 139.025 125.104C132.546 134.885 123.929 148.102 106.293 148.418C100.644 148.352 86.675 146.443 80.9995 130.067C80.7169 129.458 80.2156 128.983 79.5987 128.738C78.9818 128.493 78.2961 128.498 77.6823 128.751C76.898 128.948 76.1469 129.263 75.4535 129.685C75.023 129.881 74.6446 130.179 74.3498 130.553C74.055 130.927 73.8524 131.368 73.7586 131.837C73.6649 132.307 73.6828 132.793 73.8108 133.254C73.9388 133.716 74.1732 134.139 74.4947 134.49C75.6479 136.07 76.8271 137.65 78.1229 139.111C84.3167 146.114 91.7545 150.392 100.747 151.261C102.259 151.56 103.794 151.723 105.334 151.748C112.201 151.902 119.012 150.466 125.251 147.549C133.303 143.568 140.217 137.559 145.335 130.093C149.839 123.656 153.784 116.833 157.127 109.702C160.859 101.962 164.5 94.1684 168.18 86.4016C168.206 86.3753 168.154 86.3095 168.167 86.3095ZM155.054 90.9432C151.516 99.3682 147.279 107.319 140.722 113.796C139.652 114.833 138.48 115.755 137.224 116.547C135.837 117.429 135.384 117.1 135.371 115.455C135.453 113.535 135.972 111.66 136.887 109.979C139.314 105.025 142.311 100.38 145.815 96.1431C147.537 94.0834 149.394 92.1439 151.373 90.3377C151.913 89.7681 152.571 89.3292 153.3 89.0535C154.029 88.7777 154.81 88.6723 155.585 88.7448C155.464 89.4906 155.287 90.2256 155.054 90.9432Z" fill="#743D5B"/>
<path d="M249.904 0.0449219C258.392 37.3652 323.971 42.4728 280.485 94.8265C291.577 66.4842 251.809 51.5166 249.904 27.2157V0.0449219Z" fill="url(#paint0_linear_968_1247)"/>
<path d="M249.905 0.0449219C249.905 0.0449219 249.464 13.604 227.112 29.9669C204.76 46.3299 212.729 77.3577 235.418 78.2134C258.107 79.069 261.761 53.0304 261.761 53.0304C261.761 53.0304 257.433 58.1381 245.823 58.1381C234.213 58.1381 232.865 46.6985 238.541 41.4197C244.216 36.1409 249.386 32.784 249.905 27.1498V0.0449219Z" fill="url(#paint1_linear_968_1247)"/>
<path style="mix-blend-mode:multiply" opacity="0.75" d="M249.904 0.0449219C249.904 0.0449219 249.451 13.5776 227.112 29.967C219.998 35.2326 219.337 59.2439 235.832 62.7192C255.567 66.8791 261.748 53.0305 261.748 53.0305C261.748 53.0305 257.42 58.1381 245.81 58.1381C234.2 58.1381 232.852 46.6985 238.528 41.4197C244.203 36.1409 249.373 32.784 249.892 27.1498L249.904 0.0449219Z" fill="url(#paint2_linear_968_1247)"/>
<path opacity="0.4" d="M249.904 0.0449219C249.904 37.7206 307.865 52.3327 280.485 94.8265C323.971 42.5255 258.392 37.4178 249.904 0.0449219Z" fill="url(#paint3_linear_968_1247)"/>
<path d="M163.593 133.318L165.873 130.37C165.886 130.309 165.886 130.246 165.873 130.185C165.869 130.102 165.837 130.024 165.782 129.962C165.717 129.905 165.635 129.872 165.549 129.869H163.502C163.413 129.865 163.326 129.893 163.256 129.948L163.074 130.133L162.076 131.449V130.251C162.075 130.153 162.038 130.06 161.973 129.988C161.939 129.954 161.898 129.927 161.854 129.909C161.809 129.891 161.762 129.882 161.714 129.883H160.055C160.007 129.881 159.959 129.889 159.914 129.907C159.869 129.925 159.829 129.952 159.794 129.986C159.76 130.021 159.734 130.062 159.716 130.108C159.699 130.153 159.69 130.202 159.692 130.251V131.449L158.694 130.133L158.513 129.948C158.443 129.893 158.356 129.865 158.267 129.869H156.22C156.134 129.872 156.051 129.905 155.986 129.962C155.932 130.024 155.9 130.102 155.896 130.185C155.883 130.246 155.883 130.309 155.896 130.37L158.176 133.318L155.921 136.386C155.877 136.442 155.853 136.511 155.853 136.583C155.853 136.655 155.877 136.725 155.921 136.781C155.952 136.811 155.988 136.836 156.029 136.852C156.069 136.867 156.112 136.875 156.155 136.873H158.176C158.263 136.874 158.348 136.852 158.422 136.807L158.604 136.623L159.692 135.201V136.517C159.693 136.611 159.73 136.701 159.796 136.767C159.829 136.803 159.87 136.83 159.914 136.849C159.959 136.867 160.007 136.875 160.055 136.873H161.714C161.762 136.877 161.811 136.87 161.856 136.851C161.9 136.833 161.941 136.804 161.973 136.767C162.039 136.701 162.076 136.611 162.076 136.517V135.201L163.165 136.623L163.346 136.807C163.421 136.852 163.506 136.874 163.593 136.873H165.614C165.657 136.875 165.7 136.867 165.74 136.852C165.78 136.836 165.817 136.811 165.847 136.781C165.876 136.754 165.899 136.722 165.915 136.685C165.931 136.649 165.939 136.61 165.938 136.57C165.954 136.51 165.954 136.446 165.938 136.386L163.593 133.318ZM173.687 129.869H172.158C172.099 129.869 172.041 129.884 171.99 129.911C171.938 129.939 171.893 129.979 171.86 130.027L169.359 133.213V130.238C169.361 130.189 169.352 130.14 169.335 130.095C169.317 130.049 169.291 130.008 169.257 129.973C169.222 129.939 169.182 129.912 169.137 129.894C169.092 129.876 169.044 129.868 168.996 129.869H167.324C167.232 129.87 167.143 129.908 167.078 129.975C167.043 130.009 167.016 130.049 166.998 130.095C166.98 130.14 166.972 130.189 166.975 130.238V136.517C166.972 136.563 166.979 136.609 166.995 136.652C167.01 136.695 167.034 136.734 167.065 136.767C167.096 136.802 167.134 136.83 167.177 136.848C167.219 136.866 167.265 136.875 167.311 136.873H168.879C168.937 136.877 168.995 136.865 169.047 136.84C169.099 136.815 169.144 136.776 169.177 136.728L171.691 133.555V136.517C171.692 136.611 171.729 136.701 171.795 136.767C171.826 136.802 171.864 136.83 171.906 136.848C171.949 136.866 171.995 136.875 172.041 136.873H173.713C173.761 136.875 173.809 136.867 173.853 136.849C173.898 136.83 173.938 136.803 173.972 136.767C174.037 136.701 174.075 136.611 174.075 136.517V130.238C174.077 130.189 174.069 130.14 174.051 130.095C174.034 130.049 174.007 130.008 173.973 129.973C173.939 129.939 173.898 129.912 173.854 129.894C173.809 129.876 173.761 129.868 173.713 129.869H173.687ZM182.07 129.869H176.758C176.71 129.868 176.662 129.876 176.617 129.894C176.572 129.912 176.531 129.939 176.497 129.973C176.463 130.008 176.436 130.049 176.419 130.095C176.401 130.14 176.393 130.189 176.395 130.238V134.095C176.409 134.215 176.399 134.336 176.366 134.451C176.333 134.567 176.276 134.674 176.2 134.766C175.958 134.897 175.683 134.952 175.41 134.924C175.318 134.925 175.229 134.963 175.164 135.03C175.128 135.062 175.099 135.103 175.081 135.149C175.063 135.195 175.056 135.244 175.06 135.293V136.609C175.058 136.656 175.066 136.703 175.084 136.746C175.102 136.79 175.129 136.828 175.164 136.86C175.194 136.896 175.232 136.926 175.274 136.946C175.317 136.967 175.363 136.978 175.41 136.978H175.63C176.468 137.03 177.296 136.773 177.963 136.254C178.248 135.984 178.47 135.652 178.611 135.283C178.752 134.913 178.81 134.516 178.779 134.121V131.923H180.075V136.478C180.075 136.572 180.112 136.662 180.177 136.729C180.243 136.796 180.332 136.833 180.425 136.833H182.096C182.144 136.835 182.192 136.827 182.237 136.809C182.282 136.791 182.322 136.763 182.355 136.728C182.421 136.662 182.458 136.572 182.459 136.478V130.238C182.461 130.189 182.453 130.14 182.435 130.095C182.418 130.049 182.391 130.008 182.357 129.973C182.323 129.939 182.282 129.912 182.237 129.894C182.192 129.876 182.144 129.868 182.096 129.869H182.07ZM190.415 131.291C190.095 130.799 189.646 130.407 189.119 130.159C188.535 129.882 187.898 129.738 187.254 129.738C186.609 129.738 185.972 129.882 185.388 130.159C184.857 130.401 184.407 130.794 184.092 131.291C183.793 131.758 183.627 132.3 183.612 132.858V133.898C183.633 134.456 183.803 134.997 184.105 135.464C184.424 135.958 184.873 136.35 185.401 136.596C185.98 136.873 186.613 137.017 187.254 137.017C187.894 137.017 188.527 136.873 189.106 136.596C189.613 136.351 190.045 135.97 190.356 135.495C190.666 135.02 190.843 134.467 190.869 133.898C190.869 133.805 190.869 133.634 190.869 133.371C190.869 133.108 190.869 132.95 190.869 132.858C190.857 132.304 190.7 131.763 190.415 131.291ZM188.497 133.832C188.493 133.984 188.459 134.133 188.396 134.271C188.334 134.409 188.245 134.532 188.135 134.635C187.898 134.841 187.591 134.945 187.279 134.924C186.969 134.935 186.666 134.832 186.424 134.635C186.206 134.425 186.076 134.137 186.061 133.832C186.053 133.678 186.053 133.524 186.061 133.371C186.053 133.218 186.053 133.064 186.061 132.91C186.067 132.761 186.102 132.614 186.164 132.478C186.226 132.342 186.315 132.221 186.424 132.12C186.666 131.923 186.969 131.82 187.279 131.831C187.591 131.81 187.898 131.914 188.135 132.12C188.246 132.219 188.336 132.341 188.398 132.477C188.46 132.613 188.494 132.76 188.497 132.91C188.509 133.064 188.509 133.218 188.497 133.371C188.509 133.524 188.509 133.678 188.497 133.832ZM194.419 128.632C194.809 128.831 195.24 128.935 195.676 128.935C196.113 128.935 196.543 128.831 196.933 128.632C197.231 128.459 197.474 128.204 197.633 127.895C197.776 127.604 197.851 127.285 197.853 126.96C197.851 126.893 197.828 126.829 197.788 126.776C197.725 126.754 197.657 126.754 197.594 126.776H196.48C196.421 126.754 196.357 126.754 196.298 126.776C196.28 126.836 196.28 126.9 196.298 126.96C196.301 127.129 196.251 127.295 196.156 127.434C196.104 127.495 196.041 127.544 195.969 127.578C195.898 127.611 195.82 127.629 195.741 127.629C195.662 127.629 195.584 127.611 195.512 127.578C195.441 127.544 195.377 127.495 195.326 127.434C195.231 127.295 195.181 127.129 195.184 126.96C195.182 126.893 195.159 126.829 195.119 126.776C195.06 126.756 194.996 126.756 194.938 126.776H193.823C193.76 126.754 193.692 126.754 193.629 126.776C193.589 126.829 193.566 126.893 193.564 126.96C193.566 127.285 193.641 127.604 193.784 127.895C193.925 128.195 194.145 128.45 194.419 128.632ZM198.864 129.869H197.387C197.328 129.87 197.271 129.885 197.219 129.913C197.167 129.94 197.123 129.979 197.089 130.027L194.588 133.213V130.238C194.589 130.189 194.581 130.14 194.564 130.095C194.546 130.049 194.519 130.008 194.485 129.973C194.451 129.939 194.411 129.912 194.366 129.894C194.321 129.876 194.273 129.868 194.225 129.869H192.553C192.461 129.87 192.372 129.908 192.307 129.975C192.242 130.046 192.205 130.14 192.203 130.238V136.517C192.201 136.563 192.208 136.609 192.224 136.652C192.239 136.695 192.263 136.734 192.294 136.767C192.325 136.802 192.364 136.829 192.406 136.847C192.448 136.865 192.494 136.874 192.54 136.873H194.082C194.142 136.875 194.201 136.863 194.255 136.838C194.309 136.813 194.356 136.775 194.393 136.728L196.894 133.555V136.517C196.895 136.611 196.932 136.701 196.998 136.767C197.031 136.803 197.071 136.83 197.116 136.849C197.161 136.867 197.209 136.875 197.257 136.873H198.929C198.975 136.875 199.021 136.866 199.063 136.848C199.106 136.83 199.144 136.802 199.175 136.767C199.24 136.701 199.278 136.611 199.278 136.517V130.238C199.277 130.14 199.24 130.046 199.175 129.975C199.135 129.933 199.086 129.901 199.032 129.883C198.978 129.864 198.92 129.86 198.864 129.869ZM207.934 133.305L210.357 130.462C210.406 130.422 210.445 130.373 210.474 130.317C210.48 130.278 210.48 130.238 210.474 130.198C210.476 130.155 210.469 130.111 210.453 130.07C210.437 130.03 210.414 129.992 210.383 129.962C210.318 129.905 210.236 129.872 210.15 129.869H208.258C208.16 129.871 208.064 129.892 207.975 129.933C207.886 129.974 207.806 130.033 207.74 130.106L205.9 132.173V130.238C205.902 130.189 205.894 130.14 205.876 130.095C205.858 130.049 205.832 130.008 205.798 129.973C205.764 129.939 205.723 129.912 205.678 129.894C205.633 129.876 205.585 129.868 205.537 129.869H203.865C203.773 129.87 203.684 129.908 203.619 129.975C203.584 130.009 203.557 130.049 203.539 130.095C203.521 130.14 203.513 130.189 203.516 130.238V136.517C203.516 136.612 203.552 136.702 203.618 136.769C203.684 136.835 203.773 136.873 203.865 136.873H205.537C205.585 136.875 205.633 136.867 205.678 136.849C205.723 136.83 205.763 136.803 205.796 136.767C205.862 136.701 205.899 136.611 205.9 136.517V134.437L207.882 136.649C207.953 136.722 208.038 136.78 208.132 136.818C208.225 136.857 208.326 136.875 208.427 136.873H210.422C210.505 136.873 210.584 136.839 210.642 136.78C210.7 136.721 210.733 136.641 210.733 136.557C210.724 136.456 210.677 136.362 210.604 136.293L207.934 133.305ZM217.64 131.291C217.319 130.799 216.871 130.407 216.344 130.159C215.76 129.882 215.123 129.738 214.478 129.738C213.833 129.738 213.196 129.882 212.612 130.159C212.081 130.401 211.631 130.794 211.316 131.291C211.011 131.755 210.845 132.299 210.837 132.858V133.898C210.851 134.457 211.022 135 211.329 135.464C211.648 135.958 212.097 136.35 212.625 136.596C213.205 136.873 213.837 137.017 214.478 137.017C215.119 137.017 215.751 136.873 216.331 136.596C216.855 136.344 217.303 135.953 217.627 135.464C217.924 134.996 218.09 134.454 218.106 133.898C218.115 133.722 218.115 133.546 218.106 133.371C218.115 133.2 218.115 133.029 218.106 132.858C218.104 132.304 217.952 131.762 217.666 131.291H217.64ZM215.722 133.832C215.717 133.984 215.683 134.133 215.621 134.271C215.558 134.409 215.469 134.532 215.359 134.635C215.112 134.823 214.812 134.924 214.504 134.924C214.195 134.924 213.895 134.823 213.649 134.635C213.538 134.532 213.449 134.409 213.387 134.271C213.325 134.133 213.29 133.984 213.286 133.832C213.277 133.678 213.277 133.524 213.286 133.371C213.277 133.218 213.277 133.064 213.286 132.91C213.289 132.76 213.323 132.613 213.385 132.477C213.448 132.341 213.537 132.219 213.649 132.12C213.895 131.932 214.195 131.831 214.504 131.831C214.812 131.831 215.112 131.932 215.359 132.12C215.47 132.219 215.56 132.341 215.622 132.477C215.685 132.613 215.719 132.76 215.722 132.91C215.733 133.064 215.733 133.218 215.722 133.371C215.742 133.524 215.751 133.678 215.748 133.832H215.722ZM226.982 129.883H225.453C225.336 129.872 225.218 129.9 225.116 129.962C225.05 130.018 224.994 130.085 224.948 130.159L223.354 132.792L221.747 130.159C221.702 130.085 221.645 130.018 221.579 129.962C221.478 129.9 221.36 129.872 221.242 129.883H219.713C219.62 129.883 219.532 129.921 219.467 129.988C219.43 130.021 219.401 130.062 219.381 130.107C219.361 130.152 219.35 130.201 219.35 130.251V136.53C219.35 136.578 219.361 136.625 219.381 136.669C219.401 136.712 219.431 136.75 219.467 136.781C219.497 136.816 219.536 136.843 219.578 136.861C219.621 136.88 219.667 136.888 219.713 136.886H221.384C221.433 136.888 221.481 136.88 221.525 136.862C221.57 136.844 221.61 136.816 221.644 136.781C221.709 136.714 221.747 136.624 221.747 136.53V133.963L222.654 135.451C222.696 135.532 222.757 135.601 222.831 135.652C222.906 135.702 222.992 135.733 223.082 135.741H223.613C223.703 135.733 223.789 135.702 223.864 135.652C223.939 135.601 223.999 135.532 224.041 135.451L224.948 133.963V136.53C224.948 136.578 224.959 136.625 224.979 136.669C224.999 136.712 225.028 136.75 225.064 136.781C225.094 136.817 225.132 136.846 225.175 136.864C225.218 136.883 225.264 136.89 225.311 136.886H226.982C227.075 136.886 227.164 136.848 227.23 136.782C227.295 136.715 227.332 136.625 227.332 136.53V130.238C227.334 130.189 227.326 130.14 227.308 130.095C227.29 130.049 227.263 130.009 227.228 129.975C227.17 129.914 227.092 129.877 227.008 129.869L226.982 129.883ZM235.599 129.883H229.263C229.215 129.881 229.167 129.889 229.122 129.907C229.077 129.925 229.036 129.952 229.002 129.986C228.968 130.021 228.941 130.062 228.924 130.108C228.906 130.153 228.898 130.202 228.9 130.251V136.53C228.901 136.624 228.938 136.714 229.004 136.781C229.037 136.816 229.077 136.844 229.122 136.862C229.167 136.88 229.215 136.888 229.263 136.886H230.934C231.027 136.886 231.116 136.848 231.182 136.782C231.247 136.715 231.284 136.625 231.284 136.53V131.976H233.591V136.53C233.591 136.578 233.602 136.625 233.622 136.669C233.642 136.712 233.671 136.75 233.707 136.781C233.738 136.816 233.776 136.843 233.819 136.861C233.861 136.88 233.907 136.888 233.954 136.886H235.625C235.673 136.888 235.721 136.88 235.766 136.862C235.811 136.844 235.851 136.816 235.884 136.781C235.95 136.714 235.987 136.624 235.988 136.53V130.238C235.99 130.189 235.982 130.14 235.964 130.095C235.946 130.049 235.92 130.008 235.886 129.973C235.852 129.939 235.811 129.912 235.766 129.894C235.721 129.876 235.673 129.868 235.625 129.869L235.599 129.883ZM243.983 129.883H238.657C238.565 129.883 238.476 129.921 238.411 129.988C238.376 130.022 238.349 130.063 238.331 130.108C238.313 130.154 238.305 130.202 238.307 130.251V134.108C238.322 134.229 238.312 134.351 238.276 134.467C238.24 134.583 238.18 134.689 238.1 134.78C237.864 134.913 237.592 134.969 237.323 134.938C237.23 134.938 237.142 134.976 237.076 135.043C237.039 135.075 237.008 135.115 236.988 135.161C236.968 135.206 236.958 135.256 236.96 135.306V136.623C236.968 136.717 237.009 136.806 237.076 136.873C237.142 136.941 237.229 136.982 237.323 136.991H237.556C238.394 137.043 239.222 136.786 239.888 136.267C240.176 135.998 240.4 135.667 240.543 135.297C240.687 134.928 240.747 134.531 240.718 134.135V131.936H242.013V136.491C242.014 136.585 242.051 136.675 242.117 136.741C242.15 136.776 242.191 136.804 242.235 136.822C242.28 136.84 242.328 136.849 242.376 136.846H244.035C244.128 136.846 244.217 136.809 244.282 136.742C244.348 136.676 244.385 136.585 244.385 136.491V130.238C244.387 130.189 244.379 130.14 244.361 130.095C244.343 130.049 244.316 130.009 244.281 129.975C244.216 129.908 244.127 129.87 244.035 129.869L243.983 129.883ZM251.175 130.277C250.559 129.909 249.854 129.727 249.14 129.751C248.464 129.735 247.795 129.893 247.196 130.212C246.67 130.517 246.246 130.975 245.978 131.528C245.689 132.111 245.547 132.758 245.564 133.411C245.516 133.9 245.575 134.395 245.737 134.859C245.9 135.322 246.162 135.744 246.504 136.093C246.846 136.441 247.259 136.709 247.715 136.875C248.171 137.042 248.658 137.104 249.14 137.057C249.792 137.076 250.44 136.941 251.032 136.662C251.484 136.465 251.887 136.168 252.211 135.793C252.422 135.589 252.563 135.321 252.613 135.03C252.615 134.991 252.609 134.952 252.596 134.916C252.583 134.88 252.562 134.847 252.535 134.819C252.475 134.765 252.396 134.736 252.315 134.74H250.591C250.519 134.723 250.444 134.723 250.371 134.74L250.164 134.898C250.039 134.996 249.899 135.071 249.749 135.122C249.552 135.185 249.347 135.216 249.14 135.214C248.841 135.216 248.549 135.129 248.298 134.964C248.177 134.871 248.082 134.749 248.021 134.608C247.96 134.468 247.935 134.314 247.948 134.161H252.354C252.403 134.161 252.451 134.15 252.496 134.13C252.54 134.109 252.58 134.079 252.613 134.042C252.646 134.01 252.672 133.971 252.69 133.928C252.708 133.885 252.717 133.839 252.717 133.792V133.411C252.714 132.807 252.586 132.21 252.341 131.66C252.103 131.091 251.707 130.606 251.2 130.264L251.175 130.277ZM247.922 132.647C247.948 132.352 248.076 132.077 248.285 131.87C248.395 131.763 248.525 131.679 248.667 131.625C248.81 131.571 248.962 131.547 249.114 131.554C249.266 131.548 249.418 131.573 249.56 131.627C249.703 131.681 249.833 131.764 249.944 131.87C250.147 132.081 250.274 132.354 250.306 132.647H247.922ZM258.288 133.305L260.698 130.462C260.765 130.445 260.827 130.414 260.88 130.37C260.892 130.331 260.892 130.29 260.88 130.251C260.882 130.207 260.875 130.164 260.859 130.123C260.843 130.082 260.82 130.045 260.789 130.014C260.729 129.957 260.651 129.924 260.569 129.922H258.677C258.579 129.921 258.482 129.941 258.392 129.982C258.303 130.023 258.223 130.084 258.159 130.159L256.306 132.226V130.238C256.308 130.189 256.3 130.14 256.282 130.095C256.264 130.049 256.237 130.009 256.202 129.975C256.137 129.908 256.049 129.87 255.956 129.869H254.284C254.236 129.868 254.188 129.876 254.143 129.894C254.099 129.912 254.058 129.939 254.024 129.973C253.99 130.008 253.963 130.049 253.945 130.095C253.928 130.14 253.92 130.189 253.922 130.238V136.517C253.922 136.611 253.959 136.701 254.025 136.767C254.059 136.803 254.099 136.83 254.144 136.849C254.188 136.867 254.236 136.875 254.284 136.873H255.956C256.049 136.873 256.138 136.835 256.203 136.769C256.269 136.702 256.306 136.612 256.306 136.517V134.437L258.301 136.649C258.371 136.724 258.455 136.783 258.549 136.822C258.643 136.86 258.744 136.878 258.846 136.873H260.88C260.923 136.875 260.966 136.867 261.006 136.852C261.046 136.836 261.083 136.811 261.113 136.781C261.169 136.72 261.201 136.64 261.204 136.557C261.188 136.458 261.143 136.366 261.074 136.293L258.288 133.305ZM268.02 134.174H266.283C266.244 134.17 266.205 134.173 266.167 134.185C266.129 134.196 266.094 134.215 266.063 134.24C265.994 134.294 265.937 134.361 265.895 134.437C265.799 134.592 265.665 134.719 265.506 134.806C265.297 134.894 265.071 134.934 264.845 134.924C264.539 134.932 264.241 134.829 264.003 134.635C263.79 134.426 263.66 134.145 263.64 133.845C263.64 133.753 263.64 133.595 263.64 133.371C263.64 133.147 263.64 132.989 263.64 132.897C263.66 132.601 263.789 132.323 264.003 132.12C264.241 131.926 264.539 131.823 264.845 131.831C265.071 131.821 265.297 131.861 265.506 131.949C265.667 132.032 265.802 132.16 265.895 132.318C265.944 132.389 266.001 132.455 266.063 132.515C266.128 132.56 266.205 132.583 266.283 132.581H268.02C268.115 132.578 268.207 132.54 268.279 132.476C268.314 132.442 268.341 132.401 268.359 132.356C268.377 132.31 268.385 132.261 268.383 132.213C268.33 131.866 268.206 131.534 268.02 131.238C267.746 130.797 267.361 130.438 266.905 130.198C266.27 129.866 265.56 129.707 264.845 129.738C264.229 129.73 263.618 129.861 263.057 130.12C262.534 130.356 262.086 130.734 261.761 131.212C261.439 131.689 261.263 132.253 261.256 132.831V133.911C261.262 134.494 261.438 135.061 261.761 135.543C262.09 136.014 262.538 136.387 263.057 136.623C263.671 136.9 264.337 137.037 265.009 137.024C265.681 137.01 266.342 136.846 266.944 136.544C267.406 136.295 267.795 135.927 268.072 135.477C268.263 135.187 268.379 134.852 268.408 134.503C268.408 134.457 268.397 134.412 268.377 134.371C268.357 134.33 268.328 134.294 268.292 134.266C268.235 134.212 268.162 134.18 268.084 134.174H268.02Z" fill="#DE2C7D"/>
<defs>
<linearGradient id="paint0_linear_968_1247" x1="239.862" y1="41.0379" x2="298.11" y2="55.3366" gradientUnits="userSpaceOnUse">
<stop stop-color="#EC2426"/>
<stop offset="0.28" stop-color="#ED663C"/>
<stop offset="0.46" stop-color="#ED683C"/>
<stop offset="0.68" stop-color="#F3903F"/>
<stop offset="0.86" stop-color="#FDC70C"/>
<stop offset="1" stop-color="#FFF33B"/>
</linearGradient>
<linearGradient id="paint1_linear_968_1247" x1="253.092" y1="72.7634" x2="222.748" y2="14.1497" gradientUnits="userSpaceOnUse">
<stop stop-color="#A4226F"/>
<stop offset="0.21" stop-color="#C61972"/>
<stop offset="0.4" stop-color="#DF1274"/>
<stop offset="0.51" stop-color="#E81075"/>
<stop offset="0.88" stop-color="#EC1C39"/>
<stop offset="1" stop-color="#ED2024"/>
</linearGradient>
<linearGradient id="paint2_linear_968_1247" x1="242.83" y1="63.588" x2="239.473" y2="0.65602" gradientUnits="userSpaceOnUse">
<stop offset="0.01" stop-color="#9A1D68"/>
<stop offset="0.07" stop-color="#AA1A6B"/>
<stop offset="0.22" stop-color="#CC1570"/>
<stop offset="0.34" stop-color="#E01174"/>
<stop offset="0.42" stop-color="#E81075"/>
<stop offset="0.79" stop-color="#EB1A43"/>
<stop offset="1" stop-color="#ED2024"/>
</linearGradient>
<linearGradient id="paint3_linear_968_1247" x1="248.855" y1="65.8786" x2="282.105" y2="29.5414" gradientUnits="userSpaceOnUse">
<stop stop-color="#EC2426"/>
<stop offset="0.26" stop-color="#ED663C"/>
<stop offset="0.52" stop-color="#ED683C"/>
<stop offset="0.68" stop-color="#F3903F"/>
<stop offset="0.86" stop-color="#FDC70C"/>
<stop offset="1" stop-color="#FFF33B"/>
</linearGradient>
</defs>
</svg>
