<svg width="220" height="67" viewBox="0 0 220 67" fill="none" xmlns="http://www.w3.org/2000/svg">
<path fill-rule="evenodd" clip-rule="evenodd" d="M173.84 14.6815V16.5107C172.868 15.3079 170.91 14.3406 167.95 13.6342C163.925 12.6747 158.002 12.1693 150.145 12.1849C149.96 12.186 149.797 12.2093 149.654 12.2548V10.0225C149.77 9.9481 149.93 9.90701 150.145 9.9059C157.959 9.89035 163.846 10.3912 167.837 11.3441C171.266 12.1615 173.259 13.2888 173.84 14.6815ZM150.655 0.000364898C165.921 -0.0318428 173.554 2.06943 173.84 5.75777V6.0543C172.868 4.85262 170.91 3.88528 167.95 3.17893C163.925 2.21825 158.002 1.71293 150.145 1.72959C149.96 1.72959 149.797 1.75402 149.654 1.79844V1.31866C149.621 0.530126 149.864 0.00147551 150.655 0.000364898ZM194.564 5.81663C182.49 5.83551 177.198 7.49587 176.968 10.3801V11.6151C177.682 10.2935 179.299 9.23953 181.833 8.48432C185.052 7.52364 189.791 7.01831 196.078 7.03497C196.295 7.03497 196.301 7.04385 196.357 7.06718C196.29 6.82729 196.292 6.83395 196.041 6.5252C195.682 6.10872 195.139 5.81441 194.564 5.81663ZM173.84 7.71133V9.54051C172.868 8.33772 170.91 7.36926 167.95 6.66292C163.925 5.70446 158.002 5.19913 150.145 5.21468C149.96 5.21468 149.797 5.23911 149.654 5.28465V3.05121C149.77 2.97791 149.93 2.93571 150.145 2.93571C157.959 2.92016 163.846 3.42104 167.837 4.37284C171.266 5.19136 173.259 6.31752 173.84 7.71133ZM196.653 31.153V16.8617C196.633 16.7884 196.611 16.7228 196.579 16.6684C196.492 16.5118 196.332 16.4218 196.078 16.4207C189.826 16.4052 185.117 16.9061 181.924 17.8579C178.731 18.8108 177.095 20.1802 176.984 21.9049C176.982 21.9349 176.977 21.9649 176.968 21.9916V22.2192H173.84V21.6528C173.259 20.259 171.266 19.1317 167.837 18.3143C163.846 17.3614 157.959 16.8617 150.145 16.8761C149.93 16.8783 149.77 16.9183 149.654 16.9927V24.0873L196.653 31.153ZM173.84 18.1666V19.9958C172.868 18.793 170.91 17.8257 167.95 17.1204C163.925 16.1597 158.002 15.6544 150.145 15.67C149.96 15.67 149.797 15.6944 149.654 15.7399V13.5076C149.77 13.4332 149.93 13.3932 150.145 13.391C157.959 13.3754 163.846 13.8763 167.837 14.8292C171.266 15.6466 173.259 16.7739 173.84 18.1666ZM176.968 13.8097V14.3428C177.682 13.0212 179.299 11.9672 181.833 11.212C185.052 10.2524 189.791 9.74597 196.078 9.76263C196.312 9.76263 196.501 9.82149 196.653 9.93144V8.67867C196.633 8.60537 196.611 8.54096 196.579 8.48543C196.492 8.32883 196.332 8.23887 196.078 8.23776C189.826 8.22221 185.117 8.7231 181.924 9.67489C178.731 10.6278 177.095 11.9972 176.984 13.7208C176.982 13.7519 176.977 13.7819 176.968 13.8097ZM176.968 16.5374V17.0716C177.682 15.7488 179.299 14.6937 181.833 13.9385C185.052 12.979 189.791 12.4736 196.078 12.4892C196.312 12.4903 196.501 12.5503 196.653 12.6591V11.4074C196.633 11.333 196.611 11.2686 196.579 11.2131C196.492 11.0565 196.332 10.9665 196.078 10.9654C189.826 10.9499 185.117 11.4508 181.924 12.4037C178.731 13.3555 177.095 14.7248 176.984 16.4496C176.982 16.4807 176.977 16.5096 176.968 16.5374ZM176.968 19.265V19.7981C177.682 18.4765 179.299 17.4225 181.833 16.6662C185.052 15.7066 189.791 15.2013 196.078 15.2179C196.312 15.2179 196.501 15.2768 196.653 15.3868V14.134C196.633 14.0607 196.611 13.9963 196.579 13.9407C196.492 13.7841 196.332 13.6942 196.078 13.6931C189.826 13.6775 185.117 14.1784 181.924 15.1302C178.731 16.082 177.095 17.4525 176.984 19.1773C176.982 19.2084 176.977 19.2372 176.968 19.265ZM173.84 11.1964V13.0256C172.868 11.8228 170.91 10.8555 167.95 10.1491C163.925 9.18955 158.002 8.68423 150.145 8.69978C149.96 8.69978 149.797 8.72421 149.654 8.76974V6.53742C149.77 6.4619 149.93 6.42191 150.145 6.4208C157.959 6.40525 163.846 6.90614 167.837 7.85904C171.266 8.67645 173.259 9.80261 173.84 11.1964Z" fill="#FFB500"/>
<path d="M32.783 47.5901C32.783 49.0416 32.8627 50.2666 33.0263 51.2573C33.1846 52.2546 33.4619 53.2386 33.8497 54.2226H28.7884H23.6995C24.0884 53.2386 24.3646 52.2546 24.5229 51.2573C24.6875 50.2666 24.7662 49.0416 24.7662 47.5901V27.3181L20.9883 22.6802H26.721H32.4537C32.4802 23.3754 32.5599 23.9474 32.6842 24.3805C32.8159 24.8203 33.021 25.2201 33.3036 25.5844L40.8402 35.5344H40.8466L48.4353 25.5844C48.8305 25.068 49.1205 24.6004 49.2916 24.1606C49.4626 23.7264 49.5614 23.231 49.588 22.6802H54.0702H58.5727C57.71 24.8414 57.1108 26.7195 56.7624 28.3165C56.4139 29.9058 56.2418 31.5639 56.2418 33.2843V47.5901C56.2418 49.0416 56.3215 50.2666 56.4861 51.2573C56.6434 52.2546 56.9206 53.2386 57.3084 54.2226H52.2663H47.1987C47.5864 53.2386 47.8637 52.2546 48.021 51.2573C48.1856 50.2666 48.2642 49.0416 48.2642 47.5901V35.982L40.53 46.3373H40.5172L32.7703 35.802H32.783V47.5901ZM69.3263 54.608C66.3037 54.608 63.9187 53.7495 62.17 52.0269C60.4212 50.3088 59.549 47.9499 59.549 44.9535C59.549 42.1036 60.3256 39.7791 61.8735 37.9744C63.4215 36.1696 65.4103 35.2645 67.8463 35.2645H67.7953C70.1422 35.2645 71.9695 36.0353 73.2932 37.5712C74.6117 39.1072 75.2714 41.2396 75.2714 43.9728C75.2714 44.7147 75.2034 45.421 75.0696 46.093H65.6897C65.9075 47.0625 66.2644 47.8799 66.7563 48.5574C67.6392 49.7424 68.93 50.3333 70.6287 50.3333C71.416 50.3333 72.2202 50.1989 73.0478 49.9246C73.8691 49.6558 74.6181 49.2704 75.2821 48.7851L73.1254 54.2226C72.1204 54.3803 71.3767 54.4858 70.8965 54.5325C70.4163 54.5847 69.8968 54.608 69.3263 54.608ZM69.9467 42.4835L69.9297 41.8526C69.9297 40.9642 69.7395 40.2811 69.3656 39.8025C68.9863 39.3238 68.4551 39.0839 67.7677 39.0839C67.0028 39.0839 66.4217 39.446 66.019 40.1756C65.712 40.7254 65.5271 41.4906 65.4602 42.4835H69.9467ZM82.9472 48.5918C82.9472 49.7902 83.0195 50.8119 83.1597 51.6527C83.2989 52.5001 83.5401 53.3519 83.8864 54.2226H79.8631H75.8409C76.1872 53.3463 76.4273 52.4823 76.5665 51.6416C76.7067 50.7942 76.779 49.7835 76.779 48.5985V41.274C76.779 40.1001 76.7067 39.0961 76.5665 38.2487C76.4273 37.408 76.1872 36.5373 75.8409 35.6499H82.9419H89.9421L89.0146 38.021L88.0765 40.4155C87.2043 40.1056 86.0144 39.8313 84.5058 39.5859C83.9756 39.4993 83.4561 39.4348 82.9525 39.3993H82.9472V48.5918ZM94.9258 54.608C93.3502 54.608 92.0541 54.1404 91.048 53.212C90.0419 52.2779 89.5394 51.0807 89.5394 49.6202C89.5394 48.2242 90.0196 46.9859 90.9864 45.8942C91.9479 44.8024 93.3215 43.955 95.1042 43.3475L98.3222 42.2558C98.2999 41.4439 98.0535 40.8131 97.5849 40.3633C97.1154 39.908 96.4227 39.6792 95.5122 39.6792C94.674 39.6792 93.9813 39.738 93.4395 39.8491C92.8913 39.9602 92.2432 40.1756 91.4783 40.5032L92.6235 36.1052C93.7019 35.7665 94.5953 35.5444 95.305 35.4333C96.0147 35.3223 96.9092 35.2645 97.9876 35.2645C99.9817 35.2645 101.563 35.8309 102.736 36.9582C103.904 38.0855 104.491 39.6037 104.491 41.5195V48.5985C104.491 49.8768 104.552 50.9341 104.674 51.7759C104.798 52.6222 105.015 53.4341 105.329 54.2226H101.892H98.4508V52.2313L95.5621 54.5902L94.9258 54.608ZM98.3222 49.9879V46.5483H95.6684C95.5069 46.5483 95.3327 46.7471 95.1489 47.138C94.9651 47.5356 94.8748 47.8977 94.8748 48.2242C94.8748 48.8961 95.0426 49.3981 95.3836 49.7313C95.73 50.0645 96.2378 50.2278 96.9252 50.2278C97.4787 50.2155 97.9419 50.1345 98.3222 49.9879ZM113.636 54.2226H109.713H105.792C106.104 53.4341 106.322 52.6222 106.445 51.7759C106.569 50.9341 106.63 49.8712 106.63 48.5985V41.274C106.63 40.0013 106.569 38.9384 106.445 38.0966C106.322 37.2503 106.104 36.4384 105.792 35.6499H114.736H123.692C123.38 36.4384 123.162 37.2503 123.039 38.0966C122.916 38.9384 122.854 40.0013 122.854 41.274V48.5985C122.854 49.8712 122.916 50.9341 123.039 51.7759C123.162 52.6222 123.38 53.4341 123.692 54.2226H119.77H115.849C116.161 53.4341 116.379 52.6222 116.502 51.7759C116.625 50.9341 116.686 49.8712 116.686 48.5985V39.2594H112.797V48.5985C112.797 49.8712 112.859 50.9341 112.977 51.7759C113.104 52.6222 113.323 53.4341 113.636 54.2226ZM133.212 54.608C130.581 54.608 128.424 53.7784 126.742 52.1202C125.061 50.4676 124.217 48.3353 124.217 45.7242C124.217 42.6578 125.139 40.1467 126.988 38.1965C128.832 36.2396 131.201 35.2645 134.095 35.2645C136.737 35.2645 138.899 36.093 140.576 37.7578C142.252 39.4226 143.089 41.5606 143.089 44.1827C143.089 47.2369 142.168 49.7369 140.33 51.6882C138.486 53.6329 136.117 54.608 133.212 54.608ZM134.894 50.8941C135.447 50.3444 135.906 49.6147 136.257 48.6973C136.609 47.78 136.787 46.8693 136.787 45.9697C136.787 44.2882 136.324 42.7989 135.402 41.4906C134.475 40.1823 133.279 39.3471 131.821 38.9784C131.397 39.3993 131.05 40.0712 130.787 40.9941C130.519 41.9226 130.385 42.8977 130.385 43.9373C130.385 45.6487 130.809 47.1558 131.654 48.4519C132.497 49.7491 133.576 50.5609 134.894 50.8941ZM154.861 39.2594H151.811V46.7471C151.811 49.4681 151.336 51.4605 150.391 52.7211C149.442 53.9772 147.95 54.608 145.9 54.608H145.442L142.726 49.638C143.006 49.7491 143.33 49.8068 143.693 49.8068C144.37 49.8068 144.861 49.5614 145.174 49.0716C145.486 48.5807 145.642 47.8044 145.642 46.7471V41.274C145.642 40.0013 145.582 38.9384 145.459 38.0966C145.335 37.2503 145.118 36.4384 144.805 35.6499H153.336H161.867C161.555 36.4384 161.337 37.2503 161.214 38.0966C161.091 38.9384 161.029 40.0013 161.029 41.274V48.5985C161.029 49.8712 161.091 50.9341 161.214 51.7759C161.337 52.6222 161.555 53.4341 161.867 54.2226H157.945H154.024C154.336 53.4341 154.554 52.6222 154.677 51.7759C154.8 50.9341 154.861 49.8712 154.861 48.5985V39.2594ZM174.672 44.0194L169.857 51.997C169.985 52.7511 170.198 53.4929 170.493 54.2226H166.565H162.638C162.951 53.4341 163.169 52.6222 163.292 51.7759C163.415 50.9341 163.476 49.8712 163.476 48.5985V41.274C163.476 40.0013 163.415 38.9384 163.292 38.0966C163.169 37.2503 162.951 36.4384 162.638 35.6499H166.56H170.482C170.169 36.4384 169.951 37.2503 169.829 38.0966C169.706 38.9384 169.644 39.9946 169.644 41.274V45.8531L174.46 37.8755C174.331 37.1103 174.119 36.3684 173.824 35.6499H177.751H181.679C181.366 36.4384 181.148 37.2503 181.024 38.0966C180.902 38.9384 180.841 40.0013 180.841 41.274V48.5985C180.841 49.8712 180.902 50.9341 181.024 51.7759C181.148 52.6222 181.366 53.4341 181.679 54.2226H177.757H173.834C174.148 53.4341 174.365 52.6222 174.488 51.7759C174.611 50.9341 174.672 49.8768 174.672 48.5985V44.0194ZM195.148 54.2226C194.243 54.3803 193.567 54.4858 193.12 54.5325C192.674 54.5847 192.176 54.608 191.635 54.608C188.919 54.608 186.696 53.7084 184.969 51.9103C183.243 50.1111 182.377 47.7922 182.377 44.9535C182.377 42.1036 183.327 39.7791 185.22 37.9744C187.119 36.1696 189.55 35.2645 192.517 35.2645C193.344 35.2645 194.031 35.3167 194.567 35.4155C195.11 35.5211 195.775 35.7254 196.557 36.0353L196.344 40.8653C195.657 40.4044 195.064 40.089 194.567 39.908C194.064 39.7325 193.512 39.6447 192.902 39.6447C191.612 39.6447 190.584 40.1234 189.824 41.0752C189.065 42.0337 188.684 43.3242 188.684 44.9535C188.684 46.5716 189.081 47.851 189.869 48.8028C190.656 49.7546 191.724 50.2278 193.07 50.2278C193.757 50.2278 194.461 50.0989 195.187 49.8424C195.919 49.5847 196.624 49.2171 197.311 48.7495L195.148 54.2226Z" fill="#326EC8"/>
<path d="M209.823 37.2589C205.186 34.5968 194.75 31.9668 190.787 31.1594C176.486 28.2441 156.709 26.4404 134.847 26.4404C109.066 26.4404 82.9921 27.8354 59.7617 30.9584C63.8094 29.579 68.9621 28.3474 75.006 27.3023C90.3364 24.6501 111.494 23.0098 134.847 23.0098C158.199 23.0098 179.357 24.6501 194.687 27.3023C199.211 28.0841 205.106 29.5279 208.542 30.5031C215.531 32.7565 220.001 35.583 220.001 38.5006C220.001 41.3504 216.201 43.9648 209.512 46.1849L209.508 46.1771C212.074 44.7178 213.465 43.1862 213.465 41.6258C213.465 40.1309 212.187 38.6627 209.823 37.2589Z" fill="#FFB500"/>
<path d="M21.5167 55.569C25.0088 56.4997 29.0799 57.376 33.644 58.1834C50.1143 61.0988 72.89 62.9013 98.0677 62.9013C127.757 62.9013 157.785 61.5075 184.538 58.3844C179.876 59.7638 173.944 60.9955 166.983 62.0406C149.327 64.6927 124.961 66.3331 98.0677 66.3331C71.1742 66.3331 46.8071 64.6927 29.1522 62.0406C23.9432 61.2587 19.3101 60.3713 15.3538 59.3973L12.6393 58.6854C4.58955 56.4309 0 53.7598 0 50.8412C0 47.9924 4.37707 45.3781 12.0794 43.158L12.0848 43.1657C9.12917 44.624 7.52708 46.1555 7.52708 47.7159C7.52708 49.2119 8.9985 50.6801 11.7214 52.0839C14.4454 53.4866 21.5167 55.569 21.5167 55.569Z" fill="#FFB500"/>
</svg>
