<svg width="59" height="67" viewBox="0 0 59 67" fill="none" xmlns="http://www.w3.org/2000/svg">
<g clip-path="url(#clip0_263_223)">
<path d="M56.5324 4.05639e-05C56.655 0.0746825 56.7813 0.142938 56.9108 0.204538C58.2297 0.748116 58.9932 1.86324 58.9932 3.29297C58.9932 20.7399 58.988 38.1857 58.9776 55.6303C58.9638 56.0337 58.8082 56.419 58.5386 56.7175C55.3142 60.0081 52.0684 63.2777 48.8013 66.5264C48.5047 66.7976 48.1237 66.9564 47.7236 66.9756C44.4541 67.0088 41.1846 66.9965 37.9134 66.993C37.1585 66.993 36.7298 66.6243 36.7385 66.002C36.7472 65.3798 37.1724 65.039 37.9394 65.0372H46.934V64.3154C46.934 62.3753 46.934 60.4346 46.934 58.4933C46.934 56.2036 48.291 54.8508 50.5783 54.8473C52.7007 54.8473 54.8213 54.8473 57.0461 54.8473V3.69323C57.0461 2.40857 56.6019 1.96112 55.3263 1.96112H15.5164C14.2825 1.96112 13.8382 2.40507 13.8365 3.66002C13.8365 15.9369 13.833 28.2143 13.8261 40.4923C13.8261 41.0079 13.9528 41.1914 14.4959 41.2456C16.1544 41.4407 17.7556 41.9761 19.2006 42.8187L19.6535 43.0738C19.624 42.0251 19.9798 41.6389 20.9794 41.6389C30.6166 41.6389 40.2533 41.6389 49.8894 41.6389C50.1245 41.6337 50.3588 41.6668 50.5835 41.7367C50.7847 41.7942 50.9586 41.9229 51.0731 42.0993C51.1876 42.2756 51.2349 42.4876 51.2065 42.6963C51.2116 42.9062 51.1414 43.111 51.0088 43.2731C50.8762 43.4352 50.6901 43.5438 50.4846 43.579C50.1867 43.6313 49.8844 43.6529 49.5822 43.6436C40.2272 43.6436 30.8723 43.6436 21.5174 43.6436H20.6497C21.4531 44.4896 22.1612 45.2709 22.9143 46.005C23.0653 46.1518 23.3846 46.1798 23.6259 46.1798C31.2489 46.1891 38.8713 46.1891 46.4932 46.1798C47.6628 46.1798 48.8325 46.1798 50.0022 46.1798C50.797 46.1798 51.1944 46.5049 51.2048 47.1341C51.2152 47.7633 50.7935 48.1408 49.9744 48.1408H24.3339C24.6602 48.9903 24.9673 49.7943 25.2988 50.656H49.6863C50.7553 50.656 51.1978 50.9479 51.2065 51.6523C51.2152 52.3566 50.7779 52.6677 49.7123 52.6677H25.6806V55.2074H42.1356C42.3518 55.196 42.5684 55.196 42.7846 55.2074C43.015 55.2141 43.2339 55.3102 43.3956 55.4757C43.5573 55.6412 43.6493 55.8631 43.6523 56.0953C43.7009 56.6563 43.3972 57.0041 42.8731 57.144C42.6592 57.1785 42.4418 57.1867 42.2258 57.1684C36.8131 57.1684 31.3987 57.1684 25.9843 57.158C25.4966 57.158 25.2901 57.2751 25.1374 57.7749C24.3288 60.538 22.6164 62.9446 20.2783 64.6038C20.1568 64.6929 20.0353 64.7785 19.9156 64.8782C19.8806 64.9256 19.8487 64.9752 19.8201 65.0267H20.549C24.707 65.0267 28.865 65.0267 33.023 65.0267C33.5003 65.0267 33.9341 65.1543 34.0434 65.6385C34.1198 65.9828 34.0574 66.3437 33.8699 66.6417C33.6964 66.862 33.2712 66.9703 32.9553 66.9738C30.0972 66.9983 27.239 66.9878 24.3808 66.9878C20.4397 66.9878 16.5003 67.0018 12.561 66.9878C6.39164 66.9581 0.954646 62.0292 0.126862 55.8645C-0.891815 48.2754 4.69442 41.8102 11.5683 41.1967C11.6664 41.1756 11.7627 41.147 11.8564 41.111V40.3192C11.8564 28.2382 11.8772 16.1571 11.8356 4.07601C11.8356 2.06599 12.502 0.667714 14.4387 -0.00170898L56.5324 4.05639e-05ZM12.8733 43.1123C9.99481 43.1103 7.23211 44.254 5.18696 46.2942C3.1418 48.3344 1.97987 51.1058 1.95423 54.0048C1.9282 60.0349 6.83764 65.0162 12.8178 65.0355C15.7074 65.0313 18.4775 63.8733 20.5207 61.8154C22.564 59.7575 23.7137 56.9676 23.7178 54.0573C23.7169 51.1587 22.5748 48.3788 20.5419 46.327C18.509 44.2753 15.7513 43.1192 12.8733 43.1123ZM55.4305 56.8923C55.3961 56.8697 55.3568 56.8559 55.3159 56.8521C53.65 56.8521 51.9857 56.8294 50.3215 56.8521C49.3896 56.8678 48.9592 57.3415 48.947 58.2975C48.9279 59.6259 48.947 60.9543 48.947 62.2826V63.417L55.4305 56.8923Z" fill="white"/>
<path d="M47.1715 21.8341V34.6283C47.4579 34.644 47.713 34.6493 47.9646 34.6755C48.5165 34.7297 48.8323 35.039 48.8653 35.6001C48.8753 35.7248 48.8607 35.8502 48.8225 35.9692C48.7842 36.0882 48.723 36.1984 48.6424 36.2935C48.5618 36.3887 48.4634 36.4669 48.3527 36.5236C48.2421 36.5804 48.1214 36.6146 47.9976 36.6243C47.8244 36.637 47.6505 36.6399 47.477 36.6331H23.3775C23.204 36.6437 23.0299 36.6402 22.8569 36.6226C22.3155 36.5317 21.9892 36.1909 21.9892 35.6456C21.982 35.5245 21.9988 35.4032 22.0387 35.2888C22.0786 35.1744 22.1408 35.0692 22.2216 34.9794C22.3024 34.8895 22.4003 34.8168 22.5094 34.7655C22.6184 34.7142 22.7366 34.6854 22.8569 34.6807C23.1311 34.6475 23.4105 34.6493 23.7246 34.6335V21.7817C23.5823 21.8044 23.4383 21.8236 23.296 21.8533C21.8677 22.1522 20.5419 21.5195 19.9467 20.2523C19.3323 18.9467 19.6829 17.5169 20.9029 16.5906C23.5268 14.5945 26.168 12.623 28.8024 10.6479C30.0669 9.6971 31.3332 8.74627 32.6012 7.79545C34.3956 6.4566 36.4069 6.41815 38.1874 7.74651C42.121 10.6759 46.0389 13.6204 49.9412 16.5801C50.9703 17.3561 51.4111 18.4013 51.1022 19.679C50.7933 20.9567 49.9135 21.731 48.6119 21.918C48.1607 21.9774 47.6783 21.8673 47.1715 21.8341ZM30.005 34.6353V33.7876C30.005 30.2919 30.005 26.8102 30.005 23.3233C30.005 21.5562 30.9855 20.5914 32.7521 20.5879C34.5917 20.5879 36.4329 20.5774 38.2724 20.5879C39.8343 20.6001 40.853 21.5789 40.8894 23.1432C40.9276 24.8421 40.9085 26.5445 40.8894 28.2452C40.8894 28.9443 40.4816 29.4005 39.9193 29.418C39.3571 29.4355 38.9163 28.9618 38.8937 28.2347C38.8798 27.768 38.8937 27.2979 38.8937 26.8364H32.0146V34.6056H38.8937C38.8937 34.097 38.8833 33.6408 38.8937 33.1846C38.9163 32.4557 39.2686 32.045 39.8621 32.0293C40.4868 32.0135 40.8669 32.4295 40.8911 33.1881C40.9068 33.66 40.8911 34.1302 40.8911 34.6196H45.0735C45.0947 34.4841 45.1092 34.3475 45.1168 34.2106C45.1168 29.7186 45.1255 25.2284 45.103 20.7382C45.0856 20.5965 45.0406 20.4597 44.9706 20.3355C44.9006 20.2113 44.807 20.1023 44.6951 20.0146C43.3606 18.9746 42.0001 17.9696 40.6482 16.9524L35.442 13.0442C35.2841 13.1526 35.1557 13.2312 35.0359 13.3204C32.0858 15.5349 29.1477 17.7581 26.1854 19.9622C26.0249 20.0626 25.8946 20.2051 25.8084 20.3745C25.7221 20.5438 25.6833 20.7336 25.696 20.9235C25.7134 25.2616 25.7064 29.5998 25.7082 33.9379C25.7082 34.1669 25.7273 34.3958 25.7377 34.637L30.005 34.6353ZM35.3934 8.60469C34.8016 8.89658 34.1995 9.09584 33.7101 9.4524C31.5217 11.0534 29.3716 12.6999 27.1989 14.3306C25.4982 15.6083 23.7958 16.8825 22.1038 18.1759C21.6265 18.5394 21.5276 19.125 21.8296 19.5549C22.1315 19.9849 22.7146 20.0793 23.2179 19.7472C23.4174 19.6178 23.6014 19.464 23.7923 19.3207L34.3574 11.3838C35.3726 10.62 35.5322 10.6252 36.5631 11.4012C40.2039 14.1419 43.8448 16.8801 47.4857 19.6161C48.0896 20.0705 48.6779 20.0443 49.0336 19.5654C49.3894 19.0865 49.2818 18.5482 48.6952 18.106C44.7964 15.1673 40.8911 12.2379 36.9796 9.31782C36.5457 8.98922 35.9782 8.85988 35.3934 8.60469ZM32.0302 24.7338H38.8972C38.8972 24.2234 38.8798 23.748 38.8972 23.2761C38.9215 22.7605 38.6855 22.5927 38.203 22.5997C36.7331 22.6171 35.265 22.5909 33.7969 22.6084C31.7231 22.6364 31.9695 22.2326 31.9799 24.559C31.9898 24.619 32.0067 24.6777 32.0302 24.7338Z" fill="white"/>
<path d="M18.8447 49.1092C18.6191 49.4692 18.4976 49.7576 18.2998 49.9621C15.139 53.1606 11.9719 56.3522 8.79848 59.5368C8.29695 60.0384 7.72601 60.0804 7.30777 59.6819C6.88954 59.2833 6.90516 58.6576 7.42231 58.135C10.5715 54.9574 13.7235 51.7816 16.8785 48.6075C17.2256 48.258 17.616 47.9835 18.0794 48.2719C18.3761 48.4572 18.5722 48.8015 18.8447 49.1092Z" fill="white"/>
<path d="M11.0544 50.9216C11.048 51.7469 10.7175 52.5361 10.1351 53.1168C9.55272 53.6975 8.76582 54.0224 7.94633 54.0205C7.12674 54.0022 6.34684 53.6614 5.77368 53.0711C5.20052 52.4807 4.87968 51.6878 4.87988 50.8621C4.89176 50.0368 5.22649 49.2494 5.81136 48.6712C6.39623 48.0929 7.18401 47.7704 8.0036 47.7737C8.40945 47.7776 8.81054 47.8622 9.18382 48.0227C9.55709 48.1832 9.8952 48.4164 10.1787 48.7089C10.4622 49.0014 10.6855 49.3475 10.8358 49.7272C10.9861 50.1069 11.0604 50.5128 11.0544 50.9216ZM9.10384 50.8621C9.08867 50.5646 8.96032 50.2844 8.74542 50.0797C8.53052 49.875 8.24559 49.7615 7.9498 49.7628C7.65487 49.7732 7.37613 49.9011 7.17473 50.1184C6.97334 50.3357 6.86575 50.6245 6.87559 50.9216C6.8759 51.0689 6.90583 51.2146 6.96358 51.3499C7.02133 51.4852 7.1057 51.6074 7.21159 51.709C7.31749 51.8106 7.44273 51.8895 7.57974 51.941C7.71675 51.9925 7.86271 52.0156 8.0088 52.0087C8.30432 52.0009 8.58491 51.8763 8.78985 51.6617C8.99479 51.4471 9.10759 51.1599 9.10384 50.8621Z" fill="white"/>
<path d="M17.7236 60.3356C16.9043 60.3393 16.1169 60.0158 15.534 59.4359C14.9511 58.856 14.6202 58.0671 14.6138 57.2419C14.6188 56.4167 14.947 55.6268 15.527 55.0439C16.1071 54.461 16.8921 54.1322 17.7115 54.129C18.117 54.1255 18.5192 54.2033 18.8947 54.3578C19.2702 54.5123 19.6114 54.7405 19.8985 55.029C20.1856 55.3175 20.4129 55.6607 20.5672 56.0385C20.7214 56.4163 20.7995 56.8212 20.797 57.2297C20.8026 57.6382 20.727 58.0438 20.5746 58.4224C20.4223 58.8011 20.1963 59.1453 19.9099 59.4347C19.6235 59.7241 19.2826 59.9529 18.9071 60.1076C18.5316 60.2623 18.1293 60.3398 17.7236 60.3356ZM17.7236 56.1233C17.5786 56.1181 17.434 56.1426 17.2987 56.1955C17.1634 56.2483 17.0402 56.3284 16.9366 56.4308C16.833 56.5331 16.7512 56.6557 16.6961 56.7909C16.6411 56.9262 16.614 57.0713 16.6164 57.2175C16.6101 57.3636 16.6329 57.5095 16.6833 57.6466C16.7337 57.7838 16.8108 57.9094 16.91 58.0162C17.0093 58.123 17.1286 58.2087 17.2612 58.2685C17.3937 58.3282 17.5368 58.3607 17.682 58.364C17.9847 58.3651 18.2759 58.2472 18.4937 58.0353C18.7115 57.8235 18.8387 57.5345 18.8481 57.2297C18.8396 56.9344 18.7176 56.6541 18.5078 56.4477C18.298 56.2413 18.0169 56.125 17.7236 56.1233Z" fill="white"/>
</g>
<defs>
<clipPath id="clip0_263_223">
<rect width="59" height="67" fill="white"/>
</clipPath>
</defs>
</svg>
