<svg width="66" height="72" viewBox="0 0 66 72" fill="none" xmlns="http://www.w3.org/2000/svg">
<g clip-path="url(#clip0_263_186)">
<path d="M0 35.1562C0.185248 34.3406 0.335299 33.5119 0.568711 32.7187C1.44615 29.7103 3.31787 27.0982 5.87063 25.3195C8.42338 23.5409 11.5023 22.7037 14.5919 22.9481C17.6812 23.2013 20.5907 24.5208 22.8336 26.6858C25.0765 28.8508 26.5166 31.7299 26.9128 34.8412C27.4185 38.8537 26.2644 42.4706 24.4212 45.9281C22.2482 50.0044 19.2528 53.4431 16.1517 56.7937C15.7812 57.1875 15.4293 57.5887 15.0402 57.945C14.1344 58.7625 12.871 58.8244 12.0318 57.945C8.03048 53.8069 4.20141 49.5281 1.76355 44.1881C0.919951 42.4157 0.368056 40.5156 0.12967 38.5631C0.101937 38.4519 0.0602277 38.3448 0.0055572 38.2444L0 35.1562ZM13.4768 55.125C14.3474 54.1612 15.144 53.3119 15.8998 52.4362C18.2265 49.7644 20.4458 47.0119 22.0556 43.8112C23.3875 41.1694 24.2452 38.4225 23.8877 35.3869C23.6584 33.3062 22.8198 31.3424 21.4796 29.7478C20.1394 28.1531 18.3589 27.0003 16.3666 26.4375C12.2393 25.275 7.75076 26.7394 5.23139 30.1537C2.77501 33.4837 2.51566 37.1606 3.78831 41.0119C4.85348 44.2312 6.69855 47.0025 8.78999 49.605C10.2886 51.4706 11.8818 53.25 13.4768 55.125Z" fill="white"/>
<path d="M53.8015 0C54.7592 0.234375 55.7373 0.404999 56.6728 0.710624C62.9101 2.74687 66.7114 8.90438 65.8889 15.5231C65.3813 19.6144 63.5603 23.1225 61.2818 26.43C59.1848 29.4731 56.7284 32.2106 54.1776 34.8675C53.1717 35.9119 51.8805 35.9925 50.9172 34.9931C47.1641 31.1044 43.5703 27.0788 41.1232 22.1625C39.7672 19.4381 38.9317 16.5825 38.9576 13.4831C39.0113 7.12687 43.6611 1.45125 49.8242 0.29625C50.2744 0.211875 50.7208 0.108751 51.1673 0.0131264L53.8015 0ZM52.4659 32.1675C52.9086 31.6875 53.2939 31.2844 53.6644 30.87C56.4431 27.7669 59.1552 24.6019 61.0539 20.8312C62.5359 17.895 63.3825 14.8312 62.6915 11.4994C62.2565 9.40356 61.2011 7.49155 59.666 6.01778C58.1308 4.54401 56.1886 3.57838 54.0979 3.24938C49.8613 2.55 45.4524 4.69313 43.3813 8.49937C41.5289 11.9044 41.6511 15.4106 43.0405 18.9187C45.0949 24.0862 48.7702 28.0744 52.4659 32.1675Z" fill="white"/>
<path d="M13.4508 72.0001C13.0803 71.8689 12.7098 71.7564 12.3616 71.6045C10.3238 70.7251 9.09751 69.167 8.89374 66.9301C8.67329 64.5057 9.65696 62.6176 11.7595 61.4532C13.7843 60.3282 15.8201 60.497 17.6726 61.8882C18.2284 62.3045 18.5766 62.2932 19.1027 61.9351C19.8289 61.4401 20.6032 61.0201 21.3646 60.5813C22.2445 60.0751 23.1448 60.272 23.5987 61.0501C24.0525 61.8282 23.8136 62.7132 22.9318 63.257C22.05 63.8007 21.0941 64.3314 20.2012 64.9089C20.1032 64.9844 20.0235 65.0816 19.9683 65.193C19.9131 65.3045 19.8838 65.4273 19.8826 65.552C20.2253 68.4713 18.5859 71.0101 15.8183 71.8257C15.6719 71.8689 15.5349 71.942 15.3922 72.0001H13.4508ZM11.9188 66.3507C11.9151 67.0116 12.1665 67.6478 12.6195 68.1237C13.0724 68.5997 13.6911 68.8778 14.3437 68.8989C15.0069 68.8984 15.6432 68.6331 16.1142 68.1605C16.5853 67.688 16.853 67.0463 16.8594 66.3751C16.8509 65.7153 16.5897 65.0846 16.1308 64.6159C15.6718 64.1472 15.0511 63.8771 14.3993 63.8626C13.7475 63.8698 13.124 64.1335 12.661 64.598C12.198 65.0624 11.9318 65.6911 11.9188 66.3507Z" fill="white"/>
<path d="M52.3546 49.082C51.2042 49.097 50.1946 48.707 49.2498 48.0582C49.1433 47.9986 49.0249 47.9639 48.9034 47.9568C48.7819 47.9497 48.6603 47.9702 48.5477 48.017C47.5363 48.5795 46.5563 49.1945 45.556 49.7776C44.5927 50.3401 43.672 50.1526 43.2181 49.3107C42.7643 48.4688 43.0625 47.6663 44.0166 47.0907C44.928 46.5395 45.8357 45.9788 46.7619 45.4576C47.1528 45.2382 47.2899 45.0432 47.2047 44.5351C46.7397 41.777 48.733 38.9851 51.4228 38.5351C54.3867 38.0495 57.0784 39.9432 57.5507 42.8476C58.0935 46.1795 55.6631 49.0932 52.3546 49.082ZM52.4212 41.582C52.1327 41.5755 51.8458 41.6272 51.5772 41.7341C51.3086 41.841 51.0637 42.0009 50.8568 42.2046C50.6499 42.4083 50.4851 42.6516 50.3721 42.9203C50.259 43.1891 50.1999 43.478 50.1983 43.7701C50.2085 44.3478 50.4379 44.8995 50.839 45.3107C51.2401 45.7219 51.7821 45.9611 52.3527 45.9788C52.6414 45.9821 52.9278 45.927 53.1953 45.8169C53.4627 45.7067 53.7057 45.5437 53.9101 45.3373C54.1145 45.1309 54.2762 44.8854 54.3857 44.615C54.4952 44.3446 54.5504 44.0548 54.5479 43.7626C54.5516 43.4779 54.4992 43.1953 54.3939 42.9314C54.2886 42.6674 54.1324 42.4272 53.9345 42.225C53.7365 42.0227 53.5008 41.8623 53.241 41.7532C52.9812 41.6441 52.7025 41.5884 52.4212 41.5895V41.582Z" fill="white"/>
<path d="M41.6084 51.42C41.3138 51.8306 41.1026 52.3725 40.7099 52.6312C39.3391 53.5294 37.9182 54.3469 36.4955 55.1606C36.3237 55.2685 36.132 55.34 35.9321 55.3709C35.7322 55.4017 35.5282 55.3913 35.3324 55.3401C35.1366 55.2889 34.953 55.1981 34.7928 55.0732C34.6327 54.9482 34.4992 54.7917 34.4004 54.6131C34.2968 54.4368 34.2291 54.2413 34.2014 54.0381C34.1738 53.8349 34.1867 53.6281 34.2393 53.4301C34.292 53.232 34.3834 53.0466 34.5081 52.8849C34.6328 52.7232 34.7883 52.5885 34.9654 52.4887C36.3418 51.6394 37.7256 50.8012 39.1298 50.0044C40.219 49.3837 41.4528 50.0981 41.6084 51.42Z" fill="white"/>
<path d="M27.0276 60.6262C26.1774 60.6093 25.7087 60.2512 25.4567 59.5968C25.3334 59.2883 25.3194 58.9461 25.417 58.6283C25.5145 58.3104 25.7177 58.0365 25.9921 57.8531C27.463 56.9306 28.9561 56.0362 30.464 55.185C30.807 55.0048 31.2065 54.9689 31.5756 55.0851C31.9446 55.2013 32.2535 55.4602 32.435 55.8056C32.6314 56.1426 32.6919 56.5433 32.6039 56.9242C32.5159 57.3052 32.2863 57.6372 31.9626 57.8512C30.5325 58.7493 29.0709 59.5987 27.613 60.45C27.4273 60.5369 27.2301 60.5963 27.0276 60.6262Z" fill="white"/>
<path d="M13.4694 44.372C9.37354 44.357 5.98351 40.8882 6.00018 36.7295C6.01686 32.5707 9.43282 29.1301 13.5268 29.1357C17.6208 29.1414 21.0682 32.6401 21.0312 36.7501C21.0219 38.7742 20.2212 40.7122 18.8042 42.1405C17.3872 43.5687 15.4691 44.371 13.4694 44.372ZM17.9153 36.737C17.919 36.1518 17.8079 35.5717 17.5886 35.0302C17.3693 34.4887 17.046 33.9967 16.6375 33.5825C16.229 33.1684 15.7434 32.8403 15.2088 32.6174C14.6742 32.3945 14.1013 32.2811 13.5231 32.2839C12.9386 32.2773 12.3588 32.3893 11.8179 32.6135C11.277 32.8376 10.786 33.1693 10.3739 33.5888C9.96182 34.0084 9.63704 34.5073 9.41876 35.0561C9.20048 35.6048 9.09314 36.1924 9.10308 36.7839C9.09922 37.3749 9.21253 37.9607 9.4363 38.5066C9.66006 39.0525 9.98974 39.5475 10.4058 39.9621C10.8219 40.3768 11.3159 40.7028 11.8587 40.9208C12.4015 41.1388 12.9819 41.2444 13.5657 41.2314C14.1449 41.2315 14.7184 41.1147 15.2525 40.8878C15.7867 40.6609 16.2707 40.3285 16.6764 39.91C17.0821 39.4915 17.4013 38.9954 17.6153 38.4506C17.8293 37.9057 17.9338 37.3232 17.9227 36.737H17.9153Z" fill="white"/>
<path d="M44.9595 13.7963C44.9966 9.63196 48.4292 6.19509 52.5121 6.23447C56.6375 6.27384 60.0591 9.77072 59.9868 13.8713C59.909 18.1313 56.5356 21.512 52.4009 21.4763C48.3088 21.4388 44.9225 17.9457 44.9595 13.7963ZM52.4472 18.3226C53.0253 18.3323 53.5994 18.2256 54.1363 18.0087C54.6733 17.7919 55.1623 17.4692 55.5749 17.0594C55.9875 16.6496 56.3156 16.1608 56.54 15.6216C56.7644 15.0824 56.8807 14.5033 56.8821 13.9182C56.8982 13.3272 56.7968 12.7389 56.5838 12.1883C56.3708 11.6377 56.0506 11.1362 55.6422 10.7134C55.2338 10.2906 54.7456 9.95523 54.2066 9.72726C53.6676 9.49929 53.0888 9.38335 52.5047 9.38634C51.9266 9.37564 51.3522 9.48149 50.815 9.69773C50.2777 9.91397 49.7884 10.2363 49.3755 10.6459C48.9625 11.0554 48.6343 11.5441 48.4098 12.0834C48.1853 12.6227 48.0691 13.2018 48.068 13.787C48.0536 14.3779 48.1563 14.9657 48.3701 15.5158C48.5838 16.0659 48.9042 16.5671 49.3123 16.9898C49.7205 17.4125 50.2082 17.7483 50.7466 17.9772C51.285 18.2061 51.8633 18.3235 52.4472 18.3226Z" fill="white"/>
</g>
<defs>
<clipPath id="clip0_263_186">
<rect width="66" height="72" fill="white"/>
</clipPath>
</defs>
</svg>
