<svg width="71" height="70" viewBox="0 0 71 70" fill="none" xmlns="http://www.w3.org/2000/svg">
<g clip-path="url(#clip0_263_139)">
<path d="M69.2283 51.1028C67.5588 51.0378 65.9311 50.5612 64.4898 49.7151C61.5229 47.9306 58.5793 47.9137 55.5615 49.609C51.9249 51.6545 48.263 51.6015 44.6306 49.5496C41.7951 47.9476 38.9532 47.9306 36.1199 49.5496C32.3731 51.6884 28.656 51.646 24.9198 49.4923C22.1797 47.9158 19.395 47.9094 16.6401 49.4923C12.853 51.6736 9.07658 51.7054 5.3065 49.4626C4.14316 48.7738 2.82569 48.3886 1.47496 48.3423C1.05112 48.3253 0.519193 48.1768 0.286079 47.8861C0.160211 47.6984 0.0730662 47.4874 0.0297599 47.2655C-0.0135464 47.0436 -0.0121425 46.8152 0.0338925 46.5939C0.169522 45.9976 0.731117 45.7579 1.33509 45.7664C3.27333 45.7827 5.16902 46.3373 6.81114 47.3684C8.95154 48.686 11.2361 48.8346 13.5926 48.1068C14.1897 47.8958 14.7623 47.6212 15.3007 47.2877C19.0009 45.1977 22.6946 45.2041 26.3545 47.3556C28.5437 48.6436 30.8303 48.8409 33.2123 48.0962C33.8302 47.8666 34.4242 47.5774 34.9861 47.2326C38.5336 45.2911 42.1215 45.2189 45.6415 47.1965C48.6847 48.9067 51.6092 48.9152 54.6503 47.2092C58.2275 45.1892 61.8704 45.2741 65.4328 47.3111C66.6373 48.0316 67.9989 48.4475 69.4 48.5226C70.5062 48.5714 71.0233 49.0276 70.9958 49.8552C70.9682 50.6827 70.3452 51.1304 69.2283 51.1028Z" fill="white"/>
<path d="M5.62651 55.5522C7.13804 55.5773 8.61562 56.005 9.90732 56.7914C12.5288 58.3849 15.0973 58.3191 17.759 56.7914C20.8637 55.0175 24.0785 55.0154 27.1916 56.7914C29.8216 58.2767 32.354 58.3276 34.9924 56.8445C38.1713 55.0642 41.4052 55.0515 44.5776 56.8445C47.1822 58.3107 49.704 58.317 52.3128 56.8445C55.5128 55.043 58.7679 55.0833 61.9658 56.8784C63.1462 57.5383 64.3563 57.9627 65.7147 57.9797C66.5157 57.9797 67.0371 58.5335 67.0265 59.2528C67.0159 59.9721 66.4924 60.4728 65.6808 60.5004C64.0595 60.5603 62.4565 60.1412 61.0715 59.2952C58.4521 57.7165 55.8731 57.7378 53.2071 59.2337C50.0643 61.0012 46.8367 61.0012 43.6939 59.2337C41.028 57.7356 38.4785 57.7675 35.8211 59.2782C32.7397 61.0266 29.5376 61.033 26.4626 59.2782C23.7712 57.7399 21.2218 57.7271 18.5325 59.2634C15.4279 61.0351 12.23 60.9948 9.0999 59.2634C7.94917 58.6268 6.78996 58.1133 5.45273 58.0985C4.45458 58.0857 3.88876 57.6041 3.89088 56.8063C3.89299 56.0084 4.4673 55.5331 5.46545 55.5459L5.62651 55.5522Z" fill="white"/>
<path d="M35.4819 25.3752C46.0102 25.4474 55.2902 32.7445 57.7464 42.9378C58.024 44.09 57.4306 44.9048 56.3965 44.7754C55.6759 44.6862 55.4174 44.177 55.2563 43.5362C54.3127 39.742 52.307 36.2962 49.4751 33.6038C38.4764 23.0179 19.6663 28.2992 15.7796 43.0588C15.396 44.5165 14.8917 44.9939 13.9846 44.7563C13.1476 44.5441 12.925 43.7866 13.2895 42.4222C14.4621 38.0946 16.875 34.2057 20.2303 31.2358C23.5856 28.2658 27.7362 26.345 32.1696 25.7105C33.2695 25.5535 34.3778 25.4835 35.4819 25.3752Z" fill="white"/>
<path d="M9.77164 65.2853C11.0527 65.3669 12.2952 65.757 13.3934 66.4226C15.5592 67.7339 17.7081 67.7148 19.9057 66.4523C22.7243 64.8333 25.5979 64.8249 28.4228 66.4269C30.6205 67.6724 32.7524 67.683 34.9564 66.4459C37.7813 64.8588 40.6592 64.8546 43.4862 66.4459C45.6881 67.6809 47.8158 67.6724 50.0197 66.4459C52.8446 64.8609 55.7183 64.8864 58.5453 66.4714C59.5117 67.0125 60.4908 67.3817 61.6118 67.3987C62.5231 67.4114 63.0953 67.9864 63.055 68.7439C63.0147 69.5014 62.4087 70.017 61.508 69.9852C60.1545 69.9679 58.8288 69.5978 57.6616 68.9115C55.4216 67.5451 53.2113 67.5705 50.9246 68.8585C48.1697 70.4053 45.3087 70.399 42.5389 68.8415C40.3116 67.5896 38.1712 67.5811 35.9333 68.8415C33.1105 70.4202 30.2284 70.4053 27.4077 68.7991C25.208 67.5472 23.0888 67.5854 20.8869 68.8458C18.1023 70.4435 15.2774 70.3629 12.4249 68.8818C11.4605 68.4137 10.4366 68.0803 9.38171 67.8909C8.37932 67.6787 7.83256 67.3308 7.86435 66.5414C7.89614 65.7521 8.51071 65.262 9.77164 65.2853Z" fill="white"/>
<path d="M34.9352 4.12693C35.7829 2.23848 37.0226 0.844421 38.8812 0.110259C39.3344 -0.0546299 39.8341 -0.0355931 40.2735 0.163306C41.1466 0.644967 41.0407 1.93718 40.0785 2.32123C38.2348 3.05964 37.4274 4.56828 36.8997 6.3082C36.7047 6.94476 36.5077 7.53251 35.7808 7.70014C35.1153 7.85291 34.7063 7.43278 34.2973 6.99568C32.39 4.96718 30.0229 3.97203 27.2446 3.94445C26.274 3.94445 25.6637 3.43733 25.6785 2.66073C25.6933 1.88413 26.2867 1.43217 27.2043 1.40883C30.0928 1.3282 32.6274 2.28941 34.9352 4.12693Z" fill="white"/>
<path d="M58.7192 7.46265C59.4418 5.80973 60.5353 4.53025 62.1099 3.69424C62.4076 3.52484 62.726 3.39502 63.0572 3.30806C63.3523 3.21513 63.6721 3.24258 63.9471 3.38442C64.2221 3.52626 64.4301 3.77104 64.5258 4.06556C64.8077 4.74243 64.5746 5.3705 63.9685 5.61027C61.9425 6.40809 61.1372 8.08648 60.565 9.98766C60.1984 11.1971 59.1155 11.473 58.2763 10.5542C56.2694 8.35595 53.7899 7.29714 50.8336 7.28653C50.024 7.28653 49.4773 6.77305 49.4582 6.0601C49.4391 5.34716 50.0283 4.78699 50.8548 4.75304C53.4615 4.66275 56.0213 5.46345 58.1131 7.02343L58.7192 7.46265Z" fill="white"/>
<path d="M25.8142 21.9422C25.8142 22.6743 25.5238 23.1326 24.9262 23.2938C24.2735 23.47 23.7013 23.2747 23.4089 22.6191C22.985 21.6558 22.5802 20.6776 22.1755 19.7037C21.6711 18.4857 21.1646 17.2678 20.6772 16.0413C20.3275 15.165 20.5712 14.4499 21.2833 14.1677C21.9953 13.8855 22.6862 14.2123 23.0443 15.0653C23.9175 17.1596 24.7757 19.2602 25.634 21.3587C25.7048 21.5497 25.7649 21.7445 25.8142 21.9422Z" fill="white"/>
<path d="M46.3408 23.3446C45.3511 23.3276 44.8573 22.4449 45.2811 21.3904C45.9996 19.6059 46.7476 17.832 47.483 16.0518C47.6335 15.6868 47.7691 15.3134 47.9365 14.9569C48.2947 14.1845 48.9961 13.8811 49.6828 14.1824C50.3185 14.4667 50.594 15.1627 50.2952 15.9351C49.8714 17.0172 49.4094 18.0824 48.9665 19.1539C48.5235 20.2255 48.0637 21.35 47.6102 22.447C47.3707 23.0093 46.9956 23.3594 46.3408 23.3446Z" fill="white"/>
<path d="M9.00028 38.7853C8.86041 38.7407 8.60398 38.6813 8.36451 38.5731C6.31453 37.7244 4.26596 36.8756 2.2188 36.0269C1.26303 35.6258 0.902763 34.9299 1.24396 34.1809C1.56608 33.47 2.27813 33.2791 3.22542 33.6695C5.2747 34.5182 7.31974 35.367 9.37114 36.2157C9.94121 36.4512 10.3862 36.778 10.399 37.4719C10.4138 38.2315 9.86915 38.7938 9.00028 38.7853Z" fill="white"/>
<path d="M68.4229 33.4617C69.1583 33.502 69.5906 33.8097 69.7263 34.4271C69.8619 35.0446 69.6669 35.6005 69.0502 35.8742C68.0394 36.3262 67.0094 36.7378 65.988 37.1622C64.8203 37.6481 63.6568 38.1404 62.4786 38.6114C61.597 38.9636 60.8913 38.7281 60.5988 38.0194C60.3064 37.3107 60.637 36.6041 61.4804 36.2519C63.5728 35.3777 65.6687 34.5127 67.7681 33.6569C67.9821 33.5783 68.2008 33.5131 68.4229 33.4617Z" fill="white"/>
<path d="M16.7015 28.4264C16.4239 28.7511 16.195 29.2433 15.8305 29.3813C15.466 29.5192 14.8112 29.4831 14.5336 29.2391C13.4509 28.2739 12.4209 27.2511 11.448 26.1752C10.9924 25.6765 11.0496 25.0463 11.5222 24.5243C11.6264 24.4037 11.7536 24.3051 11.8964 24.2342C12.0391 24.1633 12.1945 24.1216 12.3535 24.1115C12.5125 24.1015 12.672 24.1232 12.8225 24.1755C12.973 24.2278 13.1116 24.3096 13.2302 24.4161C14.2899 25.4092 15.3007 26.4489 16.3031 27.4949C16.479 27.6753 16.5299 28.0021 16.7015 28.4264Z" fill="white"/>
<path d="M59.9228 25.3136C59.6494 25.7741 59.499 26.1475 59.2532 26.417C58.4055 27.3167 57.5175 28.1866 56.6296 29.0523C56.0108 29.6549 55.2669 29.6889 54.735 29.1839C54.2031 28.6789 54.1967 27.8938 54.7816 27.287C55.6802 26.3576 56.602 25.4516 57.5196 24.5413C57.9562 24.1169 58.5051 23.9344 59.0243 24.2676C59.3761 24.4946 59.5986 24.9274 59.9228 25.3136Z" fill="white"/>
<path d="M36.7259 17.8554C36.7259 18.5153 36.7259 19.1752 36.7259 19.8351C36.709 20.6265 36.1919 21.1803 35.4862 21.1952C35.3147 21.1967 35.1446 21.1635 34.9863 21.0975C34.828 21.0315 34.6846 20.9342 34.5648 20.8113C34.445 20.6884 34.3513 20.5425 34.2893 20.3824C34.2273 20.2223 34.1983 20.0512 34.204 19.8796C34.1843 18.5344 34.1843 17.1905 34.204 15.8481C34.1967 15.6829 34.2234 15.518 34.2827 15.3636C34.342 15.2092 34.4324 15.0688 34.5484 14.9511C34.6644 14.8333 34.8034 14.7409 34.9568 14.6794C35.1101 14.618 35.2745 14.589 35.4395 14.5941C36.1961 14.5835 36.7005 15.0757 36.7259 15.8821C36.7407 16.5441 36.7259 17.1955 36.7259 17.8554Z" fill="white"/>
</g>
<defs>
<clipPath id="clip0_263_139">
<rect width="71" height="70" fill="white"/>
</clipPath>
</defs>
</svg>
