<svg width="145" height="16" viewBox="0 0 145 16" fill="none" xmlns="http://www.w3.org/2000/svg">
<path d="M0.00683594 14.9529H3.33949L6.87599 8.58171L8.12314 10.2629V14.9529H10.8843V10.325L12.1314 8.62344L15.7088 14.9529H19.1029L14.379 6.75558L18.7952 0.218729H15.3606L10.9243 7.04639L10.8832 7.02443V0.218729H8.12336V6.92185L8.08224 6.94228L3.52322 0.218729H0.0884162L4.66844 6.77667L0.00683594 14.9529ZM21.003 14.9529H23.8855V10.7404L25.2965 9.03879L29.1807 14.9529H32.738L27.198 6.71451L32.5545 0.218729H28.8949L23.9273 6.67278H23.8862V0.218729H21.0036L21.003 14.9529ZM43.9816 14.1436L41.5284 9.82688L44.0024 5.44804H41.4272L38.9738 9.82688L41.3865 14.1436H43.9816ZM48.1732 14.1436L45.7403 9.82688L48.1927 5.44804H45.6174L43.1636 9.82688L45.5958 14.1436H48.1732ZM50.1152 14.9529H56.0644C59.2941 14.9529 60.847 13.2301 60.847 10.8853C60.847 8.93468 59.784 7.60671 57.924 7.15138V7.10965C59.4981 6.48718 60.1117 5.1379 60.1117 3.80992C60.1117 1.46499 58.4352 0.219827 55.3477 0.219827H50.1152V14.9529ZM52.9568 6.237V2.79209H55.0012C56.5754 2.79209 57.2086 3.47694 57.2086 4.5141C57.2086 5.7182 56.3706 6.237 55.1235 6.237H52.9568ZM52.9568 12.3796V8.6028H55.3693C57.0251 8.6028 57.8636 9.34959 57.8636 10.5117C57.8636 11.7571 57.0251 12.3787 55.6552 12.3787L52.9568 12.3796ZM69.8231 15.1396C74.0705 15.1396 77.1961 12.0752 77.2025 7.60165H74.1982C74.1908 10.3742 72.3124 12.4002 69.8231 12.4002C67.2111 12.4002 65.4145 10.2697 65.4071 7.60165H62.4227C62.43 11.9726 65.4329 15.1396 69.8237 15.1396H69.8231ZM86.5669 15.0979C89.1224 15.0979 91.0848 13.8945 92.3319 12.3174L90.2259 10.47C89.3468 11.5702 88.0795 12.337 86.5669 12.337C83.97 12.337 82.171 10.3659 82.171 7.62647C82.171 4.6795 84.0518 2.81164 86.5257 2.81164C88.0189 2.81164 89.2444 3.5178 90.1854 4.67862L92.3116 2.87314C90.7578 0.943557 88.611 0.0302734 86.5257 0.0302734C81.8237 0.0302734 79.1658 3.41281 79.1658 7.6256C79.1658 12.4813 82.5188 15.0962 86.5669 15.0962V15.0979ZM97.4835 14.9529H100.387V2.81252H104.415V0.218729H93.5176V2.81252H97.4835V14.9529ZM112.428 15.1396C116.68 15.1396 119.807 12.0684 119.807 7.58562C119.807 3.0829 116.68 0.0320305 112.428 0.0320305C108.033 0.0320305 105.027 3.20722 105.027 7.58562C105.027 11.964 108.032 15.1396 112.428 15.1396ZM112.428 12.4002C109.812 12.4002 108.013 10.2629 108.013 7.58562C108.013 4.90837 109.813 2.77144 112.428 2.77144C114.922 2.77144 116.803 4.80491 116.803 7.58562C116.803 10.3663 114.922 12.4002 112.428 12.4002ZM122.364 14.9529H125.246V10.7404L126.657 9.03879L130.541 14.9529H134.099L128.559 6.71451L133.915 0.218729H130.256L125.287 6.67278H125.246V0.218729H122.364V14.9529ZM134.896 14.1436H137.471L139.906 9.82688L137.452 5.44804H134.875L137.33 9.82688L134.896 14.1436ZM139.087 14.1436H141.684L144.097 9.82688L141.643 5.44804H139.066L141.54 9.82688L139.087 14.1436Z" fill="#326EC8"/>
<path d="M77.2036 7.58533H74.1984C74.1984 4.80462 72.3176 2.77115 69.8233 2.77115C67.2065 2.77115 65.4073 4.90852 65.4073 7.58533H62.4229C62.4229 3.20693 65.4281 0.0317383 69.8239 0.0317383C74.0763 0.0317383 77.2034 3.08239 77.2034 7.58533H77.2036Z" fill="#DC3E3E"/>
</svg>
